<svg width="40" height="35" viewBox="0 0 40 35" fill="none" xmlns="http://www.w3.org/2000/svg">
<g clip-path="url(#clip0_4275_180)">
<path d="M30.2083 10.6252C29.4792 10.2085 28.5417 10.2085 27.7083 10.6252L21.875 14.0627L17.9167 16.2502L12.1875 19.6877C11.4583 20.1043 10.5208 20.1043 9.6875 19.6877L5.20833 16.9793C4.47917 16.5627 3.95833 15.7293 3.95833 14.7918V9.5835C3.95833 8.75016 4.375 7.91683 5.20833 7.396L9.6875 4.79183C10.4167 4.37516 11.3542 4.37516 12.1875 4.79183L16.6667 7.50016C17.3958 7.91683 17.9167 8.75016 17.9167 9.68766V13.1252L21.875 10.8335V7.29183C21.875 6.4585 21.4583 5.62516 20.625 5.10433L12.2917 0.208496C11.5625 -0.208171 10.625 -0.208171 9.79167 0.208496L1.25 5.2085C0.416667 5.62516 0 6.4585 0 7.29183V17.0835C0 17.9168 0.416667 18.7502 1.25 19.271L9.6875 24.1668C10.4167 24.5835 11.3542 24.5835 12.1875 24.1668L17.9167 20.8335L21.875 18.5418L27.6042 15.2085C28.3333 14.7918 29.2708 14.7918 30.1042 15.2085L34.5833 17.8127C35.3125 18.2293 35.8333 19.0627 35.8333 20.0002V25.2085C35.8333 26.0418 35.4167 26.8752 34.5833 27.396L30.2083 30.0002C29.4792 30.4168 28.5417 30.4168 27.7083 30.0002L23.2292 27.396C22.5 26.9793 21.9792 26.146 21.9792 25.2085V21.8752L18.0208 24.1668V27.6043C18.0208 28.4377 18.4375 29.271 19.2708 29.7918L27.7083 34.6877C28.4375 35.1043 29.375 35.1043 30.2083 34.6877L38.6458 29.7918C39.375 29.3752 39.8958 28.5418 39.8958 27.6043V17.7085C39.8958 16.8752 39.4792 16.0418 38.6458 15.521L30.2083 10.6252Z" fill="#00FF57"/>
</g>
<defs>
<clipPath id="clip0_4275_180">
<rect width="40" height="34.8958" fill="white"/>
</clipPath>
</defs>
</svg>
