<svg width="32" height="40" viewBox="0 0 32 40" fill="none" xmlns="http://www.w3.org/2000/svg">
<path d="M13.9233 0.383169C14.8919 -0.127723 16.3657 -0.127723 17.3343 0.383169L27.2182 5.59637C27.8016 5.90404 28.1219 6.36254 28.1793 6.83586H28.1888V33.0399C28.1759 33.5562 27.8525 34.0691 27.2182 34.4036L17.3343 39.6168C16.3657 40.1277 14.8919 40.1277 13.9233 39.6168L4.03944 34.4036C3.40778 34.0705 3.10464 33.554 3.08962 33.0399C3.08808 32.9872 3.08795 32.9437 3.08958 32.9079L3.08962 7.01228C3.08815 6.97585 3.08814 6.93959 3.08959 6.90347L3.08962 6.83586H3.09404C3.13794 6.35731 3.44378 5.91052 4.03944 5.59637L13.9233 0.383169ZM26.6165 21.4045L17.3313 26.318C16.3641 26.8298 14.8924 26.8298 13.9252 26.318L4.66069 21.4154V32.9589L13.9252 37.8355C14.4727 38.1285 15.0419 38.4141 15.5963 38.4265L15.6283 38.427C16.1815 38.4288 16.7186 38.1473 17.2633 37.8809L26.6165 32.9169V21.4045ZM1.53993 32.4719C1.53993 33.4764 1.65559 34.1367 1.88523 34.6018C2.07557 34.9874 2.36116 35.282 2.88262 35.6405L2.91239 35.6608C3.02683 35.7387 3.15289 35.8203 3.30635 35.9162L3.48731 36.0281L4.04301 36.3666L3.24599 37.6966L2.62403 37.3175L2.51948 37.2527C2.33965 37.1406 2.19059 37.0444 2.05156 36.9497C0.565374 35.9383 0.0111022 34.8357 0.000165367 32.5418L0 32.4719H1.53993ZM14.8805 14.4382C14.8086 14.4629 14.7412 14.4916 14.6798 14.5242L4.81099 19.7542C4.80063 19.7596 4.79076 19.7651 4.78136 19.7704L4.773 19.7753L4.7885 19.7842L4.81099 19.7964L14.6798 25.0264C14.7412 25.0589 14.8086 25.0876 14.8805 25.1124V14.4382ZM16.4528 14.4382V25.1124C16.5248 25.0876 16.5922 25.0589 16.6536 25.0264L26.5223 19.7964C26.5327 19.791 26.5426 19.7855 26.5519 19.7801L26.5603 19.7753L26.5448 19.7664L26.5223 19.7542L16.6536 14.5242C16.5922 14.4916 16.5248 14.4629 16.4528 14.4382ZM26.6165 8.70787L17.7443 13.3708L26.6165 18.0337V8.70787ZM4.66069 8.70787V18.0337L13.5329 13.3708L4.66069 8.70787ZM16.645 1.7768C16.1313 1.50511 15.202 1.50511 14.6883 1.7768L4.81102 7.00133C4.80066 7.00684 4.79077 7.01224 4.78136 7.01764L4.773 7.02247L4.78851 7.03135L4.81102 7.0436L14.6883 12.2681C15.202 12.5398 16.1313 12.5398 16.645 12.2681L26.5223 7.0436C26.5326 7.0381 26.5425 7.0327 26.5519 7.02735L26.5603 7.02247L26.5448 7.01359L26.5223 7.00133L16.645 1.7768ZM28.0873 2.30337L28.7093 2.68254L28.8138 2.74733C28.9937 2.85938 29.1427 2.95565 29.2818 3.05026C30.768 4.06166 31.3222 5.16433 31.3332 7.45821L31.3333 7.52809H29.7934C29.7934 6.52351 29.6777 5.86331 29.4481 5.39814C29.2578 5.01263 28.9722 4.718 28.4508 4.35951L28.421 4.33914C28.3065 4.26127 28.1805 4.17967 28.027 4.08379L27.846 3.97192L27.2903 3.63341L28.0873 2.30337Z" fill="#00FF57"/>
</svg>
