<svg width="40" height="22" viewBox="0 0 40 22" fill="none" xmlns="http://www.w3.org/2000/svg">
<path d="M7.8972 21.0436C5.57633 21.0436 3.67601 20.4984 2.19626 19.4081C0.732087 18.3022 0 16.7134 0 14.6729C0 14.2368 0.0467292 13.7227 0.140187 13.0997C0.389408 11.6978 0.747663 10.0156 1.21495 8.03738C2.53894 2.67913 5.96573 0 11.4798 0C12.9751 0 14.3302 0.24922 15.514 0.763239C16.6978 1.24611 17.6324 1.99377 18.3178 2.99065C19.0031 3.97196 19.3458 5.14019 19.3458 6.49533C19.3458 6.90031 19.2991 7.41433 19.2056 8.03738C18.9097 9.76636 18.567 11.4642 18.1464 13.0997C17.4611 15.7632 16.2928 17.7726 14.6106 19.0966C12.9439 20.405 10.7009 21.0436 7.8972 21.0436ZM8.31776 16.838C9.4081 16.838 10.3271 16.5109 11.0903 15.8723C11.8692 15.2337 12.4299 14.2523 12.757 12.9128C13.2087 11.0748 13.5514 9.48598 13.7851 8.11527C13.8629 7.71028 13.9097 7.28972 13.9097 6.85359C13.9097 5.07788 12.9907 4.19003 11.1371 4.19003C10.0467 4.19003 9.11215 4.51713 8.33334 5.15576C7.5701 5.79439 7.02492 6.7757 6.69782 8.11527C6.33957 9.42368 5.99689 11.0125 5.63863 12.9128C5.56075 13.3022 5.51402 13.7072 5.51402 14.1433C5.49844 15.9502 6.4486 16.838 8.31776 16.838Z" fill="#00FF57"/>
<path d="M20.7012 20.7632C20.4832 20.7632 20.3274 20.7009 20.2028 20.5607C20.1093 20.4049 20.0782 20.2336 20.1093 20.0311L24.1436 1.02799C24.1748 0.809917 24.2838 0.638578 24.4707 0.498391C24.6421 0.358204 24.829 0.295898 25.0315 0.295898H32.804C34.9692 0.295898 36.6981 0.747613 38.0065 1.63546C39.3305 2.53889 40.0003 3.83173 40.0003 5.52955C40.0003 6.01241 39.938 6.52643 39.829 7.05603C39.3461 9.29902 38.3648 10.9501 36.8695 12.0249C35.4053 13.0996 33.3959 13.6292 30.8414 13.6292H26.9006L25.5611 20.0311C25.5143 20.2492 25.4209 20.4205 25.234 20.5607C25.0626 20.7009 24.8757 20.7632 24.6732 20.7632H20.7012ZM31.0439 9.59497C31.8695 9.59497 32.5704 9.3769 33.1779 8.92519C33.8009 8.47347 34.2059 7.83484 34.4084 6.99372C34.4707 6.66662 34.5019 6.37067 34.5019 6.12145C34.5019 5.5607 34.3305 5.12456 34.0034 4.82861C33.6763 4.51709 33.1 4.36132 32.3056 4.36132H28.8009L27.695 9.59497H31.0439Z" fill="#00FF57"/>
</svg>
