<svg width="44" height="44" viewBox="0 0 44 44" fill="none" xmlns="http://www.w3.org/2000/svg">
<path d="M35.3279 9.77167C32.8896 8.635 30.2496 7.81 27.4996 7.33334C27.4755 7.33257 27.4515 7.33709 27.4293 7.34659C27.4071 7.3561 27.3873 7.37035 27.3712 7.38834C27.0412 7.99334 26.6562 8.78167 26.3996 9.38667C23.4827 8.94667 20.5164 8.94667 17.5996 9.38667C17.3429 8.76334 16.9579 7.99334 16.6096 7.38834C16.5912 7.35167 16.5362 7.33334 16.4812 7.33334C13.7312 7.81 11.1096 8.635 8.6529 9.77167C8.63456 9.77167 8.61623 9.79 8.5979 9.80834C3.61123 17.27 2.23623 24.53 2.91456 31.7167C2.91456 31.7533 2.9329 31.79 2.96956 31.8083C6.26956 34.2283 9.44123 35.695 12.5762 36.6667C12.6312 36.685 12.6862 36.6667 12.7046 36.63C13.4379 35.6217 14.0979 34.5583 14.6662 33.44C14.7029 33.3667 14.6662 33.2933 14.5929 33.275C13.5479 32.8717 12.5579 32.395 11.5862 31.845C11.5129 31.8083 11.5129 31.6983 11.5679 31.6433C11.7696 31.4967 11.9712 31.3317 12.1729 31.185C12.2096 31.1483 12.2646 31.1483 12.3012 31.1667C18.6079 34.045 25.4096 34.045 31.6429 31.1667C31.6796 31.1483 31.7346 31.1483 31.7712 31.185C31.9729 31.35 32.1746 31.4967 32.3762 31.6617C32.4496 31.7167 32.4496 31.8267 32.3579 31.8633C31.4046 32.4317 30.3962 32.89 29.3512 33.2933C29.2779 33.3117 29.2596 33.4033 29.2779 33.4583C29.8646 34.5767 30.5246 35.64 31.2396 36.6483C31.2946 36.6667 31.3496 36.685 31.4046 36.6667C34.5579 35.695 37.7296 34.2283 41.0296 31.8083C41.0662 31.79 41.0846 31.7533 41.0846 31.7167C41.8912 23.4117 39.7462 16.2067 35.4012 9.80834C35.3829 9.79 35.3646 9.77167 35.3279 9.77167ZM15.6196 27.335C13.7312 27.335 12.1546 25.5933 12.1546 23.4483C12.1546 21.3033 13.6946 19.5617 15.6196 19.5617C17.5629 19.5617 19.1029 21.3217 19.0846 23.4483C19.0846 25.5933 17.5446 27.335 15.6196 27.335ZM28.3979 27.335C26.5096 27.335 24.9329 25.5933 24.9329 23.4483C24.9329 21.3033 26.4729 19.5617 28.3979 19.5617C30.3412 19.5617 31.8812 21.3217 31.8629 23.4483C31.8629 25.5933 30.3412 27.335 28.3979 27.335Z" fill="white"/>
</svg>
