<svg width="244" height="56" viewBox="0 0 244 56" fill="none" xmlns="http://www.w3.org/2000/svg">
<g clip-path="url(#clip0_4138_314)">
<path fill-rule="evenodd" clip-rule="evenodd" d="M25.736 0.173746C20.3511 0.635351 15.4114 2.52259 11.1529 5.7455C9.19657 7.22605 7.23557 9.18437 5.75594 11.1352C2.82002 15.0059 0.944649 19.5569 0.319919 24.3272C0.0235686 26.5899 0.0235686 29.4095 0.319919 31.6723C1.02326 37.0426 3.29808 42.0981 6.87709 46.2446C7.61967 47.1048 9.03065 48.5098 9.86976 49.2244C13.9983 52.7403 19.034 54.9846 24.3542 55.6798C26.6194 55.9758 29.4422 55.9758 31.7074 55.6798C37.0276 54.9846 42.0633 52.7403 46.1918 49.2244C47.0309 48.5098 48.4419 47.1048 49.1845 46.2446C52.7635 42.0981 55.0383 37.0426 55.7417 31.6723C56.038 29.4095 56.038 26.5899 55.7417 24.3272C55.0457 19.013 52.7989 13.9829 49.2791 9.85889C48.5637 9.02071 47.1572 7.61129 46.296 6.86954C42.1448 3.29451 37.0838 1.02222 31.7074 0.319661C30.0104 0.0978794 27.3728 0.0334498 25.736 0.173746ZM26.8464 3.10645C20.6049 3.40967 14.8091 5.97226 10.3926 10.3814C8.64597 12.1251 7.16979 14.1142 5.96958 16.3413C5.65877 16.9179 5.08117 18.1554 5.10955 18.1838C5.12031 18.1945 5.35744 18.1084 5.63646 17.9923C6.29993 17.7164 6.56411 17.6489 6.98374 17.6482C7.35564 17.6476 7.92535 17.7824 8.25027 17.948C8.35825 18.003 8.55032 18.1556 8.67706 18.2869C8.82249 18.4377 9.15304 18.6666 9.57366 18.9079C11.5009 20.0133 14.0981 21.6756 15.6438 22.7932C16.4519 23.3774 17.0765 24.0037 17.3951 24.549C17.5298 24.7795 17.9213 25.5694 18.2651 26.3044C18.9559 27.781 19.298 28.4103 19.4719 28.5241C19.5702 28.5885 19.6287 28.5906 19.8732 28.5388C20.1439 28.4814 20.1874 28.4499 20.6797 27.9555C20.9659 27.668 21.5532 27.0224 21.9848 26.5209C23.2363 25.0664 23.6621 24.6227 24.0645 24.3539C24.9092 23.7895 25.865 23.7197 26.7724 24.156C27.2085 24.3657 27.5874 24.6734 27.8489 25.0301C27.9431 25.1586 28.3752 25.9025 28.8091 26.6831L29.598 28.1024L29.6777 27.7922C29.7215 27.6217 29.8124 27.2517 29.8796 26.9701C30.1534 25.8232 30.6106 25.2739 31.5062 25.0157C32.3183 24.7816 33.7165 25.1189 34.7006 25.7864C35.1426 26.0863 35.3954 26.3299 35.821 26.8659C36.8492 28.1609 40.6861 32.622 43.3256 35.5913C45.0205 37.498 45.9973 38.5555 47.023 39.5942C47.8597 40.4414 47.9598 40.5266 48.2589 40.6463C48.64 40.7986 49.3424 40.8909 49.4324 40.8004C49.464 40.7687 49.6511 40.4543 49.8482 40.1018C52.7978 34.8268 53.7082 28.5158 52.3796 22.5525C51.0248 16.4721 47.4338 11.1455 42.246 7.52118C37.796 4.41239 32.314 2.84079 26.8464 3.10645ZM126.88 28.1476V44.5631H128.336H129.792V28.1476V11.7321H128.336H126.88V28.1476ZM68.8931 29.2075V44.5631L74.5315 44.5626C79.1647 44.5621 80.2929 44.5491 80.8607 44.489C84.8136 44.0713 88.2924 42.527 90.8438 40.0574C91.708 39.2208 92.22 38.6091 92.8695 37.6371C94.2185 35.6179 94.8911 33.767 95.2072 31.204C95.3077 30.3892 95.2904 27.844 95.1787 27.0138C94.8492 24.5647 94.1652 22.7237 92.8528 20.7533C91.283 18.3965 89.0564 16.547 86.3583 15.3589C84.6591 14.6106 82.5694 14.0743 80.688 13.9037C80.3337 13.8715 78.0106 13.8521 74.5068 13.852L68.8931 13.8518V29.2075ZM201.104 14.4135C200.561 14.534 199.963 14.9555 199.702 15.401C199.539 15.6788 199.425 16.1154 199.426 16.4625C199.428 17.2744 199.861 17.9359 200.644 18.3224C200.967 18.4821 201.083 18.513 201.413 18.528C201.85 18.5479 202.158 18.482 202.485 18.2988C203.298 17.8438 203.659 17.202 203.608 16.3057C203.588 15.9483 203.556 15.814 203.428 15.5557C203.154 15.0001 202.508 14.5095 201.899 14.3948C201.572 14.3334 201.45 14.3363 201.104 14.4135ZM72.0638 29.1952L72.0763 41.6793L75.6789 41.6739C79.5785 41.6681 80.1626 41.6394 81.5316 41.3858C83.6564 40.9924 85.6013 40.1478 87.2856 38.8872C87.8734 38.4473 88.8932 37.444 89.3329 36.873C90.5789 35.2551 91.3421 33.4911 91.6926 31.4192C92.1472 28.7311 91.7416 25.8546 90.5782 23.5169C89.4275 21.2047 87.6346 19.4513 85.1789 18.2365C84.0381 17.6721 83.113 17.3536 81.8443 17.0883C80.3797 16.7819 79.1494 16.7146 74.9755 16.7125L72.0514 16.711L72.0638 29.1952ZM211.615 21.3941V24.2533H209.468H207.322V25.5596V26.8659H209.467H211.612L211.629 33.829C211.645 40.1664 211.654 40.8293 211.731 41.2071C212.047 42.7573 212.893 43.9494 214.11 44.5613C215.345 45.182 217.464 45.2702 219.354 44.7797C219.819 44.659 220.433 44.4396 220.515 44.3649C220.553 44.3306 220.459 41.7554 220.419 41.7089C220.409 41.698 220.195 41.7791 219.944 41.8891C219.052 42.2788 218.308 42.4434 217.435 42.4434C215.634 42.4434 214.792 41.6658 214.579 39.8061C214.546 39.5246 214.528 37.0787 214.527 33.1142L214.527 26.8659H217.463H220.4V25.5596V24.2533H217.463H214.527V21.3941V18.5349H213.071H211.615V21.3941ZM6.24249 20.9766C5.94392 21.096 5.28879 21.3306 4.78665 21.4978C4.2845 21.6651 3.86789 21.8065 3.86088 21.8121C3.82732 21.8387 3.53645 23.199 3.43093 23.8227C2.54405 29.0644 3.365 34.5128 5.75165 39.2247C9.28106 46.1929 15.8773 51.1198 23.5555 52.523C24.5993 52.7138 24.5658 52.8328 23.8496 51.4768C18.8613 42.0325 11.3033 28.286 8.32612 23.2427C7.85961 22.4525 6.80968 20.7497 6.793 20.7563C6.7888 20.758 6.54106 20.8571 6.24249 20.9766ZM109.139 23.7669C106.582 23.9863 104.215 25.0569 102.499 26.7709C100.913 28.356 99.9187 30.3516 99.5547 32.6828C99.43 33.4819 99.4309 35.3915 99.5565 36.1582C99.9464 38.5392 100.921 40.4829 102.523 42.0737C104.418 43.9549 106.88 44.9756 109.796 45.0891C112.997 45.2137 115.907 44.1343 117.996 42.0474C119.628 40.4175 120.613 38.3825 120.967 35.9117C121.064 35.2376 121.048 33.4295 120.94 32.7321C120.573 30.3615 119.589 28.3669 118.006 26.7833C115.781 24.5584 112.585 23.4712 109.139 23.7669ZM145.313 23.7669C142.756 23.9863 140.389 25.0569 138.674 26.7709C137.087 28.356 136.093 30.3516 135.729 32.6828C135.604 33.4819 135.605 35.3915 135.73 36.1582C136.12 38.5392 137.095 40.4829 138.697 42.0737C140.592 43.9549 143.054 44.9756 145.97 45.0891C149.171 45.2137 152.081 44.1343 154.171 42.0474C155.802 40.4175 156.787 38.3825 157.141 35.9117C157.238 35.2376 157.222 33.4295 157.114 32.7321C156.747 30.3615 155.763 28.3669 154.18 26.7833C151.955 24.5584 148.759 23.4712 145.313 23.7669ZM171.37 23.7398C171.288 23.7514 171.049 23.7843 170.837 23.8129C169.699 23.9667 168.238 24.5469 167.286 25.2229C166.735 25.6136 166.057 26.3041 165.67 26.8675L165.349 27.3342L165.336 25.7937L165.323 24.2533H163.769H162.215L162.217 24.4874C162.218 24.6162 162.255 25.143 162.298 25.6582C162.366 26.461 162.38 27.8783 162.397 35.579L162.418 44.5631H163.869H165.32L165.338 38.6106C165.357 32.1325 165.35 32.286 165.642 31.1355C166.014 29.6721 166.977 28.1866 168.084 27.367C169.052 26.6509 170.193 26.3261 171.518 26.3899C172.861 26.4546 173.829 26.7866 174.534 27.4239C175.385 28.1944 175.915 29.5887 176.082 31.4997C176.112 31.8412 176.131 34.5516 176.132 38.3149L176.132 44.5631H177.588H179.044L179.044 38.8571C179.044 33.1872 179.058 32.5948 179.219 31.6616C179.672 29.0198 181.004 27.2275 182.967 26.617C184.296 26.2036 186.381 26.3347 187.505 26.9024C188.693 27.502 189.382 28.7006 189.737 30.7849C189.813 31.2285 189.823 31.9432 189.838 37.9205L189.856 44.5631H191.309H192.763L192.762 37.8219C192.761 30.6476 192.752 30.3131 192.52 29.1916C191.975 26.5598 190.452 24.81 188.1 24.1153C187.097 23.8193 185.462 23.657 184.466 23.7545C181.998 23.9961 179.801 25.3837 178.657 27.4242L178.412 27.8591L178.143 27.3209C177.81 26.6556 177.567 26.2956 177.136 25.8256C176.124 24.7232 175.004 24.1239 173.467 23.8626C172.884 23.7634 171.693 23.6937 171.37 23.7398ZM232.688 23.7413C230.625 23.9308 228.9 24.5784 227.333 25.7516C225.413 27.1892 224.034 29.3603 223.491 31.7979C223.278 32.7561 223.237 33.1794 223.238 34.4328C223.239 35.7014 223.292 36.1867 223.542 37.218C223.837 38.4323 224.47 39.805 225.224 40.8659C226.596 42.7944 228.632 44.1766 230.958 44.7603C234.263 45.5891 237.921 44.8679 240.407 42.8973C241.083 42.3611 242.467 40.9342 242.456 40.7847C242.454 40.7616 242.139 40.4876 241.756 40.1758C241.372 39.864 240.876 39.4592 240.653 39.2762L240.247 38.9435L240.012 39.2762C239.703 39.7127 238.982 40.453 238.485 40.8426C237.06 41.9596 235.626 42.4428 233.734 42.4432C232.574 42.4435 231.554 42.2154 230.591 41.7404C228.481 40.7001 227.032 38.8123 226.475 36.38C226.423 36.1496 226.365 35.8279 226.347 35.6652C226.328 35.5025 226.303 35.3306 226.29 35.2832C226.267 35.2012 226.693 35.1969 234.738 35.1969H243.211L243.187 33.829C243.168 32.7203 243.143 32.3488 243.057 31.8694C242.532 28.9476 241.099 26.6608 238.924 25.2743C237.708 24.499 236.505 24.0462 235.106 23.8369C234.594 23.7602 233.117 23.7019 232.688 23.7413ZM12.4432 24.3572C15.6861 30.1049 18.1714 34.6029 21.3964 40.5614C22.2263 42.0947 22.2323 42.1041 22.2697 41.917C22.2903 41.8134 22.5509 39.0334 22.8487 35.7392C23.1466 32.445 23.3994 29.6832 23.4106 29.6018C23.4286 29.4718 23.3435 29.5412 22.7082 30.1739C22.064 30.8155 21.9397 30.9162 21.5659 31.099C21.3352 31.2117 20.9243 31.3608 20.6529 31.4301C20.2206 31.5404 20.0828 31.5537 19.5425 31.5365C18.8531 31.5146 18.439 31.4018 17.9272 31.0965C17.0944 30.5996 16.6911 30.0124 15.6383 27.7632C14.8946 26.1744 14.7619 25.9376 14.4716 25.6815C14.2252 25.4642 13.3715 24.8436 12.7116 24.4021L12.3211 24.1407L12.4432 24.3572ZM200.067 34.4082V44.5631H201.523H202.979V34.4082V24.2533H201.523H200.067V34.4082ZM108.917 26.4694C107.764 26.6472 106.935 26.961 105.985 27.5783C104.386 28.6181 103.241 30.3816 102.799 32.4856C102.441 34.1924 102.607 36.2388 103.229 37.7849C104.045 39.8112 105.481 41.2477 107.42 41.9765C109.081 42.6009 111.368 42.6009 113.029 41.9765C115.42 41.0776 117.126 39.0258 117.678 36.3847C118.106 34.3396 117.843 32.1354 116.963 30.401C115.992 28.4868 114.373 27.1686 112.322 26.6234C111.369 26.3702 109.97 26.3069 108.917 26.4694ZM145.091 26.4694C143.938 26.6472 143.109 26.961 142.159 27.5783C140.56 28.6181 139.415 30.3816 138.973 32.4856C138.615 34.1924 138.781 36.2388 139.403 37.7849C140.219 39.8112 141.655 41.2477 143.594 41.9765C145.255 42.6009 147.542 42.6009 149.203 41.9765C151.594 41.0776 153.3 39.0258 153.852 36.3847C154.28 34.3396 154.017 32.1354 153.137 30.401C152.166 28.4868 150.547 27.1686 148.496 26.6234C147.543 26.3702 146.144 26.3069 145.091 26.4694ZM232.417 26.4491C230.102 26.836 228.061 28.3073 227.014 30.3435C226.876 30.6112 226.707 31.0084 226.638 31.2264C226.518 31.6063 226.372 32.4108 226.371 32.6952L226.371 32.8307H233.214H240.056L240.024 32.2761C239.929 30.6455 239.369 29.2806 238.364 28.2275C237.588 27.4145 236.797 26.9484 235.674 26.643C234.728 26.3854 233.304 26.3007 232.417 26.4491ZM32.559 28.6251C32.3676 29.3714 32.0562 29.9862 31.6708 30.3788C31.5009 30.5519 31.3078 30.7269 31.2416 30.7678L31.1211 30.8423L36.1952 39.958C38.986 44.9716 41.2778 49.0831 41.2882 49.0947C41.3154 49.125 42.3704 48.4082 43.0334 47.909C44.1713 47.0522 45.2049 46.1256 46.2039 45.067C46.7711 44.4659 47.4754 43.6459 47.4743 43.5878C47.4739 43.5684 47.2608 43.466 47.0006 43.3602C46.7405 43.2544 46.3911 43.0683 46.2241 42.9467C45.6326 42.5161 44.0485 40.8869 41.9244 38.5244C39.3294 35.6383 34.7035 30.2766 33.4883 28.7466C33.251 28.4477 32.8377 28.0983 32.7216 28.0983C32.7064 28.0983 32.6332 28.3354 32.559 28.6251ZM26.5014 28.7638C26.5 28.7909 26.1243 32.8924 25.6666 37.8782L24.8343 46.9433L25.8223 48.7972C26.3657 49.8169 27.0757 51.1669 27.4001 51.7973L27.9898 52.9433L28.6395 52.9165C30.7991 52.8273 32.2384 52.6318 34.093 52.1759C35.8485 51.7444 38.6946 50.6886 38.6207 50.4964C38.6024 50.4487 26.8124 29.2521 26.5464 28.7885C26.523 28.7478 26.5028 28.7367 26.5014 28.7638Z" fill="#FFFCFC"/>
</g>
<defs>
<clipPath id="clip0_4138_314">
<rect width="243.2" height="56" fill="white"/>
</clipPath>
</defs>
</svg>
