<svg width="50" height="50" viewBox="0 0 50 50" fill="none" xmlns="http://www.w3.org/2000/svg">
<g clip-path="url(#clip0_4138_952)">
<path d="M33.709 46.4287H30.4082V50.0002H33.709V46.4287Z" fill="#00FF57"/>
<path d="M30.4082 46.4285H27.1074V50H30.4082V46.4285Z" fill="#00FF57"/>
<path d="M27.1074 46.4285H23.8066V50H27.1074V46.4285Z" fill="#00FF57"/>
<path d="M23.8047 46.4287H20.5039V50.0002H23.8047V46.4287Z" fill="#00FF57"/>
<path d="M20.5039 46.4287H17.2031V50.0002H20.5039V46.4287Z" fill="#00FF57"/>
<path d="M40.3125 42.8569H37.0117V46.4285H40.3125V42.8569Z" fill="#00FF57"/>
<path d="M37.0098 42.8569H33.709V46.4285H37.0098V42.8569Z" fill="#00FF57"/>
<path d="M33.709 42.8569H30.4082V46.4285H33.709V42.8569Z" fill="#00FF57"/>
<path d="M20.5039 42.8569H17.2031V46.4285H20.5039V42.8569Z" fill="#00FF57"/>
<path d="M17.2031 42.8569H13.9023V46.4285H17.2031V42.8569Z" fill="#00FF57"/>
<path d="M13.9024 42.8569H10.6016V46.4285H13.9024V42.8569Z" fill="#00FF57"/>
<path d="M43.6133 39.2852H40.3125V42.8567H43.6133V39.2852Z" fill="#00FF57"/>
<path d="M40.3125 39.2852H37.0117V42.8567H40.3125V39.2852Z" fill="#00FF57"/>
<path d="M13.9024 39.2852H10.6016V42.8567H13.9024V39.2852Z" fill="#00FF57"/>
<path d="M10.6016 39.2854H7.30078V42.8569H10.6016V39.2854Z" fill="#00FF57"/>
<path d="M43.6133 35.7148H40.3125V39.2864H43.6133V35.7148Z" fill="#00FF57"/>
<path d="M10.6016 35.7146H7.30078V39.2861H10.6016V35.7146Z" fill="#00FF57"/>
<path d="M46.9141 32.1431H43.6133V35.7146H46.9141V32.1431Z" fill="#00FF57"/>
<path d="M43.6133 32.1431H40.3125V35.7146H43.6133V32.1431Z" fill="#00FF57"/>
<path d="M10.6016 32.1431H7.30078V35.7146H10.6016V32.1431Z" fill="#00FF57"/>
<path d="M7.3008 32.1431H4V35.7146H7.3008V32.1431Z" fill="#00FF57"/>
<path d="M46.9141 28.5713H43.6133V32.1428H46.9141V28.5713Z" fill="#00FF57"/>
<path d="M27.1074 28.5715H23.8066V32.1431H27.1074V28.5715Z" fill="#00FF57"/>
<path d="M30.3906 31.8545H27.0898V35.426H30.3906V31.8545Z" fill="#00FF57"/>
<path d="M33.6719 35.1367H30.3711V38.7082H33.6719V35.1367Z" fill="#00FF57"/>
<path d="M7.3008 28.5715H4V32.1431H7.3008V28.5715Z" fill="#00FF57"/>
<path d="M46.9141 25H43.6133V28.5715H46.9141V25Z" fill="#00FF57"/>
<path d="M27.1074 25H23.8066V28.5715H27.1074V25Z" fill="#00FF57"/>
<path d="M10.6016 25H7.30078V28.5715H10.6016V25Z" fill="#00FF57"/>
<path d="M7.3008 25H4V28.5715H7.3008V25Z" fill="#00FF57"/>
<path d="M46.9141 21.4287H43.6133V25.0002H46.9141V21.4287Z" fill="#00FF57"/>
<path d="M43.6133 21.4287H40.3125V25.0002H43.6133V21.4287Z" fill="#00FF57"/>
<path d="M27.1074 21.4285H23.8066V25H27.1074V21.4285Z" fill="#00FF57"/>
<path d="M10.6016 21.4285H7.30078V25H10.6016V21.4285Z" fill="#00FF57"/>
<path d="M7.3008 21.4285H4V25H7.3008V21.4285Z" fill="#00FF57"/>
<path d="M43.6133 17.8569H40.3125V21.4285H43.6133V17.8569Z" fill="#00FF57"/>
<path d="M27.1074 17.8569H23.8066V21.4285H27.1074V17.8569Z" fill="#00FF57"/>
<path d="M10.6016 17.8569H7.30078V21.4285H10.6016V17.8569Z" fill="#00FF57"/>
<path d="M43.6133 14.2852H40.3125V17.8567H43.6133V14.2852Z" fill="#00FF57"/>
<path d="M40.3125 14.2852H37.0117V17.8567H40.3125V14.2852Z" fill="#00FF57"/>
<path d="M13.9024 14.2852H10.6016V17.8567H13.9024V14.2852Z" fill="#00FF57"/>
<path d="M10.6016 14.2854H7.30078V17.8569H10.6016V14.2854Z" fill="#00FF57"/>
<path d="M40.3125 10.7148H37.0117V14.2864H40.3125V10.7148Z" fill="#00FF57"/>
<path d="M37.0098 10.7144H33.709V14.2859H37.0098V10.7144Z" fill="#00FF57"/>
<path d="M33.709 10.7144H30.4082V14.2859H33.709V10.7144Z" fill="#00FF57"/>
<path d="M20.5039 10.7148H17.2031V14.2864H20.5039V10.7148Z" fill="#00FF57"/>
<path d="M17.2031 10.7148H13.9023V14.2864H17.2031V10.7148Z" fill="#00FF57"/>
<path d="M13.9024 10.7148H10.6016V14.2864H13.9024V10.7148Z" fill="#00FF57"/>
<path d="M43.6133 7.14307H40.3125V10.7146H43.6133V7.14307Z" fill="#00FF57"/>
<path d="M33.709 7.14307H30.4082V10.7146H33.709V7.14307Z" fill="#00FF57"/>
<path d="M30.4082 7.14307H27.1074V10.7146H30.4082V7.14307Z" fill="#00FF57"/>
<path d="M27.1074 7.14307H23.8066V10.7146H27.1074V7.14307Z" fill="#00FF57"/>
<path d="M23.8047 7.14307H20.5039V10.7146H23.8047V7.14307Z" fill="#00FF57"/>
<path d="M20.5039 7.14307H17.2031V10.7146H20.5039V7.14307Z" fill="#00FF57"/>
<path d="M33.709 0H30.4082V3.57152H33.709V0Z" fill="#00FF57"/>
<path d="M30.4082 0H27.1074V3.57152H30.4082V0Z" fill="#00FF57"/>
<path d="M27.1074 0H23.8066V3.57152H27.1074V0Z" fill="#00FF57"/>
<path d="M23.8047 0H20.5039V3.57152H23.8047V0Z" fill="#00FF57"/>
<path d="M20.5039 0H17.2031V3.57152H20.5039V0Z" fill="#00FF57"/>
</g>
<defs>
<clipPath id="clip0_4138_952">
<rect width="42.9144" height="50" fill="white" transform="translate(4)"/>
</clipPath>
</defs>
</svg>
