<svg width="50" height="50" viewBox="0 0 50 50" fill="none" xmlns="http://www.w3.org/2000/svg">
<g clip-path="url(#clip0_4138_845)">
<path d="M7.69207 15.3827H3.8457V19.2291H7.69207V15.3827Z" fill="#00FF57"/>
<path d="M7.69207 30.7682H3.8457V34.6146H7.69207V30.7682Z" fill="#00FF57"/>
<path d="M11.5397 7.6922H7.69336V11.5386H11.5397V7.6922Z" fill="#00FF57"/>
<path d="M11.5397 38.4603H7.69336V42.3061H11.5397V38.4603Z" fill="#00FF57"/>
<path d="M19.2331 3.84521H15.3867V7.69158H19.2331V3.84521Z" fill="#00FF57"/>
<path d="M19.2331 42.3062H15.3867V46.152H19.2331V42.3062Z" fill="#00FF57"/>
<path d="M23.0802 3.84521H19.2344V7.69158H23.0802V3.84521Z" fill="#00FF57"/>
<path d="M26.9239 3.84521H23.0781V7.69158H26.9239V3.84521Z" fill="#00FF57"/>
<path d="M26.9239 0H23.0781V3.84636H26.9239V0Z" fill="#00FF57"/>
<path d="M30.7716 3.84521H26.9258V7.69158H30.7716V3.84521Z" fill="#00FF57"/>
<path d="M34.6159 3.84521H30.7695V7.69158H34.6159V3.84521Z" fill="#00FF57"/>
<path d="M34.6159 42.3066H30.7695V46.1525H34.6159V42.3066Z" fill="#00FF57"/>
<path d="M15.3835 7.69287H11.5371V11.5392H15.3835V7.69287Z" fill="#00FF57"/>
<path d="M19.2331 7.69238H15.3867V11.5387H19.2331V7.69238Z" fill="#00FF57"/>
<path d="M34.6159 7.69238H30.7695V11.5387H34.6159V7.69238Z" fill="#00FF57"/>
<path d="M38.4636 7.69238H34.6172V11.5387H38.4636V7.69238Z" fill="#00FF57"/>
<path d="M42.3112 7.69238H38.4648V11.5387H42.3112V7.69238Z" fill="#00FF57"/>
<path d="M11.5397 11.538H7.69336V15.3844H11.5397V11.538Z" fill="#00FF57"/>
<path d="M42.3112 11.5381H38.4648V15.3845H42.3112V11.5381Z" fill="#00FF57"/>
<path d="M11.5397 15.3838H7.69336V19.2302H11.5397V15.3838Z" fill="#00FF57"/>
<path d="M23.0802 15.3843H19.2344V19.2306H23.0802V15.3843Z" fill="#00FF57"/>
<path d="M26.9239 15.3843H23.0781V19.2306H26.9239V15.3843Z" fill="#00FF57"/>
<path d="M30.7716 15.3843H26.9258V19.2306H30.7716V15.3843Z" fill="#00FF57"/>
<path d="M42.3112 15.3843H38.4648V19.2306H42.3112V15.3843Z" fill="#00FF57"/>
<path d="M19.2331 19.2305H15.3867V23.0768H19.2331V19.2305Z" fill="#00FF57"/>
<path d="M23.0802 19.23H19.2344V23.0763H23.0802V19.23Z" fill="#00FF57"/>
<path d="M26.9239 19.2305H23.0781V23.0768H26.9239V19.2305Z" fill="#00FF57"/>
<path d="M30.7716 19.2305H26.9258V23.0768H30.7716V19.2305Z" fill="#00FF57"/>
<path d="M34.6159 19.2305H30.7695V23.0768H34.6159V19.2305Z" fill="#00FF57"/>
<path d="M19.2331 23.0767H15.3867V26.923H19.2331V23.0767Z" fill="#00FF57"/>
<path d="M23.0802 23.0767H19.2344V26.923H23.0802V23.0767Z" fill="#00FF57"/>
<path d="M26.9239 23.0767H23.0781V26.923H26.9239V23.0767Z" fill="#00FF57"/>
<path d="M30.7716 23.0767H26.9258V26.923H30.7716V23.0767Z" fill="#00FF57"/>
<path d="M34.6159 23.0767H30.7695V26.923H34.6159V23.0767Z" fill="#00FF57"/>
<path d="M7.69207 19.2302H3.8457V23.0765H7.69207V19.2302Z" fill="#00FF57"/>
<path d="M7.69207 23.076H3.8457V26.9224H7.69207V23.076Z" fill="#00FF57"/>
<path d="M3.84636 23.076H0V26.9224H3.84636V23.076Z" fill="#00FF57"/>
<path d="M7.69207 26.9218H3.8457V30.7682H7.69207V26.9218Z" fill="#00FF57"/>
<path d="M19.2331 26.9224H15.3867V30.7687H19.2331V26.9224Z" fill="#00FF57"/>
<path d="M23.0802 26.9224H19.2344V30.7687H23.0802V26.9224Z" fill="#00FF57"/>
<path d="M26.9239 26.9224H23.0781V30.7687H26.9239V26.9224Z" fill="#00FF57"/>
<path d="M30.7716 26.9224H26.9258V30.7687H30.7716V26.9224Z" fill="#00FF57"/>
<path d="M34.6159 26.9224H30.7695V30.7687H34.6159V26.9224Z" fill="#00FF57"/>
<path d="M46.155 19.2305H42.3086V23.0768H46.155V19.2305Z" fill="#00FF57"/>
<path d="M46.155 23.0762H42.3086V26.9225H46.155V23.0762Z" fill="#00FF57"/>
<path d="M50.0007 23.0762H46.1543V26.9225H50.0007V23.0762Z" fill="#00FF57"/>
<path d="M46.155 26.9219H42.3086V30.7682H46.155V26.9219Z" fill="#00FF57"/>
<path d="M11.5397 30.7676H7.69336V34.614H11.5397V30.7676Z" fill="#00FF57"/>
<path d="M23.0802 30.7681H19.2344V34.6144H23.0802V30.7681Z" fill="#00FF57"/>
<path d="M26.9239 30.7681H23.0781V34.6144H26.9239V30.7681Z" fill="#00FF57"/>
<path d="M30.7716 30.7681H26.9258V34.6144H30.7716V30.7681Z" fill="#00FF57"/>
<path d="M42.3112 30.7676H38.4648V34.6139H42.3112V30.7676Z" fill="#00FF57"/>
<path d="M11.5397 34.6135H7.69336V38.4598H11.5397V34.6135Z" fill="#00FF57"/>
<path d="M15.3835 38.4604H11.5371V42.3068H15.3835V38.4604Z" fill="#00FF57"/>
<path d="M19.2331 38.4604H15.3867V42.3068H19.2331V38.4604Z" fill="#00FF57"/>
<path d="M23.0802 42.3066H19.2344V46.153H23.0802V42.3066Z" fill="#00FF57"/>
<path d="M26.9239 42.3066H23.0781V46.153H26.9239V42.3066Z" fill="#00FF57"/>
<path d="M26.9239 46.1533H23.0781V49.9997H26.9239V46.1533Z" fill="#00FF57"/>
<path d="M30.7716 42.3066H26.9258V46.153H30.7716V42.3066Z" fill="#00FF57"/>
<path d="M34.6159 38.4604H30.7695V42.3068H34.6159V38.4604Z" fill="#00FF57"/>
<path d="M38.4636 38.4604H34.6172V42.3068H38.4636V38.4604Z" fill="#00FF57"/>
<path d="M42.3112 34.6133H38.4648V38.4596H42.3112V34.6133Z" fill="#00FF57"/>
<path d="M42.3112 38.4604H38.4648V42.3063H42.3112V38.4604Z" fill="#00FF57"/>
<path d="M46.1544 15.3828H42.3086V19.2292H46.1544V15.3828Z" fill="#00FF57"/>
<path d="M46.1544 30.7686H42.3086V34.6144H46.1544V30.7686Z" fill="#00FF57"/>
</g>
<defs>
<clipPath id="clip0_4138_845">
<rect width="50" height="50" fill="white"/>
</clipPath>
</defs>
</svg>
