<svg width="50" height="50" viewBox="0 0 50 50" fill="none" xmlns="http://www.w3.org/2000/svg">
<g clip-path="url(#clip0_4138_752)">
<path d="M14.3198 14.4145H10.6602V10.7543H14.3198V14.4145Z" fill="#00FF57"/>
<path d="M17.98 14.4145H14.3203V10.7543H17.98V14.4145Z" fill="#00FF57"/>
<path d="M21.6402 10.7547H17.9805V7.09448H21.6402V10.7547Z" fill="#00FF57"/>
<path d="M14.3198 17.962H10.6602V14.3018H14.3198V17.962Z" fill="#00FF57"/>
<path d="M14.3198 21.509H10.6602V17.8488H14.3198V21.509Z" fill="#00FF57"/>
<path d="M14.3198 25.0566H10.6602V21.3964H14.3198V25.0566Z" fill="#00FF57"/>
<path d="M14.3198 28.6036H10.6602V24.9434H14.3198V28.6036Z" fill="#00FF57"/>
<path d="M14.3198 32.1512H10.6602V28.491H14.3198V32.1512Z" fill="#00FF57"/>
<path d="M14.3198 35.6982H10.6602V32.038H14.3198V35.6982Z" fill="#00FF57"/>
<path d="M14.3198 39.2457H10.6602V35.5855H14.3198V39.2457Z" fill="#00FF57"/>
<path d="M14.3198 42.7928H10.6602V39.1326H14.3198V42.7928Z" fill="#00FF57"/>
<path d="M17.98 46.3403H14.3203V42.6801H17.98V46.3403Z" fill="#00FF57"/>
<path d="M21.6402 7.31987H17.9805V3.65967H21.6402V7.31987Z" fill="#00FF57"/>
<path d="M21.6402 46.3404H17.9805V42.6802H21.6402V46.3404Z" fill="#00FF57"/>
<path d="M25.3003 7.31987H21.6406V3.65967H25.3003V7.31987Z" fill="#00FF57"/>
<path d="M25.3003 46.3404H21.6406V42.6802H25.3003V46.3404Z" fill="#00FF57"/>
<path d="M28.9605 7.31987H25.3008V3.65967H28.9605V7.31987Z" fill="#00FF57"/>
<path d="M28.9605 46.3404H25.3008V42.6802H28.9605V46.3404Z" fill="#00FF57"/>
<path d="M32.6206 7.31987H28.9609V3.65967H32.6206V7.31987Z" fill="#00FF57"/>
<path d="M32.6206 46.3404H28.9609V42.6802H32.6206V46.3404Z" fill="#00FF57"/>
<path d="M36.2808 7.31987H32.6211V3.65967H36.2808V7.31987Z" fill="#00FF57"/>
<path d="M36.2808 46.3404H32.6211V42.6802H36.2808V46.3404Z" fill="#00FF57"/>
<path d="M39.939 10.8674H36.2793V7.20724H39.939V10.8674Z" fill="#00FF57"/>
<path d="M36.2793 3.6602V0H39.9395V3.65968H36.2793V3.6602Z" fill="#00FF57"/>
<path d="M39.9395 7.3199V3.66022H43.5997V7.3199H39.9395Z" fill="#00FF57"/>
<path d="M10.6602 7.31987H7V3.65967H10.6597V7.31987H10.6602Z" fill="#00FF57"/>
<path d="M14.3198 3.6602H10.6602V0H14.3198V3.6602Z" fill="#00FF57"/>
<path d="M39.939 50H36.2793V46.3398H39.939V50Z" fill="#00FF57"/>
<path d="M43.5991 46.3404H39.9395V42.6802H43.5991V46.3404Z" fill="#00FF57"/>
<path d="M14.3204 46.3403V50H10.6602V46.3403H14.3204Z" fill="#00FF57"/>
<path d="M10.6602 42.6801V46.3398H7V42.6801H10.6602Z" fill="#00FF57"/>
<path d="M39.939 14.4145H36.2793V10.7543H39.939V14.4145Z" fill="#00FF57"/>
<path d="M39.939 17.962H36.2793V14.3018H39.939V17.962Z" fill="#00FF57"/>
<path d="M39.939 21.509H36.2793V17.8488H39.939V21.509Z" fill="#00FF57"/>
<path d="M39.939 25.0566H36.2793V21.3964H39.939V25.0566Z" fill="#00FF57"/>
<path d="M39.939 28.6036H36.2793V24.9434H39.939V28.6036Z" fill="#00FF57"/>
<path d="M39.939 32.1512H36.2793V28.491H39.939V32.1512Z" fill="#00FF57"/>
<path d="M39.939 35.6982H36.2793V32.038H39.939V35.6982Z" fill="#00FF57"/>
<path d="M39.939 39.2457H36.2793V35.5855H39.939V39.2457Z" fill="#00FF57"/>
<path d="M39.939 42.7928H36.2793V39.1326H39.939V42.7928Z" fill="#00FF57"/>
<path d="M27.1629 12.8743H23.4375V16.5997H27.1629V12.8743Z" fill="#00FF57"/>
<path d="M27.1629 20.3257H23.4375V24.0511H27.1629V20.3257Z" fill="#00FF57"/>
<path d="M27.1629 24.0505H23.4375V27.7759H27.1629V24.0505Z" fill="#00FF57"/>
<path d="M27.1629 27.7776H23.4375V31.503H27.1629V27.7776Z" fill="#00FF57"/>
<path d="M27.1629 31.502H23.4375V35.2273H27.1629V31.502Z" fill="#00FF57"/>
<path d="M27.1629 35.2288H23.4375V38.9542H27.1629V35.2288Z" fill="#00FF57"/>
</g>
<defs>
<clipPath id="clip0_4138_752">
<rect width="36.5994" height="50" fill="white" transform="translate(7)"/>
</clipPath>
</defs>
</svg>
