<svg width="54" height="60" viewBox="0 0 54 60" fill="none" xmlns="http://www.w3.org/2000/svg">
<g clip-path="url(#clip0_4138_288)">
<path d="M38.8788 53.4807L33.1251 56.7956L33.1172 56.7798L38.8709 53.457L38.8788 53.4807Z" fill="#00FF57" stroke="#3D3D3D" stroke-width="0.5" stroke-miterlimit="10"/>
<path d="M46.9219 48.8554L41.1681 52.1703L41.1523 52.1387L46.9061 48.8159L46.9219 48.8554Z" fill="#00FF57" stroke="#3D3D3D" stroke-width="0.5" stroke-miterlimit="10"/>
<path d="M53.0781 17.3559V42.644C53.0781 44.2699 52.2178 45.7537 50.8129 46.5588L46.906 48.816L41.1523 52.1389L38.8713 53.4569L33.1175 56.7797L28.9029 59.2107C28.1925 59.6132 27.4269 59.8026 26.6377 59.8026C25.8484 59.8026 25.0591 59.6132 24.3725 59.2107L14.4435 53.4806L17.2928 50.876L26.2352 56.0378C26.3535 56.1089 26.4956 56.1562 26.6377 56.1562C26.7797 56.1562 26.9218 56.1089 27.0402 56.0378L31.8389 53.2675L28.1689 43.1728C28.0899 42.936 28.0899 42.6992 28.1689 42.4782L31.0497 34.554C31.2233 34.1278 31.8153 34.1278 31.981 34.554L37.5927 49.9447L39.8737 48.6266L33.0307 29.8579C32.9597 29.6211 32.9597 29.3764 33.0307 29.1633L35.9194 21.2391C36.0852 20.8129 36.685 20.8129 36.8508 21.2391V21.2628L45.6274 45.3038L48.9502 43.3859C49.187 43.2438 49.3527 42.9597 49.3527 42.6677V17.3796C49.3527 17.0876 49.2107 16.8034 48.9502 16.6614L27.0402 4.00942C26.9218 3.93839 26.7797 3.89103 26.6377 3.89103V3.86735C26.4956 3.86735 26.3535 3.91471 26.2352 3.98574L4.32513 16.6377C4.08835 16.7797 3.9226 17.0639 3.9226 17.3559V42.6677C3.9226 42.9597 4.06467 43.2438 4.32513 43.3859L13.4333 48.6424L12.1468 52.1546L2.46246 46.5588C1.05757 45.7537 0.197266 44.2699 0.197266 42.644V17.3559C0.197266 15.73 1.05757 14.2541 2.46246 13.4411L24.3725 0.789215C25.0828 0.386689 25.8405 0.197266 26.6298 0.197266C27.4191 0.197266 28.2004 0.386689 28.8792 0.789215L50.8129 13.4411C52.2178 14.2541 53.0781 15.73 53.0781 17.3559Z" fill="#00FF57" stroke="#3D3D3D" stroke-width="0.5" stroke-miterlimit="10"/>
<path d="M18.2159 50.0235L17.2925 50.8759L14.4432 53.4805L12.1465 52.1545L13.433 48.6423L14.1591 46.6533L18.2159 50.0235Z" fill="#00FF57" stroke="#3D3D3D" stroke-width="0.5" stroke-miterlimit="10"/>
<path d="M14.4434 53.4808L14.4197 53.5044L12.1309 52.1942L12.1466 52.1548L14.4434 53.4808Z" fill="#00FF57" stroke="#3D3D3D" stroke-width="0.5" stroke-miterlimit="10"/>
<path d="M24.7747 15.5643H19.2183C18.8158 15.5643 18.429 15.8247 18.287 16.2115L6.37695 48.8555L12.1307 52.1704L25.2562 16.2036C25.3746 15.8721 25.1378 15.5327 24.8063 15.5327L24.7826 15.5564L24.7747 15.5643Z" fill="#00FF57" stroke="#3D3D3D" stroke-width="0.5" stroke-miterlimit="10"/>
<path d="M34.5146 15.5642H28.9581C28.5556 15.5642 28.1689 15.8247 28.0268 16.2114L14.4277 53.4884L20.1815 56.8034L34.9802 16.2114C35.0986 15.8799 34.8618 15.5405 34.5303 15.5405V15.5642H34.5146Z" fill="#00FF57" stroke="#3D3D3D" stroke-width="0.5" stroke-miterlimit="10"/>
</g>
<defs>
<clipPath id="clip0_4138_288">
<rect width="53.2755" height="60" fill="white"/>
</clipPath>
</defs>
</svg>
