<svg width="50" height="50" viewBox="0 0 50 50" fill="none" xmlns="http://www.w3.org/2000/svg">
<g clip-path="url(#clip0_4138_914)">
<path d="M12.2873 8.44328H8V4.15533H12.2873V8.44328Z" fill="#00FF57"/>
<path d="M12.2873 12.5993H8V8.31134H12.2873V12.5993Z" fill="#00FF57"/>
<path d="M12.2873 16.7546H8V12.4667H12.2873V16.7546Z" fill="#00FF57"/>
<path d="M12.2873 20.9106H8V16.6227H12.2873V20.9106Z" fill="#00FF57"/>
<path d="M12.2873 25.066H8V20.778H12.2873V25.066Z" fill="#00FF57"/>
<path d="M12.2873 29.222H8V24.934H12.2873V29.222Z" fill="#00FF57"/>
<path d="M12.2873 33.3773H8V29.0894H12.2873V33.3773Z" fill="#00FF57"/>
<path d="M12.2873 37.5333H8V33.2454H12.2873V37.5333Z" fill="#00FF57"/>
<path d="M12.2873 41.6886H8V37.4007H12.2873V41.6886Z" fill="#00FF57"/>
<path d="M12.2873 45.8446H8V41.5567H12.2873V45.8446Z" fill="#00FF57"/>
<path d="M16.5744 4.28795H12.2871V0H16.5744V4.28795Z" fill="#00FF57"/>
<path d="M16.5744 49.9999H12.2871V45.7119H16.5744V49.9999Z" fill="#00FF57"/>
<path d="M20.8635 4.28795H16.5762V0H20.8635V4.28795Z" fill="#00FF57"/>
<path d="M20.8635 49.9999H16.5762V45.7119H20.8635V49.9999Z" fill="#00FF57"/>
<path d="M25.1506 4.28795H20.8633V0H25.1506V4.28795Z" fill="#00FF57"/>
<path d="M25.1506 41.6886H20.8633V37.4007H25.1506V41.6886Z" fill="#00FF57"/>
<path d="M25.1506 50H20.8633V45.712H25.1506V50Z" fill="#00FF57"/>
<path d="M29.4377 4.28795H25.1504V0H29.4377V4.28795Z" fill="#00FF57"/>
<path d="M29.4377 41.6886H25.1504V37.4007H29.4377V41.6886Z" fill="#00FF57"/>
<path d="M29.4377 50H25.1504V45.712H29.4377V50Z" fill="#00FF57"/>
<path d="M33.7268 4.28795H29.4395V0H33.7268V4.28795Z" fill="#00FF57"/>
<path d="M33.7268 49.9999H29.4395V45.7119H33.7268V49.9999Z" fill="#00FF57"/>
<path d="M38.0139 4.28795H33.7266V0H38.0139V4.28795Z" fill="#00FF57"/>
<path d="M38.0139 49.9999H33.7266V45.7119H38.0139V49.9999Z" fill="#00FF57"/>
<path d="M42.301 8.44328H38.0137V4.15533H42.301V8.44328Z" fill="#00FF57"/>
<path d="M42.301 12.5993H38.0137V8.31134H42.301V12.5993Z" fill="#00FF57"/>
<path d="M42.301 16.7546H38.0137V12.4667H42.301V16.7546Z" fill="#00FF57"/>
<path d="M42.301 20.9106H38.0137V16.6227H42.301V20.9106Z" fill="#00FF57"/>
<path d="M42.301 25.066H38.0137V20.778H42.301V25.066Z" fill="#00FF57"/>
<path d="M42.301 29.222H38.0137V24.934H42.301V29.222Z" fill="#00FF57"/>
<path d="M42.301 33.3773H38.0137V29.0894H42.301V33.3773Z" fill="#00FF57"/>
<path d="M42.301 37.5333H38.0137V33.2454H42.301V37.5333Z" fill="#00FF57"/>
<path d="M42.301 41.6886H38.0137V37.4007H42.301V41.6886Z" fill="#00FF57"/>
<path d="M42.301 45.8446H38.0137V41.5567H42.301V45.8446Z" fill="#00FF57"/>
</g>
<defs>
<clipPath id="clip0_4138_914">
<rect width="34.3011" height="50" fill="white" transform="translate(8)"/>
</clipPath>
</defs>
</svg>
