<svg width="45" height="44" viewBox="0 0 45 44" fill="none" xmlns="http://www.w3.org/2000/svg">
<path d="M13.0127 9.16655C13.0122 10.139 12.6166 11.0714 11.913 11.7587C11.2094 12.446 10.2554 12.8319 9.26082 12.8314C8.26626 12.8309 7.31263 12.4441 6.60972 11.7561C5.90681 11.0682 5.5122 10.1353 5.5127 9.16288C5.51319 8.19042 5.90876 7.25798 6.61237 6.57069C7.31598 5.8834 8.27001 5.49756 9.26457 5.49805C10.2591 5.49853 11.2128 5.88531 11.9157 6.57329C12.6186 7.26126 13.0132 8.19409 13.0127 9.16655ZM13.1252 15.5465H5.6252V38.4999H13.1252V15.5465ZM24.9752 15.5465H17.5127V38.4999H24.9002V26.4549C24.9002 19.7449 33.8439 19.1215 33.8439 26.4549V38.4999H41.2502V23.9615C41.2502 12.6499 28.0127 13.0715 24.9002 18.6265L24.9752 15.5465Z" fill="white"/>
</svg>
