<svg width="226" height="54" viewBox="0 0 226 54" fill="none" xmlns="http://www.w3.org/2000/svg">
<g clip-path="url(#clip0_89_338)">
<path d="M46.5485 8.8118C45.6698 6.87047 44.3052 5.18861 42.5866 3.92881C39.0496 1.30078 33.919 -0.0132141 27.1948 -0.0132141H0.00990946V7.40534L5.62253 8.56088V8.8118H46.5485ZM34.1214 19.5715C33.6374 20.5044 32.8536 21.2475 31.8962 21.6812C30.8551 22.1786 29.4949 22.4273 27.8155 22.4273H18.6174V19.5715H5.59944V24.2729H44.3562C45.4717 23.2815 46.3477 22.0499 46.9182 20.6709C47.0668 20.3111 47.1955 19.9446 47.3078 19.5715H34.1214ZM46.9182 33.2993C46.3477 31.9203 45.4717 30.6888 44.3562 29.6973H5.59944V34.3987H18.6174V31.5462H27.8155C29.4971 31.5462 30.8573 31.7938 31.8962 32.2891C32.8529 32.7238 33.6363 33.4666 34.1214 34.3987H47.3078C47.1955 34.0389 47.0668 33.6724 46.9182 33.3125V33.2993ZM34.9336 38.4827C34.9006 40.4241 34.2524 41.8756 32.989 42.8375C32.912 42.8969 32.8327 42.953 32.7513 43.0058H47.3144C47.6966 41.5288 47.8864 40.0085 47.879 38.4827H34.9336ZM5.59944 45.1585V45.4094L-0.0131836 46.5649V53.9868H27.1717C33.8958 53.9868 39.0264 52.6717 42.5635 50.0414C44.2819 48.7814 45.6464 47.0996 46.5253 45.1585H5.59944ZM5.59944 38.4827V43.0058H18.6174V38.4827H5.59944ZM47.3144 10.9677H32.7579C32.8371 11.0205 32.9131 11.0767 32.989 11.1328C34.2502 12.0968 34.8984 13.5484 34.9336 15.4875H47.879C47.8853 13.9673 47.6955 12.4526 47.3144 10.9809V10.9677ZM5.59944 10.9677V15.4875H18.6174V10.9677H5.59944Z" fill="white"/>
<path d="M93.2983 8.54766C91.5814 5.86241 89.1394 3.77143 85.9721 2.27473C82.8048 0.778033 79.0719 0.0241887 74.7733 0.0131836H48.5128V7.65295L54.1255 8.8382H93.4765C93.4171 8.73695 93.3577 8.6401 93.2983 8.54766ZM82.7333 19.5847C82.5147 21.0807 81.8389 22.4726 80.7986 23.5697C80.5509 23.8333 80.279 24.0732 79.9865 24.2861H94.7839C95.3455 22.775 95.6911 21.1923 95.8107 19.5847H82.7333ZM94.566 10.9809H79.2766C79.8466 11.3032 80.3606 11.7157 80.7986 12.2025C81.6516 13.1393 82.2576 14.2741 82.5616 15.504H95.7348C95.5638 13.9492 95.1737 12.4264 94.5759 10.9809H94.566ZM54.1155 38.496V43.0191H67.1335V38.496H54.1155ZM67.1335 45.208V45.1717H54.1155V45.208L48.5029 46.3965V53.9901H72.7231V46.3965L67.1335 45.208ZM54.1155 29.7106V34.412H83.6479C84.4366 34.1531 85.2084 33.8455 85.9589 33.4908C87.9711 32.5726 89.7966 31.2911 91.3437 29.7106H54.1155ZM54.1155 19.5847V24.2861H67.1335V19.5847H54.1155ZM54.1155 10.9809V15.5007H67.1335V10.9809H54.1155Z" fill="white"/>
<path d="M147.12 3.05176e-05L143.974 8.82504H166.705L172.317 7.63976V3.05176e-05H147.12ZM153.944 38.496V43.0191H166.705V38.496H153.944ZM166.705 45.208V45.1717H153.944V45.208L148.124 46.3966V53.9901H172.304V46.3966L166.705 45.208ZM154.043 29.7106L153.987 34.412H166.705V29.7106H154.043ZM140.137 19.5848L138.463 24.2861H149.741L151.481 19.5848H140.137ZM143.208 10.9809L141.596 15.5007H152.993L154.023 12.7208L154.245 12.7571L154.212 15.5007H166.708V10.9809H143.208ZM154.165 19.5848L154.109 24.2861H166.708V19.5848H154.165ZM132.068 29.7106H119.271L121.058 34.412H133.792L132.068 29.7106ZM122.613 38.496L124.333 43.0191H142.821L144.495 38.496H122.613ZM125.151 45.1717L128.506 54H138.741L142.009 45.1717H125.151ZM136.529 29.7106L134.851 34.412H145.994L147.734 29.7106H136.529ZM113.632 45.208V45.1717H101.245V45.208L95.6819 46.3966V53.9901H119.902V46.3966L113.632 45.208ZM101.245 38.496V43.0191H113.632V38.496H101.245ZM113.375 29.7106H101.245V34.412H113.556L113.375 29.7106ZM112.989 19.5848H101.245V24.2861H113.167L112.989 19.5848ZM125.204 10.9809H101.255V15.5007H112.84L112.754 13.2392L113.012 13.2029L113.883 15.514H126.862L125.204 10.9809ZM128.361 19.5848H115.438L117.224 24.2861H130.1L128.361 19.5848ZM121.173 3.05176e-05H95.6918V7.63976L101.255 8.82504H124.412L121.173 3.05176e-05Z" fill="white"/>
<path d="M175.546 10.9809V15.5007H185.398L185.655 10.9809H175.546ZM215.538 10.9809L215.766 15.5007H225.726V10.9809H215.538ZM175.546 4.94777e-06V8.8118H225.73V-0.0132141L175.546 4.94777e-06ZM194.051 19.5847V24.2861H207.073V19.5847H194.051ZM194.051 29.7106V34.412H207.073V29.7106H194.051ZM207.073 45.208V45.1717H194.051V45.208L188.416 46.3965V53.9901H212.708V46.3965L207.073 45.208ZM207.073 38.496H194.051V43.0191H207.073V38.496ZM194.051 10.9809V15.5007H207.073V10.9809H194.051ZM175.546 10.9809V15.5007H185.398L185.655 10.9809H175.546Z" fill="white"/>
</g>
<defs>
<clipPath id="clip0_89_338">
<rect width="225.726" height="54" fill="white"/>
</clipPath>
</defs>
</svg>
