<?xml version="1.0" encoding="UTF-8"?>
<svg id="Layer_2" data-name="Layer 2" xmlns="http://www.w3.org/2000/svg" viewBox="0 0 3000 529.68">
  <defs>
    <style>
      .cls-1 {
        fill: #00ff57;
      }
    </style>
  </defs>
  <g id="Layer_1-2" data-name="Layer 1">
    <g>
      <g>
        <path class="cls-1" d="m720.9,438.64c3.8-2.6,8.57-3.89,14.29-3.89,6.51,0,11.77,1.65,15.79,4.96,4.02,3.31,6.81,7.82,8.37,13.55l9.65-2.56c-2.17-7.64-6.12-13.72-11.87-18.24-5.74-4.52-13.06-6.77-21.95-6.77-7.65,0-14.13,1.69-19.47,5.07-5.33,3.38-9.4,8.07-12.19,14.08-2.79,6.01-4.19,12.96-4.19,20.85s1.4,14.84,4.19,20.85c2.79,6.01,6.85,10.7,12.19,14.08,5.33,3.38,11.82,5.07,19.47,5.07,8.89,0,16.2-2.27,21.95-6.8,5.74-4.53,9.7-10.6,11.87-18.21l-9.65-2.56c-1.56,5.69-4.36,10.2-8.37,13.52-4.02,3.32-9.28,4.99-15.79,4.99-5.73,0-10.51-1.31-14.35-3.92-3.84-2.61-6.72-6.24-8.64-10.88-1.92-4.64-2.86-10.02-2.83-16.13.04-6.15,1.01-11.55,2.93-16.19,1.92-4.64,4.78-8.26,8.59-10.85Z"/>
        <path class="cls-1" d="m837.32,448.74c-4.16-2.58-9.12-3.87-14.88-3.87s-10.51,1.27-14.67,3.81c-4.16,2.54-7.38,6.09-9.65,10.64-2.28,4.55-3.41,9.85-3.41,15.89s1.12,11.2,3.36,15.79c2.24,4.59,5.43,8.18,9.57,10.77,4.14,2.59,9.08,3.89,14.8,3.89s10.67-1.29,14.83-3.87,7.36-6.15,9.6-10.72c2.24-4.57,3.36-9.86,3.36-15.87s-1.11-11.19-3.33-15.76c-2.22-4.57-5.41-8.14-9.57-10.72Zm-1.55,41.95c-2.92,3.98-7.36,5.97-13.33,5.97s-10.19-1.96-13.17-5.87c-2.99-3.91-4.48-9.1-4.48-15.57,0-4.2.64-7.89,1.92-11.09,1.28-3.2,3.22-5.71,5.81-7.52,2.6-1.81,5.9-2.72,9.92-2.72,5.9,0,10.33,1.93,13.28,5.79,2.95,3.86,4.43,9.04,4.43,15.55s-1.46,11.49-4.37,15.47Z"/>
        <path class="cls-1" d="m927.03,457.92c-1-2.4-2.36-4.57-4.11-6.51-1.74-1.94-3.93-3.49-6.56-4.67-2.63-1.17-5.81-1.76-9.55-1.76-4.94,0-9.24,1.08-12.88,3.23-2.49,1.47-4.59,3.39-6.32,5.72v-7.45h-8.53v57.6h9.6v-30.35c0-3.34.38-6.25,1.15-8.72.76-2.47,1.84-4.52,3.23-6.16,1.39-1.63,3.05-2.85,4.99-3.65,1.94-.8,4.1-1.2,6.48-1.2,3.06,0,5.59.59,7.6,1.76,2.01,1.17,3.61,2.76,4.8,4.77,1.19,2.01,2.03,4.28,2.51,6.8.48,2.53.72,5.16.72,7.89v28.85h9.6v-31.84c0-2.21-.21-4.54-.61-7.01-.41-2.47-1.11-4.91-2.11-7.31Z"/>
        <path class="cls-1" d="m975.56,430.48h-9.49v16h-11.68v7.84h11.68v28c0,2.95.04,5.59.13,7.92.09,2.33.7,4.63,1.84,6.91,1.35,2.6,3.32,4.51,5.92,5.73,2.6,1.23,5.56,1.9,8.88,2.03,3.32.12,6.69-.15,10.11-.83v-8.16c-3.95.61-7.32.71-10.11.32-2.79-.39-4.83-1.72-6.11-4-.68-1.21-1.04-2.65-1.09-4.32-.05-1.67-.08-3.68-.08-6.03v-27.57h17.39v-7.84h-17.39v-16Z"/>
        <rect class="cls-1" x="1022.92" y="426.48" width="9.49" height="9.81"/>
        <rect class="cls-1" x="1022.92" y="446.48" width="9.49" height="57.6"/>
        <path class="cls-1" d="m1113.48,457.92c-1-2.4-2.36-4.57-4.11-6.51-1.74-1.94-3.93-3.49-6.56-4.67-2.63-1.17-5.81-1.76-9.55-1.76-4.94,0-9.24,1.08-12.88,3.23-2.49,1.47-4.59,3.39-6.32,5.72v-7.45h-8.53v57.6h9.6v-30.35c0-3.34.38-6.25,1.15-8.72.76-2.47,1.84-4.52,3.23-6.16,1.39-1.63,3.05-2.85,4.99-3.65,1.94-.8,4.1-1.2,6.48-1.2,3.06,0,5.59.59,7.6,1.76,2.01,1.17,3.61,2.76,4.8,4.77,1.19,2.01,2.03,4.28,2.51,6.8.48,2.53.72,5.16.72,7.89v28.85h9.6v-31.84c0-2.21-.21-4.54-.61-7.01-.41-2.47-1.11-4.91-2.11-7.31Z"/>
        <path class="cls-1" d="m1187.24,476.82c0,3.31-.37,6.21-1.12,8.69-.75,2.49-1.81,4.54-3.2,6.16-1.39,1.62-3.06,2.84-5.01,3.65-1.96.82-4.12,1.23-6.51,1.23-3.02,0-5.54-.59-7.55-1.76-2.01-1.17-3.61-2.77-4.8-4.8-1.19-2.03-2.04-4.3-2.53-6.83-.5-2.52-.75-5.14-.75-7.84v-28.85h-9.6v31.84c0,2.17.2,4.5.61,6.99.41,2.49,1.11,4.92,2.11,7.31,1,2.38,2.36,4.55,4.11,6.51,1.74,1.96,3.94,3.52,6.59,4.69,2.65,1.17,5.82,1.76,9.52,1.76,4.94,0,9.24-1.08,12.88-3.23,2.49-1.47,4.59-3.39,6.32-5.73v7.47h8.48v-57.6h-9.55v30.35Z"/>
        <path class="cls-1" d="m1268.31,448.74c-4.16-2.58-9.12-3.87-14.88-3.87s-10.51,1.27-14.67,3.81c-4.16,2.54-7.38,6.09-9.65,10.64-2.28,4.55-3.41,9.85-3.41,15.89s1.12,11.2,3.36,15.79c2.24,4.59,5.43,8.18,9.57,10.77,4.14,2.59,9.08,3.89,14.8,3.89s10.67-1.29,14.83-3.87,7.36-6.15,9.6-10.72c2.24-4.57,3.36-9.86,3.36-15.87s-1.11-11.19-3.33-15.76c-2.22-4.57-5.41-8.14-9.57-10.72Zm-1.55,41.95c-2.92,3.98-7.36,5.97-13.33,5.97s-10.19-1.96-13.17-5.87c-2.99-3.91-4.48-9.1-4.48-15.57,0-4.2.64-7.89,1.92-11.09,1.28-3.2,3.22-5.71,5.81-7.52,2.6-1.81,5.9-2.72,9.92-2.72,5.9,0,10.33,1.93,13.28,5.79,2.95,3.86,4.43,9.04,4.43,15.55s-1.46,11.49-4.37,15.47Z"/>
        <path class="cls-1" d="m1350.12,476.82c0,3.31-.37,6.21-1.12,8.69-.75,2.49-1.81,4.54-3.2,6.16-1.39,1.62-3.06,2.84-5.01,3.65-1.96.82-4.12,1.23-6.51,1.23-3.02,0-5.54-.59-7.55-1.76-2.01-1.17-3.61-2.77-4.8-4.8-1.19-2.03-2.04-4.3-2.53-6.83-.5-2.52-.75-5.14-.75-7.84v-28.85h-9.6v31.84c0,2.17.2,4.5.61,6.99.41,2.49,1.11,4.92,2.11,7.31,1,2.38,2.36,4.55,4.11,6.51,1.74,1.96,3.94,3.52,6.59,4.69,2.65,1.17,5.82,1.76,9.52,1.76,4.94,0,9.24-1.08,12.88-3.23,2.49-1.47,4.59-3.39,6.32-5.73v7.47h8.48v-57.6h-9.55v30.35Z"/>
        <path class="cls-1" d="m1428.44,474.88c-2.93-1.51-6.94-2.91-12.03-4.19-4.52-1.14-7.96-2.15-10.32-3.04-2.37-.89-3.98-1.83-4.85-2.83-.87-1-1.31-2.19-1.31-3.57,0-2.49,1.16-4.46,3.49-5.92,2.33-1.46,5.36-2.12,9.09-1.97,3.95.11,7.17,1.05,9.68,2.83,2.51,1.78,3.99,4.21,4.45,7.31l9.71-1.76c-.39-3.38-1.65-6.34-3.76-8.88-2.12-2.54-4.9-4.51-8.35-5.89-3.45-1.39-7.36-2.08-11.73-2.08s-8.28.69-11.6,2.08c-3.32,1.39-5.91,3.35-7.76,5.89-1.85,2.54-2.77,5.5-2.77,8.88,0,2.74.62,5.07,1.87,6.99,1.24,1.92,3.32,3.61,6.24,5.07,2.92,1.46,6.92,2.86,12,4.21,4.69,1.25,8.2,2.31,10.53,3.2,2.33.89,3.87,1.84,4.61,2.85.75,1.01,1.12,2.34,1.12,3.97,0,2.81-1.12,5.03-3.36,6.67-2.24,1.64-5.33,2.45-9.28,2.45-4.16,0-7.65-.92-10.45-2.75-2.81-1.83-4.6-4.31-5.39-7.44l-9.71,1.55c1,5.41,3.69,9.61,8.08,12.61,4.39,3,10.02,4.51,16.88,4.51s12.82-1.59,16.91-4.77c4.09-3.18,6.13-7.55,6.13-13.09,0-2.99-.62-5.5-1.87-7.55-1.25-2.04-3.33-3.82-6.27-5.33Z"/>
        <path class="cls-1" d="m1591.4,467.57c-2.06-1.48-4.19-2.62-6.37-3.44-2.19-.82-4.12-1.46-5.79-1.92l-14.61-4.21c-1.88-.53-3.81-1.22-5.79-2.05-1.97-.83-3.64-1.97-4.99-3.41-1.35-1.44-2.03-3.33-2.03-5.68s.75-4.49,2.24-6.32,3.5-3.26,6.03-4.29c2.52-1.03,5.35-1.53,8.48-1.49,3.27.04,6.27.67,9.01,1.89,2.74,1.23,5.02,2.97,6.85,5.23,1.83,2.26,3.01,4.95,3.55,8.08l10.08-1.76c-.92-4.66-2.73-8.66-5.41-12-2.69-3.34-6.06-5.91-10.13-7.71-4.07-1.79-8.69-2.71-13.84-2.75-5.08-.04-9.65.8-13.71,2.51s-7.26,4.17-9.63,7.39c-2.36,3.22-3.55,7.1-3.55,11.65,0,2.85.46,5.31,1.39,7.39.92,2.08,2.17,3.86,3.73,5.33,1.56,1.48,3.34,2.7,5.33,3.68,1.99.98,4.05,1.79,6.19,2.43l19.57,5.81c1.39.39,2.72.89,4,1.49,1.28.61,2.43,1.34,3.44,2.21,1.01.87,1.81,1.92,2.4,3.15.59,1.23.88,2.69.88,4.4,0,2.77-.82,5.17-2.45,7.2-1.64,2.03-3.85,3.58-6.64,4.67-2.79,1.08-5.91,1.63-9.36,1.63-5.33,0-9.96-1.36-13.89-4.08-3.93-2.72-6.52-6.5-7.76-11.33l-9.81,1.55c.85,4.69,2.69,8.76,5.52,12.19,2.83,3.43,6.42,6.07,10.77,7.92,4.35,1.85,9.25,2.77,14.69,2.77,3.98,0,7.72-.51,11.2-1.52,3.48-1.01,6.54-2.49,9.17-4.43,2.63-1.94,4.68-4.35,6.16-7.23,1.48-2.88,2.21-6.17,2.21-9.87s-.68-6.76-2.03-9.2c-1.35-2.43-3.06-4.39-5.12-5.87Z"/>
        <path class="cls-1" d="m1666.26,448.88c-4.07-2.67-9-4-14.8-4s-10.45,1.25-14.59,3.76c-4.14,2.51-7.37,6.06-9.68,10.67-2.31,4.6-3.47,10.05-3.47,16.35s1.17,11.26,3.52,15.76c2.35,4.5,5.63,8,9.84,10.51s9.15,3.76,14.8,3.76,10.62-1.4,15.12-4.19c4.5-2.79,7.87-6.73,10.11-11.81l-9.12-3.15c-1.6,3.27-3.8,5.78-6.61,7.52-2.81,1.74-6.12,2.61-9.92,2.61-5.65,0-10.01-1.87-13.07-5.6-2.65-3.23-4.14-7.61-4.5-13.12h44.18c.28-6.83-.6-12.71-2.64-17.65-2.05-4.94-5.1-8.75-9.17-11.41Zm-27.87,10.19c3.06-3.77,7.52-5.65,13.39-5.65,5.48,0,9.6,1.75,12.37,5.25,2.19,2.77,3.53,6.66,4.06,11.65h-34.12c.57-4.67,2.01-8.42,4.3-11.25Z"/>
        <path class="cls-1" d="m1721.59,456.64c2.56-1.83,5.81-2.75,9.76-2.75,3.52,0,6.64.93,9.36,2.77,2.72,1.85,4.68,4.45,5.89,7.79l9.39-2.83c-1.49-5.19-4.44-9.28-8.83-12.27-4.39-2.99-9.63-4.48-15.71-4.48-5.76,0-10.69,1.28-14.77,3.84-4.09,2.56-7.23,6.12-9.41,10.69-2.19,4.57-3.32,9.86-3.39,15.87.07,5.87,1.17,11.09,3.31,15.68s5.24,8.19,9.31,10.8c4.07,2.61,9.02,3.92,14.85,3.92s11.07-1.42,15.31-4.27c4.23-2.84,7.34-6.95,9.33-12.32l-9.6-2.51c-1.28,3.27-3.17,5.77-5.65,7.49-2.49,1.72-5.62,2.59-9.39,2.59-5.73,0-10.04-1.96-12.93-5.89-2.9-3.93-4.38-9.09-4.45-15.49.04-4.16.68-7.85,1.92-11.07,1.24-3.22,3.15-5.74,5.71-7.57Z"/>
        <path class="cls-1" d="m1824.1,476.82c0,3.31-.37,6.21-1.12,8.69-.75,2.49-1.81,4.54-3.2,6.16-1.39,1.62-3.06,2.84-5.01,3.65-1.96.82-4.12,1.23-6.51,1.23-3.02,0-5.54-.59-7.55-1.76-2.01-1.17-3.61-2.77-4.8-4.8-1.19-2.03-2.04-4.3-2.53-6.83-.5-2.52-.75-5.14-.75-7.84v-28.85h-9.6v31.84c0,2.17.2,4.5.61,6.99.41,2.49,1.11,4.92,2.11,7.31,1,2.38,2.36,4.55,4.11,6.51,1.74,1.96,3.94,3.52,6.59,4.69,2.65,1.17,5.82,1.76,9.52,1.76,4.94,0,9.24-1.08,12.88-3.23,2.49-1.47,4.59-3.39,6.32-5.73v7.47h8.48v-57.6h-9.55v30.35Z"/>
        <path class="cls-1" d="m1889.96,446.08c-1.96.12-3.88.51-5.76,1.15-1.89.64-3.57,1.56-5.07,2.77-1.35.96-2.57,2.19-3.65,3.68-.46.63-.87,1.29-1.25,1.97v-9.17h-8.48v57.6h9.55v-28.91c0-2.27.19-4.51.59-6.69.39-2.19,1.09-4.22,2.11-6.11,1.01-1.88,2.44-3.48,4.29-4.8,2.03-1.49,4.23-2.36,6.61-2.61,2.38-.25,4.57-.11,6.56.43v-8.91c-1.71-.39-3.54-.52-5.49-.4Z"/>
        <rect class="cls-1" x="1923.83" y="426.48" width="9.49" height="9.81"/>
        <rect class="cls-1" x="1923.83" y="446.48" width="9.49" height="57.6"/>
        <path class="cls-1" d="m1981.27,430.48h-9.49v16h-11.68v7.84h11.68v28c0,2.95.04,5.59.13,7.92.09,2.33.7,4.63,1.84,6.91,1.35,2.6,3.32,4.51,5.92,5.73,2.6,1.23,5.56,1.9,8.88,2.03,3.32.12,6.69-.15,10.11-.83v-8.16c-3.95.61-7.32.71-10.11.32-2.79-.39-4.83-1.72-6.11-4-.68-1.21-1.04-2.65-1.09-4.32-.05-1.67-.08-3.68-.08-6.03v-27.57h17.39v-7.84h-17.39v-16Z"/>
        <polygon class="cls-1" points="2048.04 491.79 2030.07 446.48 2020.1 446.48 2043.45 503.88 2033.96 529.68 2043.19 529.68 2074.55 446.48 2064.9 446.48 2048.04 491.79"/>
        <rect class="cls-1" x="2178.6" y="427.28" width="9.49" height="76.8"/>
        <path class="cls-1" d="m2280.31,444.98c-3.84,0-7.29.85-10.35,2.56-2.98,1.66-5.33,3.98-7.08,6.94,0,0,0-.02-.01-.03-1.57-3.04-3.79-5.38-6.67-7.01-2.88-1.63-6.26-2.45-10.13-2.45s-7.34.84-10.4,2.53c-2.38,1.32-4.37,3.02-5.97,5.1v-6.14h-8.48v57.6h9.55v-36.59c0-4.23,1.16-7.63,3.47-10.19,2.31-2.56,5.33-3.84,9.07-3.84s6.79,1.25,9.07,3.76c2.27,2.51,3.41,5.96,3.41,10.37l-.05,36.48h9.44l.05-36.59h0c0-3.23.6-5.89,1.81-7.97,1.21-2.08,2.77-3.61,4.69-4.59,1.92-.98,3.95-1.47,6.08-1.47,3.66,0,6.64,1.22,8.93,3.65,2.29,2.44,3.44,5.81,3.44,10.11l-.05,36.85h9.49l.05-38.93c0-6.15-1.73-11.05-5.17-14.69-3.45-3.64-8.18-5.47-14.19-5.47Z"/>
        <path class="cls-1" d="m2371,448.85c-3.86-2.65-8.45-3.97-13.79-3.97s-9.96,1.32-13.68,3.95c-1.65,1.17-3.11,2.54-4.4,4.09v-6.44h-8.48v83.2h9.55v-30.96c1.01,1.07,2.11,2.06,3.31,2.93,3.7,2.68,8.25,4.03,13.65,4.03s9.98-1.34,13.84-4.03,6.82-6.32,8.88-10.91c2.06-4.59,3.09-9.76,3.09-15.52s-1.03-10.93-3.09-15.52c-2.06-4.59-5.02-8.2-8.88-10.85Zm.03,37.44c-1.25,3.29-3.11,5.89-5.6,7.81-2.49,1.92-5.64,2.88-9.44,2.88s-7.06-.93-9.55-2.8c-2.49-1.87-4.33-4.44-5.52-7.73-1.19-3.29-1.79-7.03-1.79-11.23s.6-8.03,1.81-11.28c1.21-3.25,3.04-5.79,5.49-7.63,2.45-1.83,5.55-2.75,9.28-2.75s7.14.96,9.68,2.88c2.54,1.92,4.43,4.52,5.65,7.79,1.23,3.27,1.84,6.93,1.84,10.99s-.62,7.78-1.87,11.07Z"/>
        <path class="cls-1" d="m2438,446.08c-1.96.12-3.88.51-5.76,1.15-1.89.64-3.57,1.56-5.07,2.77-1.35.96-2.57,2.19-3.65,3.68-.46.63-.87,1.29-1.25,1.97v-9.17h-8.48v57.6h9.55v-28.91c0-2.27.19-4.51.59-6.69.39-2.19,1.09-4.22,2.11-6.11,1.01-1.88,2.44-3.48,4.29-4.8,2.03-1.49,4.23-2.36,6.61-2.61,2.38-.25,4.57-.11,6.56.43v-8.91c-1.71-.39-3.54-.52-5.49-.4Z"/>
        <path class="cls-1" d="m2511.04,448.74c-4.16-2.58-9.12-3.87-14.88-3.87s-10.51,1.27-14.67,3.81c-4.16,2.54-7.38,6.09-9.65,10.64-2.28,4.55-3.41,9.85-3.41,15.89s1.12,11.2,3.36,15.79c2.24,4.59,5.43,8.18,9.57,10.77,4.14,2.59,9.08,3.89,14.8,3.89s10.67-1.29,14.83-3.87,7.36-6.15,9.6-10.72c2.24-4.57,3.36-9.86,3.36-15.87s-1.11-11.19-3.33-15.76c-2.22-4.57-5.41-8.14-9.57-10.72Zm-1.55,41.95c-2.92,3.98-7.36,5.97-13.33,5.97s-10.19-1.96-13.17-5.87c-2.99-3.91-4.48-9.1-4.48-15.57,0-4.2.64-7.89,1.92-11.09,1.28-3.2,3.22-5.71,5.81-7.52,2.6-1.81,5.9-2.72,9.92-2.72,5.9,0,10.33,1.93,13.28,5.79,2.95,3.86,4.43,9.04,4.43,15.55s-1.46,11.49-4.37,15.47Z"/>
        <polygon class="cls-1" points="2570.45 491.97 2554.29 446.48 2544.69 446.48 2565.6 504.08 2575.3 504.08 2596.21 446.48 2586.56 446.48 2570.45 491.97"/>
        <path class="cls-1" d="m2659.99,448.88c-4.07-2.67-9-4-14.8-4s-10.45,1.25-14.59,3.76c-4.14,2.51-7.37,6.06-9.68,10.67-2.31,4.6-3.47,10.05-3.47,16.35s1.17,11.26,3.52,15.76c2.35,4.5,5.63,8,9.84,10.51s9.15,3.76,14.8,3.76,10.62-1.4,15.12-4.19c4.5-2.79,7.87-6.73,10.11-11.81l-9.12-3.15c-1.6,3.27-3.8,5.78-6.61,7.52-2.81,1.74-6.12,2.61-9.92,2.61-5.65,0-10.01-1.87-13.07-5.6-2.64-3.23-4.14-7.61-4.5-13.12h44.18c.28-6.83-.6-12.71-2.64-17.65-2.05-4.94-5.1-8.75-9.17-11.41Zm-27.87,10.19c3.06-3.77,7.52-5.65,13.39-5.65,5.48,0,9.6,1.75,12.37,5.25,2.19,2.77,3.53,6.66,4.06,11.65h-34.12c.57-4.67,2.01-8.42,4.3-11.25Z"/>
        <path class="cls-1" d="m2759.95,444.98c-3.84,0-7.29.85-10.35,2.56-2.98,1.66-5.33,3.98-7.08,6.94,0,0,0-.02-.01-.03-1.57-3.04-3.79-5.38-6.67-7.01-2.88-1.63-6.26-2.45-10.13-2.45s-7.34.84-10.4,2.53c-2.38,1.32-4.37,3.02-5.97,5.1v-6.14h-8.48v57.6h9.55v-36.59c0-4.23,1.16-7.63,3.47-10.19,2.31-2.56,5.33-3.84,9.07-3.84s6.79,1.25,9.07,3.76c2.27,2.51,3.41,5.96,3.41,10.37l-.05,36.48h9.44l.05-36.59h0c0-3.23.6-5.89,1.81-7.97,1.21-2.08,2.77-3.61,4.69-4.59,1.92-.98,3.95-1.47,6.08-1.47,3.66,0,6.64,1.22,8.93,3.65,2.29,2.44,3.44,5.81,3.44,10.11l-.05,36.85h9.49l.05-38.93c0-6.15-1.73-11.05-5.17-14.69-3.45-3.64-8.18-5.47-14.19-5.47Z"/>
        <path class="cls-1" d="m2848.61,448.88c-4.07-2.67-9-4-14.8-4s-10.45,1.25-14.59,3.76c-4.14,2.51-7.37,6.06-9.68,10.67-2.31,4.6-3.47,10.05-3.47,16.35s1.17,11.26,3.52,15.76c2.35,4.5,5.63,8,9.84,10.51s9.15,3.76,14.8,3.76,10.62-1.4,15.12-4.19c4.5-2.79,7.87-6.73,10.11-11.81l-9.12-3.15c-1.6,3.27-3.8,5.78-6.61,7.52-2.81,1.74-6.12,2.61-9.92,2.61-5.65,0-10.01-1.87-13.07-5.6-2.64-3.23-4.14-7.61-4.5-13.12h44.18c.28-6.83-.6-12.71-2.64-17.65-2.05-4.94-5.1-8.75-9.17-11.41Zm-27.87,10.19c3.06-3.77,7.52-5.65,13.39-5.65,5.48,0,9.6,1.75,12.37,5.25,2.19,2.77,3.53,6.66,4.06,11.65h-34.12c.57-4.67,2.01-8.42,4.3-11.25Z"/>
        <path class="cls-1" d="m2939.08,457.92c-1-2.4-2.36-4.57-4.11-6.51-1.74-1.94-3.93-3.49-6.56-4.67-2.63-1.17-5.81-1.76-9.55-1.76-4.94,0-9.24,1.08-12.88,3.23-2.49,1.47-4.59,3.39-6.32,5.72v-7.45h-8.53v57.6h9.6v-30.35c0-3.34.38-6.25,1.15-8.72.76-2.47,1.84-4.52,3.23-6.16,1.39-1.63,3.05-2.85,4.99-3.65,1.94-.8,4.1-1.2,6.48-1.2,3.06,0,5.59.59,7.6,1.76,2.01,1.17,3.61,2.76,4.8,4.77,1.19,2.01,2.03,4.28,2.51,6.8.48,2.53.72,5.16.72,7.89v28.85h9.6v-31.84c0-2.21-.21-4.54-.61-7.01-.41-2.47-1.11-4.91-2.11-7.31Z"/>
        <path class="cls-1" d="m3000,454.32v-7.84h-17.39v-16h-9.49v16h-11.68v7.84h11.68v28c0,2.95.04,5.59.13,7.92.09,2.33.7,4.63,1.84,6.91,1.35,2.6,3.32,4.51,5.92,5.73,2.6,1.23,5.56,1.9,8.88,2.03,3.32.12,6.69-.15,10.11-.83v-8.16c-3.95.61-7.32.71-10.11.32-2.79-.39-4.83-1.72-6.11-4-.68-1.21-1.04-2.65-1.09-4.32-.05-1.67-.08-3.68-.08-6.03v-27.57h17.39Z"/>
      </g>
      <g>
        <path class="cls-1" d="m628.29,37.4c-1.33-9.33-4.89-17.55-11.33-24.44-6.22-6.66-14.22-9.77-22.88-11.55-11.55-2.22-23.33-1.56-34.88.22-14.44,2-28.44,5.78-42.21,10.44-22.44,7.55-43.99,16.88-65.31,27.33-3.11,1.56-6,2.89-8.89,4.44,2-.67,3.78-1.33,5.78-2.22,21.11-8.89,42.65-16.88,65.31-20.66,10.89-1.78,21.55-2.67,32.43-.89,7.55,1.33,14.66,4,20.22,9.33,7.33,7.11,9.55,16.22,9.33,25.99,0,9.33-2.22,18.22-5.33,27.1-2.99,8.62-6.71,16.91-10.88,24.99-1.53,2.96-3.11,5.9-4.76,8.81-2.15,3.8-4.37,7.56-6.67,11.29-.05.07-.09.15-.13.22-2.16,3.43-4.4,6.93-6.67,10.43-1.69,2.61-3.4,5.22-5.11,7.79-1.58-2.64-3.2-5.23-4.83-7.79-2.31-3.62-4.66-7.18-7.08-10.65-2.68-3.86-5.43-7.62-8.25-11.29-2.8-3.64-5.66-7.19-8.59-10.65-3.29-3.89-6.68-7.65-10.14-11.29-3.49-3.67-7.07-7.22-10.74-10.65-4.19-3.92-8.49-7.7-12.91-11.29-4.59-3.73-9.31-7.27-14.15-10.65-28.37-19.78-61.06-33.38-98.36-40.14-77.09-13.77-147.07,4.89-207.05,55.54-52.87,44.65-82.86,102.41-88.2,171.51-6.35,82.74,22.92,151.89,82.85,208.09.89.84,1.77,1.68,2.68,2.51,0,0-.22.22-.44.22-1.44.59-2.89,1.18-4.34,1.77-21.27,8.59-43,15.95-66.09,18.45-8.66.89-17.11.89-25.77-.89-17.55-3.78-27.33-15.55-27.33-33.55,0-7.78,1.33-15.33,3.55-22.66,4.44-15.55,11.55-30.21,19.77-43.99,5.34-9.35,11.33-18.38,17.14-27.5-14.59,18.72-28.52,38.06-40.46,58.6-9.11,15.55-17.33,31.55-22.66,48.87-3.55,11.55-6,23.55-4.44,35.77,1.11,8,4,14.88,9.55,20.66,6.89,7.11,15.55,10.66,24.88,12.66,12.44,2.67,25.1,2,37.77.22,14-2,27.77-5.55,41.32-9.77,25.33-8,49.54-18.44,73.31-30.21,2-1.11,3.56-1.11,5.55,0,35.77,20.22,74.42,31.1,115.52,32.43,15.77.44,31.32-.44,46.65-2.89,25.77-4,49.98-11.77,73.31-23.33,15.21-7.46,29.34-16.39,42.56-26.74,4.35-3.4,8.61-6.93,12.77-10.65,2.4-2.15,4.76-4.34,7.1-6.6,1.59-1.54,3.12-3.13,4.67-4.7,3.42-3.48,6.77-7,9.97-10.65,3.22-3.67,6.29-7.45,9.3-11.29,2.72-3.48,5.34-7.03,7.88-10.65,2.59-3.7,5.1-7.45,7.49-11.29,2.17-3.49,4.26-7.04,6.26-10.65,1.6-2.88,3.15-5.79,4.64-8.74.43-.85.84-1.7,1.26-2.55,1.74-3.53,3.39-7.08,4.96-10.65,1.64-3.74,3.18-7.5,4.62-11.29,1.34-3.53,2.6-7.08,3.77-10.65,1.23-3.74,2.36-7.5,3.41-11.29.22-.8.44-1.59.65-2.39,3.67-13.88,6.12-28.1,7.33-42.69,1.56-16.44,1.33-32.66-.44-48.87-1.31-12.81-3.61-25.38-6.95-37.71-.97-3.57-2.04-7.12-3.19-10.65-.25-.76-.48-1.53-.74-2.3-.45-1.33-.22-2,.44-3.11,16.22-21.77,31.77-43.99,45.32-67.31,8.66-14.88,16.66-30.21,21.99-46.65,4-11.77,6.44-23.99,4.89-36.66Zm-106.45,309.64c-1.36,3.58-2.82,7.13-4.38,10.65-1.69,3.81-3.53,7.57-5.46,11.29-1.86,3.59-3.8,7.14-5.89,10.65-2.27,3.82-4.69,7.58-7.23,11.29-2.45,3.6-5.03,7.15-7.75,10.65-.5.64-.96,1.3-1.47,1.94-2.57,3.24-5.25,6.33-7.99,9.36-3.34,3.7-6.78,7.27-10.38,10.65-4.26,4-8.71,7.76-13.35,11.29-5,3.81-10.21,7.37-15.67,10.65-2.59,1.55-5.23,3.05-7.93,4.48-4.82,2.53-9.72,4.79-14.68,6.82-13.33,5.43-27.18,8.99-41.75,10.29-1.69.16-3.37.26-5.06.36-6.48.4-12.86.39-19.15,0-16.23-1-31.84-4.58-46.77-10.65-7.66-3.12-15.16-6.89-22.47-11.29-2.11-1.27-4.21-2.59-6.3-3.96-.44-.22-.67-.44-.89-.67,3.22-2.02,6.43-4.01,9.65-6.02,4.56-2.85,9.12-5.74,13.68-8.87,1.16-.8,2.31-1.63,3.47-2.43,5.07-3.53,10.14-7.08,15.21-10.65,5.32-3.74,10.63-7.51,15.95-11.29,4.98-3.54,9.95-7.07,14.93-10.65.14-.1.28-.2.42-.3,5.03-3.6,10-7.27,14.93-10.99,4.64-3.5,9.23-7.05,13.78-10.65,4.7-3.71,9.35-7.48,13.96-11.29,4.23-3.51,8.43-7.05,12.59-10.65,2.7-2.34,5.38-4.69,8.05-7.06,1.54-1.4,3.05-2.82,4.58-4.23,3.83-3.53,7.64-7.08,11.43-10.65,3.97-3.74,7.92-7.51,11.84-11.29,3.65-3.53,7.29-7.08,10.91-10.65,2.04-2.01,4.09-4.02,6.12-6.05,1.72-1.77,3.47-3.51,5.23-5.24,3.64-3.59,7.33-7.12,11.03-10.65,2.59-2.47,5.17-4.94,7.74-7.43,1.29-1.28,2.57-2.57,3.85-3.86,3.48-3.51,6.92-7.05,10.31-10.65,3.51-3.72,6.98-7.48,10.4-11.29,3.15-3.51,6.25-7.07,9.32-10.65,3.2-3.73,6.36-7.5,9.49-11.29,1.4-1.7,2.8-3.41,4.18-5.12.45-.44,1.11-1.11,1.78-2,.44,2.67.89,4.67,1.33,6.89.01.08.02.16.03.23.59,3.74,1.09,7.51,1.52,11.29.4,3.54.72,7.09.97,10.65.26,3.76.44,7.53.53,11.29.07,3.07.1,6.13.05,9.18-.01.49-.04.98-.06,1.47-.1,3.79-.3,7.55-.56,11.29-.25,3.57-.57,7.12-.97,10.65-.42,3.79-.92,7.56-1.52,11.29-.57,3.57-1.19,7.13-1.92,10.65-.79,3.8-1.7,7.56-2.68,11.29-.94,3.58-1.97,7.13-3.09,10.65-1.2,3.8-2.49,7.57-3.91,11.29Zm-31.89-142.96c-3.34,3.79-6.69,7.57-10.09,11.29-3.27,3.58-6.58,7.12-9.91,10.65-.69.73-1.36,1.48-2.06,2.21-2.89,3.05-5.81,6.07-8.74,9.09-3.47,3.58-6.97,7.13-10.5,10.65-3.8,3.8-7.62,7.56-11.48,11.29-3.69,3.58-7.41,7.13-11.16,10.65-4.03,3.8-8.1,7.56-12.19,11.29-3.92,3.58-7.86,7.13-11.83,10.65-4.28,3.8-8.58,7.56-12.91,11.29-4.15,3.58-8.32,7.13-12.51,10.65-1.92,1.62-3.83,3.25-5.77,4.85-2.61,2.17-5.24,4.3-7.87,6.45-4.37,3.58-8.77,7.13-13.19,10.65-4.78,3.8-9.58,7.57-14.41,11.29-4.65,3.58-9.32,7.14-14.02,10.65-5.1,3.81-10.23,7.57-15.39,11.29-4.98,3.59-9.99,7.14-15.04,10.65-5.49,3.82-11.03,7.58-16.6,11.29-5.4,3.6-10.83,7.15-16.31,10.65-4.29,2.74-8.58,5.48-12.91,8.16-.44.44-1.11.67-2.22,1.33-2.4-3.25-4.86-6.36-7.22-9.49-2-2.65-3.93-5.31-5.67-8.06-.61-.86-1.19-1.72-1.78-2.59-2.54-3.7-4.96-7.47-7.24-11.29-2.08-3.5-4.04-7.05-5.89-10.65-1.92-3.71-3.71-7.48-5.4-11.29-1.55-3.51-3-7.06-4.36-10.65-1.41-3.72-2.72-7.49-3.92-11.29-1.11-3.52-2.14-7.07-3.09-10.65-.98-3.73-1.88-7.49-2.68-11.29-.1-.46-.2-.91-.3-1.37-.64-3.09-1.18-6.18-1.69-9.28-.61-3.76-1.13-7.52-1.55-11.29-.39-3.54-.7-7.09-.93-10.65-.24-3.76-.41-7.52-.47-11.29-.06-3.54-.05-7.09.04-10.65.04-1.83.09-3.65.17-5.48.09-1.94.2-3.88.33-5.81.24-3.57.57-7.12.97-10.65.43-3.79.95-7.55,1.57-11.29.59-3.57,1.26-7.12,2.01-10.65.81-3.79,1.71-7.55,2.72-11.29.96-3.57,2.01-7.12,3.15-10.65,1.22-3.79,2.56-7.55,3.99-11.29,1.37-3.57,2.84-7.12,4.4-10.65.64-1.45,1.29-2.9,1.97-4.35,1.11-2.34,2.28-4.65,3.46-6.95,1.86-3.61,3.82-7.16,5.87-10.65,2.26-3.85,4.65-7.61,7.16-11.29,2.47-3.63,5.04-7.19,7.75-10.65,3.05-3.89,6.27-7.65,9.65-11.29,2.54-2.74,5.14-5.44,7.87-8.03.93-.89,1.87-1.75,2.81-2.62,4.35-4.01,8.82-7.78,13.45-11.29,5.1-3.87,10.38-7.42,15.84-10.65,7.45-4.4,15.23-8.19,23.4-11.29,6.51-2.48,13.26-4.54,20.27-6.13,30.34-7,59.66-4.81,87.96,6.13,4.03,1.56,8.03,3.29,12.02,5.2,3.87,1.81,7.56,3.87,11.13,6.1,5.17,3.22,10.06,6.82,14.77,10.65,3.99,3.25,7.86,6.65,11.65,10.13.41.38.8.78,1.21,1.16,3.71,3.44,7.27,7,10.72,10.65,3.46,3.67,6.81,7.42,9.99,11.29,2.84,3.46,5.54,7.02,8.16,10.65,2.66,3.68,5.21,7.44,7.64,11.29,2.2,3.49,4.33,7.02,6.34,10.65,1.75,3.15,3.43,6.35,5.03,9.62.31.63.47,1.16.44,1.68-.03.59-.3,1.17-.89,1.88-2.34,2.96-4.74,5.86-7.12,8.77-3.1,3.8-6.24,7.56-9.41,11.29-3.04,3.57-6.09,7.13-9.18,10.65Z"/>
        <g>
          <path class="cls-1" d="m821.57,288.93c73.03,0,112.77-33.71,112.77-80.26,0-115.97-158.51-76.65-158.51-129.62,0-15.65,14.85-26.89,38.12-26.89,22.07,0,39.73,9.63,46.95,32.1l66.62-14.45C913.47,22.47,871.33,0,813.54,0c-68.62,0-108.35,34.11-108.35,79.05,0,113.97,158.91,75.44,158.91,128.41,0,17.66-15.25,29.29-42.54,29.29-24.48,0-47.35-10.03-56.98-36.12l-65.41,14.45c13.64,50.96,65.41,73.84,122.39,73.84Z"/>
          <path class="cls-1" d="m1037.46,284.92v-108.35c0-25.28,13.65-42.54,35.31-42.54,18.46,0,29.29,12.04,29.29,36.12v114.77h67.82v-108.35c0-25.28,13.65-42.54,35.32-42.54,18.46,0,29.29,12.04,29.29,36.12v114.77h67.82v-132.43c0-49.36-23.27-76.24-64.61-76.24-28.09,0-52.97,12.04-68.22,40.13h-4.01c-11.23-26.08-31.3-40.13-60.2-40.13-27.29,0-49.36,11.64-65,34.51h-3.62l-4.01-30.5h-65c2.01,36.52,2.01,72.63,2.01,109.15v95.51h67.82Z"/>
          <path class="cls-1" d="m1538.74,150.89c0-46.15-33.71-74.64-99.12-74.64-54.57,0-89.89,23.28-96.71,61.8l59.39,13.24c4.01-17.66,17.26-27.29,37.32-27.29,18.86,0,33.71,8.43,33.71,29.69v6.02l-48.96,2.81c-56.17,3.21-83.87,26.08-83.87,66.21,0,36.12,26.08,60.19,65.41,60.19,32.1,0,52.17-12.44,65.01-37.32h3.61l4.82,33.31h61.4c-2.01-35.72-2.01-70.63-2.01-105.94v-28.09Zm-107.55,89.49c-16.86,0-25.68-8.03-25.68-20.47,0-15.25,10.83-21.67,35.31-23.27l32.5-2.01c-.8,29.29-19.67,45.75-42.14,45.75Z"/>
          <path class="cls-1" d="m1711.17,76.25c-25.28,0-45.74,15.25-56.18,47.35h-4.81l-6.02-43.34h-65.01c2.01,36.52,2.01,72.63,2.01,109.15v95.51h67.82v-75.04c0-50.16,28.09-66.21,58.99-66.21,6.02,0,9.23,0,15.65.8v-67.82c-4.81-.4-8.42-.4-12.44-.4Z"/>
          <path class="cls-1" d="m1858.94,288.93c21.27,0,36.52-4.01,53.37-13.24l-14.45-46.95c-7.22,4.01-14.44,6.02-21.67,6.02-13.24,0-22.48-7.22-22.48-24.88v-76.65h51.37v-52.97h-51.37V20.87h-55.78l-9.23,59.39h-41.74v52.97h38.93v80.66c0,52.17,29.29,75.04,73.04,75.04Z"/>
          <path class="cls-1" d="m2057.71,288.93c73.03,0,112.76-33.71,112.76-80.26,0-115.97-158.51-76.65-158.51-129.62,0-15.65,14.85-26.89,38.12-26.89,22.07,0,39.72,9.63,46.95,32.1l66.61-14.45c-14.05-47.35-56.18-69.82-113.97-69.82-68.63,0-108.35,34.11-108.35,79.05,0,113.97,158.91,75.44,158.91,128.41,0,17.66-15.25,29.29-42.54,29.29-24.48,0-47.35-10.03-56.99-36.12l-65.41,14.45c13.65,50.96,65.41,73.84,122.4,73.84Z"/>
          <path class="cls-1" d="m2275.89,365.17v-112.76h3.61c13.65,23.27,35.32,36.52,63.01,36.52,50.16,0,80.66-39.33,80.66-106.34s-30.5-106.34-80.66-106.34c-27.68,0-49.36,13.24-63.01,36.52h-3.61l-4.82-32.5h-65c2.01,36.52,2.01,72.63,2.01,109.15v175.77h67.82Zm39.72-131.22c-24.08,0-39.72-19.66-39.72-51.37s15.65-51.37,39.72-51.37,39.73,19.66,39.73,51.37-15.65,51.37-39.73,51.37Z"/>
          <path class="cls-1" d="m2557.57,365.17l101.13-284.92h-67.82l-41.34,142.86h-3.61l-41.33-142.86h-69.82l77.04,215.09-26.48,69.82h72.23Z"/>
          <g>
            <path class="cls-1" d="m2735.54,0l-99.66,288.91h65.34l21.44-65.93h104.48l21.44,65.93h65.15L2814.26,0h-78.72Zm2.63,175.29l35.57-109.36h2.33l35.57,109.36h-73.46Z"/>
            <g>
              <rect class="cls-1" x="2938.57" y="83.89" width="61.43" height="205.02"/>
              <path class="cls-1" d="m2969.19,57.66c8.56,0,15.83-2.81,21.82-8.44,5.99-5.62,8.99-12.41,8.99-20.36s-3-14.7-8.99-20.26c-5.99-5.56-13.27-8.34-21.82-8.34s-15.65,2.78-21.64,8.34c-5.99,5.56-8.99,12.32-8.99,20.26s2.99,14.73,8.99,20.36c5.99,5.62,13.2,8.44,21.64,8.44Z"/>
            </g>
          </g>
        </g>
      </g>
    </g>
  </g>
</svg>