<svg width="199" height="38" viewBox="0 0 199 38" fill="none" xmlns="http://www.w3.org/2000/svg">
<path d="M57.5557 20.9164C62.8429 20.9164 65.719 18.4762 65.719 15.1063C65.719 6.71068 54.244 9.55764 54.244 5.72296C54.244 4.58999 55.3188 3.77657 57.0038 3.77657C58.6016 3.77657 59.8798 4.47379 60.4027 6.10062L65.2251 5.0548C64.2083 1.62683 61.158 0 56.9747 0C52.0071 0 49.1311 2.4693 49.1311 5.72296C49.1311 13.9733 60.6351 11.1845 60.6351 15.0191C60.6351 16.2974 59.5312 17.1398 57.5557 17.1398C55.7837 17.1398 54.1278 16.4136 53.4306 14.5253L48.6953 15.5711C49.683 19.2605 53.4306 20.9164 57.5557 20.9164Z" fill="#00FF57"/>
<path d="M73.3922 20.6259V12.7823C73.3922 10.9521 74.3799 9.70289 75.9486 9.70289C77.2849 9.70289 78.0693 10.5744 78.0693 12.3174V20.6259H82.9789V12.7823C82.9789 10.9521 83.9666 9.70289 85.5353 9.70289C86.8716 9.70289 87.656 10.5744 87.656 12.3174V20.6259H92.5655V11.0392C92.5655 7.466 90.8806 5.51961 87.8884 5.51961C85.8549 5.51961 84.0537 6.39113 82.9498 8.42467H82.6593C81.8459 6.53638 80.3933 5.51961 78.3017 5.51961C76.3263 5.51961 74.7285 6.36208 73.5955 8.01796H73.3341L73.0436 5.81011H68.3374C68.4826 8.45372 68.4826 11.0683 68.4826 13.7119V20.6259H73.3922Z" fill="#00FF57"/>
<path d="M109.775 10.923C109.775 7.5822 107.334 5.51961 102.599 5.51961C98.6482 5.51961 96.0918 7.20454 95.5979 9.9934L99.8974 10.9521C100.188 9.67384 101.147 8.97663 102.599 8.97663C103.964 8.97663 105.039 9.58669 105.039 11.1264V11.5621L101.495 11.7655C97.4281 11.9979 95.4236 13.6538 95.4236 16.5588C95.4236 19.1734 97.3119 20.9164 100.159 20.9164C102.483 20.9164 103.935 20.0158 104.865 18.2147H105.127L105.475 20.6259H109.92C109.775 18.0404 109.775 15.513 109.775 12.9566V10.923ZM101.989 17.4013C100.769 17.4013 100.13 16.8203 100.13 15.9197C100.13 14.8158 100.914 14.351 102.686 14.2348L105.039 14.0895C104.981 16.2102 103.616 17.4013 101.989 17.4013Z" fill="#00FF57"/>
<path d="M122.549 5.51961C120.719 5.51961 119.237 6.62353 118.482 8.94758H118.133L117.697 5.81011H112.991C113.137 8.45372 113.137 11.0683 113.137 13.7119V20.6259H118.046V15.1935C118.046 11.5621 120.08 10.4001 122.317 10.4001C122.752 10.4001 122.985 10.4001 123.449 10.4582V5.54866C123.101 5.51961 122.839 5.51961 122.549 5.51961Z" fill="#00FF57"/>
<path d="M132.82 20.9164C134.359 20.9164 135.463 20.6259 136.683 19.9577L135.638 16.5588C135.115 16.8493 134.592 16.9946 134.069 16.9946C133.11 16.9946 132.442 16.4717 132.442 15.1935V9.64479H136.16V5.81011H132.442V1.51063H128.404L127.736 5.81011H124.715V9.64479H127.532V15.484C127.532 19.2605 129.653 20.9164 132.82 20.9164Z" fill="#00FF57"/>
<path d="M147.573 20.9164C152.86 20.9164 155.736 18.4762 155.736 15.1063C155.736 6.71068 144.261 9.55764 144.261 5.72296C144.261 4.58999 145.336 3.77657 147.021 3.77657C148.619 3.77657 149.897 4.47379 150.42 6.10062L155.242 5.0548C154.225 1.62683 151.175 0 146.992 0C142.024 0 139.148 2.4693 139.148 5.72296C139.148 13.9733 150.652 11.1845 150.652 15.0191C150.652 16.2974 149.548 17.1398 147.573 17.1398C145.801 17.1398 144.145 16.4136 143.448 14.5253L138.712 15.5711C139.7 19.2605 143.448 20.9164 147.573 20.9164Z" fill="#00FF57"/>
<path d="M163.409 26.436V18.2728H163.671C164.658 19.9577 166.227 20.9164 168.232 20.9164C171.863 20.9164 174.071 18.0695 174.071 13.218C174.071 8.36657 171.863 5.51961 168.232 5.51961C166.227 5.51961 164.658 6.47828 163.671 8.16321H163.409L163.061 5.81011H158.354C158.5 8.45372 158.5 11.0683 158.5 13.7119V26.436H163.409ZM166.285 16.9365C164.542 16.9365 163.409 15.513 163.409 13.218C163.409 10.923 164.542 9.49954 166.285 9.49954C168.028 9.49954 169.161 10.923 169.161 13.218C169.161 15.513 168.028 16.9365 166.285 16.9365Z" fill="#00FF57"/>
<path d="M184.153 26.436L191.473 5.81011H186.564L183.572 16.1521H183.31L180.318 5.81011H175.263L180.841 21.3812L178.924 26.436H184.153Z" fill="#00FF57"/>
<path d="M49.7695 36.6256C50.7247 36.6256 51.3844 36.1445 51.3844 35.3336C51.3844 33.485 48.5187 34.2066 48.5187 32.9009C48.5187 32.461 48.8967 32.1106 49.5977 32.1106C50.1337 32.1106 50.6354 32.3648 50.8278 32.9009L51.2676 32.7359C51.0202 32.0418 50.3811 31.6776 49.5977 31.6776C48.6424 31.6776 48.0239 32.1724 48.0239 32.9009C48.0239 34.722 50.8965 34.0004 50.8965 35.3336C50.8965 35.8353 50.5117 36.1926 49.7695 36.1926C49.1785 36.1926 48.6081 35.9384 48.3676 35.3336L47.9277 35.5054C48.1957 36.2407 48.9311 36.6256 49.7695 36.6256Z" fill="#00FF57"/>
<path d="M52.7074 36.5569V34.5227C52.7074 33.8973 53.1198 33.4369 53.6902 33.4369C54.185 33.4369 54.4805 33.7805 54.4805 34.4402V36.5569H54.9753V34.5227C54.9753 33.8973 55.3876 33.4369 55.958 33.4369C56.4528 33.4369 56.7483 33.7736 56.7483 34.4265V36.5569H57.2431V34.3646C57.2431 33.4231 56.7964 32.9833 56.0542 32.9833C55.5319 32.9833 55.1333 33.2376 54.9065 33.6637H54.8653C54.666 33.217 54.3224 32.9833 53.7864 32.9833C53.3603 32.9833 52.9686 33.2032 52.7487 33.6018H52.7006L52.6387 33.052H52.1783C52.2126 33.6774 52.2126 34.2959 52.2126 34.9213V36.5569H52.7074Z" fill="#00FF57"/>
<path d="M60.9063 34.1928C60.9063 33.4025 60.3634 32.9833 59.5318 32.9833C58.8652 32.9833 58.2742 33.3132 58.1024 33.9386L58.5422 34.1035C58.6934 33.6705 59.0302 33.4163 59.5318 33.4163C60.0129 33.4163 60.4252 33.6637 60.4252 34.2066V34.4402L59.525 34.4883C58.5972 34.5433 58.0681 34.9419 58.0681 35.6154C58.0681 36.2201 58.5148 36.6256 59.202 36.6256C59.7724 36.6256 60.2053 36.3644 60.4252 35.8971H60.4665L60.542 36.5569H60.9406C60.9063 35.9246 60.9063 35.3061 60.9063 34.6739V34.1928ZM59.2776 36.1926C58.8309 36.1926 58.5491 35.9659 58.5491 35.6085C58.5491 35.1549 58.9546 34.9488 59.5799 34.9075L60.4252 34.8457V34.8938C60.4252 35.6222 59.9579 36.1926 59.2776 36.1926Z" fill="#00FF57"/>
<path d="M63.5944 32.9833C63.0652 32.9833 62.646 33.2376 62.4398 33.7118H62.3986L62.323 33.052H61.8557C61.8901 33.6774 61.8901 34.2959 61.8901 34.9213V36.5569H62.3849V34.8869C62.3849 33.7874 63.024 33.4506 63.5944 33.4506C63.67 33.4506 63.7112 33.4506 63.8143 33.4575V32.9902C63.7181 32.9833 63.6631 32.9833 63.5944 32.9833Z" fill="#00FF57"/>
<path d="M65.8743 36.6256C66.1492 36.6256 66.3829 36.5637 66.6303 36.4057L66.4447 36.0483C66.2729 36.1583 66.1217 36.1995 65.943 36.1995C65.6613 36.1995 65.462 36.0277 65.462 35.636V33.485H66.5272V33.052H65.462V32.1106H65.1527L65.0016 33.052H64.2731V33.485H64.9672V35.6566C64.9672 36.2888 65.3314 36.6256 65.8743 36.6256Z" fill="#00FF57"/>
<path d="M71.0901 36.6256C71.8666 36.6256 72.6226 36.2407 72.9799 35.2649L72.5195 35.0862C72.2309 35.8765 71.7223 36.1789 71.0901 36.1789C70.1349 36.1789 69.482 35.4161 69.482 34.1516C69.482 32.8871 70.1349 32.1243 71.0901 32.1243C71.7223 32.1243 72.2103 32.4473 72.4851 33.217L72.9456 33.0383C72.6088 32.0762 71.8666 31.6776 71.0901 31.6776C69.8394 31.6776 68.9872 32.6878 68.9872 34.1516C68.9872 35.6154 69.8394 36.6256 71.0901 36.6256Z" fill="#00FF57"/>
<path d="M75.2662 36.6256C76.249 36.6256 76.9087 35.8559 76.9087 34.8045C76.9087 33.753 76.249 32.9833 75.2662 32.9833C74.2835 32.9833 73.6238 33.753 73.6238 34.8045C73.6238 35.8559 74.2835 36.6256 75.2662 36.6256ZM75.2662 36.1789C74.5721 36.1789 74.1186 35.636 74.1186 34.8045C74.1186 33.9729 74.5721 33.43 75.2662 33.43C75.9603 33.43 76.4139 33.9729 76.4139 34.8045C76.4139 35.636 75.9603 36.1789 75.2662 36.1789Z" fill="#00FF57"/>
<path d="M78.2365 36.5569V34.6052C78.2365 33.9592 78.6763 33.4369 79.3498 33.4369C79.9271 33.4369 80.2707 33.7805 80.2707 34.5158V36.5569H80.7586V34.4746C80.7586 33.4713 80.2569 32.9833 79.4391 32.9833C78.9718 32.9833 78.5183 33.2239 78.2846 33.6293H78.2365L78.1747 33.052H77.7074C77.7417 33.6774 77.7417 34.2959 77.7417 34.9213V36.5569H78.2365Z" fill="#00FF57"/>
<path d="M83.0279 36.6256C83.3028 36.6256 83.5365 36.5637 83.7839 36.4057L83.5983 36.0483C83.4265 36.1583 83.2753 36.1995 83.0966 36.1995C82.8149 36.1995 82.6156 36.0277 82.6156 35.636V33.485H83.6808V33.052H82.6156V32.1106H82.3063L82.1552 33.052H81.4267V33.485H82.1208V35.6566C82.1208 36.2888 82.485 36.6256 83.0279 36.6256Z" fill="#00FF57"/>
<path d="M86.2578 32.9833C85.7286 32.9833 85.3094 33.2376 85.1033 33.7118H85.062L84.9864 33.052H84.5191C84.5535 33.6774 84.5535 34.2959 84.5535 34.9213V36.5569H85.0483V34.8869C85.0483 33.7874 85.6874 33.4506 86.2578 33.4506C86.3334 33.4506 86.3746 33.4506 86.4777 33.4575V32.9902C86.3815 32.9833 86.3265 32.9833 86.2578 32.9833Z" fill="#00FF57"/>
<path d="M89.8177 34.1928C89.8177 33.4025 89.2748 32.9833 88.4433 32.9833C87.7767 32.9833 87.1857 33.3132 87.0139 33.9386L87.4537 34.1035C87.6049 33.6705 87.9416 33.4163 88.4433 33.4163C88.9244 33.4163 89.3367 33.6637 89.3367 34.2066V34.4402L88.4364 34.4883C87.5087 34.5433 86.9795 34.9419 86.9795 35.6154C86.9795 36.2201 87.4262 36.6256 88.1134 36.6256C88.6838 36.6256 89.1168 36.3644 89.3367 35.8971H89.3779L89.4535 36.5569H89.8521C89.8177 35.9246 89.8177 35.3061 89.8177 34.6739V34.1928ZM88.189 36.1926C87.7423 36.1926 87.4606 35.9659 87.4606 35.6085C87.4606 35.1549 87.866 34.9488 88.4914 34.9075L89.3367 34.8457V34.8938C89.3367 35.6222 88.8694 36.1926 88.189 36.1926Z" fill="#00FF57"/>
<path d="M92.2722 36.6256C92.8976 36.6256 93.4954 36.3095 93.7497 35.6085L93.2961 35.4298C93.0762 35.959 92.7189 36.1789 92.2722 36.1789C91.5781 36.1789 91.1245 35.636 91.1245 34.8045C91.1245 33.9729 91.5781 33.43 92.2722 33.43C92.712 33.43 93.0487 33.6431 93.248 34.1791L93.7085 34.0004C93.4679 33.2926 92.9113 32.9833 92.2722 32.9833C91.2895 32.9833 90.6297 33.753 90.6297 34.8045C90.6297 35.8559 91.2895 36.6256 92.2722 36.6256Z" fill="#00FF57"/>
<path d="M95.8663 36.6256C96.1412 36.6256 96.3748 36.5637 96.6222 36.4057L96.4367 36.0483C96.2649 36.1583 96.1137 36.1995 95.935 36.1995C95.6532 36.1995 95.454 36.0277 95.454 35.636V33.485H96.5191V33.052H95.454V32.1106H95.1447L94.9935 33.052H94.2651V33.485H94.9592V35.6566C94.9592 36.2888 95.3234 36.6256 95.8663 36.6256Z" fill="#00FF57"/>
<path d="M102.958 36.5569L101.192 31.7463H100.512L98.7524 36.5569H99.2609L99.6664 35.4161H102.024L102.436 36.5569H102.958ZM100.828 32.1793H100.862L101.872 34.9831H99.8244L100.828 32.1793Z" fill="#00FF57"/>
<path d="M104.156 36.5569V31.7463H103.668V36.5569H104.156Z" fill="#00FF57"/>
<path d="M108.481 36.5569C109.807 36.5569 110.721 35.5948 110.721 34.1516C110.721 32.7084 109.807 31.7463 108.481 31.7463H107.024V36.5569H108.481ZM107.512 32.193H108.481C109.532 32.193 110.233 32.9352 110.233 34.1516C110.233 35.368 109.532 36.1102 108.481 36.1102H107.512V32.193Z" fill="#00FF57"/>
<path d="M114.589 34.722C114.589 33.6087 113.95 32.9833 113.049 32.9833C112.039 32.9833 111.421 33.7805 111.421 34.8045C111.421 35.8284 112.053 36.6256 113.063 36.6256C113.709 36.6256 114.225 36.3301 114.479 35.7322L114.032 35.5604C113.819 36.0071 113.496 36.1926 113.063 36.1926C112.403 36.1926 111.977 35.7185 111.922 34.9763H114.568C114.582 34.9007 114.589 34.8113 114.589 34.722ZM113.049 33.4163C113.647 33.4163 114.06 33.8423 114.101 34.5571H111.929C112.005 33.863 112.417 33.4163 113.049 33.4163Z" fill="#00FF57"/>
<path d="M118.414 34.722C118.414 33.6087 117.775 32.9833 116.875 32.9833C115.865 32.9833 115.246 33.7805 115.246 34.8045C115.246 35.8284 115.878 36.6256 116.889 36.6256C117.535 36.6256 118.05 36.3301 118.304 35.7322L117.858 35.5604C117.644 36.0071 117.321 36.1926 116.889 36.1926C116.229 36.1926 115.803 35.7185 115.748 34.9763H118.394C118.407 34.9007 118.414 34.8113 118.414 34.722ZM116.875 33.4163C117.473 33.4163 117.885 33.8423 117.926 34.5571H115.755C115.83 33.863 116.243 33.4163 116.875 33.4163Z" fill="#00FF57"/>
<path d="M119.738 37.9313V35.9727H119.779C120.027 36.3782 120.405 36.6256 120.954 36.6256C121.855 36.6256 122.453 35.8834 122.453 34.8045C122.453 33.7255 121.855 32.9833 120.954 32.9833C120.405 32.9833 120.027 33.2307 119.779 33.6362H119.738L119.669 33.052H119.209C119.243 33.6774 119.243 34.2959 119.243 34.9213V37.9313H119.738ZM120.844 36.1789C120.171 36.1789 119.738 35.636 119.738 34.8045C119.738 33.9798 120.171 33.43 120.844 33.43C121.525 33.43 121.965 33.9798 121.965 34.8045C121.965 35.636 121.525 36.1789 120.844 36.1789Z" fill="#00FF57"/>
<path d="M128.85 36.5569L127.083 31.7463H126.403L124.644 36.5569H125.152L125.558 35.4161H127.915L128.327 36.5569H128.85ZM126.719 32.1793H126.754L127.764 34.9831H125.716L126.719 32.1793Z" fill="#00FF57"/>
<path d="M129.986 36.5569V34.6052C129.986 33.9592 130.426 33.4369 131.099 33.4369C131.676 33.4369 132.02 33.7805 132.02 34.5158V36.5569H132.508V34.4746C132.508 33.4713 132.006 32.9833 131.189 32.9833C130.721 32.9833 130.268 33.2239 130.034 33.6293H129.986L129.924 33.052H129.457C129.491 33.6774 129.491 34.2959 129.491 34.9213V36.5569H129.986Z" fill="#00FF57"/>
<path d="M136.171 34.1928C136.171 33.4025 135.628 32.9833 134.797 32.9833C134.13 32.9833 133.539 33.3132 133.368 33.9386L133.807 34.1035C133.959 33.6705 134.295 33.4163 134.797 33.4163C135.278 33.4163 135.69 33.6637 135.69 34.2066V34.4402L134.79 34.4883C133.862 34.5433 133.333 34.9419 133.333 35.6154C133.333 36.2201 133.78 36.6256 134.467 36.6256C135.037 36.6256 135.47 36.3644 135.69 35.8971H135.732L135.807 36.5569H136.206C136.171 35.9246 136.171 35.3061 136.171 34.6739V34.1928ZM134.543 36.1926C134.096 36.1926 133.814 35.9659 133.814 35.6085C133.814 35.1549 134.22 34.9488 134.845 34.9075L135.69 34.8457V34.8938C135.69 35.6222 135.223 36.1926 134.543 36.1926Z" fill="#00FF57"/>
<path d="M137.65 36.5569V31.7463H137.155V36.5569H137.65Z" fill="#00FF57"/>
<path d="M139.628 37.9313L141.531 33.052H141.016L139.93 36.0071H139.903L138.817 33.052H138.288L139.655 36.5912L139.119 37.9313H139.628Z" fill="#00FF57"/>
<path d="M143.406 36.6256C144.134 36.6256 144.663 36.2545 144.663 35.6497C144.663 34.2684 142.547 34.8319 142.547 33.9248C142.547 33.6293 142.794 33.3888 143.282 33.3888C143.688 33.3888 144.017 33.5881 144.148 33.966L144.574 33.808C144.402 33.2788 143.901 32.9833 143.282 32.9833C142.561 32.9833 142.066 33.3682 142.066 33.9248C142.066 35.3061 144.182 34.7357 144.182 35.6497C144.182 35.9933 143.908 36.2201 143.406 36.2201C142.939 36.2201 142.533 35.9865 142.403 35.5741L141.976 35.7322C142.162 36.3232 142.732 36.6256 143.406 36.6256Z" fill="#00FF57"/>
<path d="M145.738 32.5298C145.964 32.5298 146.143 32.3648 146.143 32.138C146.143 31.9113 145.964 31.7395 145.738 31.7395C145.511 31.7395 145.332 31.9113 145.332 32.138C145.332 32.3648 145.511 32.5298 145.738 32.5298ZM145.992 36.5569V33.052H145.497V36.5569H145.992Z" fill="#00FF57"/>
<path d="M148.251 36.6256C148.98 36.6256 149.509 36.2545 149.509 35.6497C149.509 34.2684 147.392 34.8319 147.392 33.9248C147.392 33.6293 147.64 33.3888 148.128 33.3888C148.533 33.3888 148.863 33.5881 148.993 33.966L149.42 33.808C149.248 33.2788 148.746 32.9833 148.128 32.9833C147.406 32.9833 146.911 33.3682 146.911 33.9248C146.911 35.3061 149.028 34.7357 149.028 35.6497C149.028 35.9933 148.753 36.2201 148.251 36.2201C147.784 36.2201 147.379 35.9865 147.248 35.5741L146.822 35.7322C147.007 36.3232 147.578 36.6256 148.251 36.6256Z" fill="#00FF57"/>
<path d="M154.761 34.1928C154.761 33.4025 154.218 32.9833 153.387 32.9833C152.72 32.9833 152.129 33.3132 151.957 33.9386L152.397 34.1035C152.548 33.6705 152.885 33.4163 153.387 33.4163C153.868 33.4163 154.28 33.6637 154.28 34.2066V34.4402L153.38 34.4883C152.452 34.5433 151.923 34.9419 151.923 35.6154C151.923 36.2201 152.37 36.6256 153.057 36.6256C153.627 36.6256 154.06 36.3644 154.28 35.8971H154.321L154.397 36.5569H154.796C154.761 35.9246 154.761 35.3061 154.761 34.6739V34.1928ZM153.132 36.1926C152.686 36.1926 152.404 35.9659 152.404 35.6085C152.404 35.1549 152.809 34.9488 153.435 34.9075L154.28 34.8457V34.8938C154.28 35.6222 153.813 36.1926 153.132 36.1926Z" fill="#00FF57"/>
<path d="M156.24 36.5569V34.6052C156.24 33.9592 156.68 33.4369 157.353 33.4369C157.93 33.4369 158.274 33.7805 158.274 34.5158V36.5569H158.762V34.4746C158.762 33.4713 158.26 32.9833 157.442 32.9833C156.975 32.9833 156.522 33.2239 156.288 33.6293H156.24L156.178 33.052H155.711C155.745 33.6774 155.745 34.2959 155.745 34.9213V36.5569H156.24Z" fill="#00FF57"/>
<path d="M161.065 36.6256C161.607 36.6256 161.992 36.3782 162.233 35.9727H162.281L162.343 36.5569H162.803C162.769 35.9315 162.769 35.313 162.769 34.6876V31.7463H162.281V33.6362H162.233C161.992 33.2307 161.607 32.9833 161.065 32.9833C160.157 32.9833 159.56 33.7255 159.56 34.8045C159.56 35.8834 160.157 36.6256 161.065 36.6256ZM161.168 36.1789C160.487 36.1789 160.054 35.636 160.054 34.8045C160.054 33.9798 160.487 33.43 161.168 33.43C161.841 33.43 162.281 33.9798 162.281 34.8045C162.281 35.636 161.841 36.1789 161.168 36.1789Z" fill="#00FF57"/>
<path d="M166.025 36.5569V32.2892H166.053L167.633 36.5569H168.169L169.757 32.2892H169.778V36.5569H170.272V31.7463H169.496L167.915 36.0208L166.335 31.7463H165.565V36.5569H166.025Z" fill="#00FF57"/>
<path d="M172.806 36.6256C173.788 36.6256 174.448 35.8559 174.448 34.8045C174.448 33.753 173.788 32.9833 172.806 32.9833C171.823 32.9833 171.163 33.753 171.163 34.8045C171.163 35.8559 171.823 36.6256 172.806 36.6256ZM172.806 36.1789C172.111 36.1789 171.658 35.636 171.658 34.8045C171.658 33.9729 172.111 33.43 172.806 33.43C173.5 33.43 173.953 33.9729 173.953 34.8045C173.953 35.636 173.5 36.1789 172.806 36.1789Z" fill="#00FF57"/>
<path d="M175.776 36.5569V34.6052C175.776 33.9592 176.216 33.4369 176.889 33.4369C177.466 33.4369 177.81 33.7805 177.81 34.5158V36.5569H178.298V34.4746C178.298 33.4713 177.796 32.9833 176.978 32.9833C176.511 32.9833 176.058 33.2239 175.824 33.6293H175.776L175.714 33.052H175.247C175.281 33.6774 175.281 34.2959 175.281 34.9213V36.5569H175.776Z" fill="#00FF57"/>
<path d="M179.508 32.5298C179.735 32.5298 179.913 32.3648 179.913 32.138C179.913 31.9113 179.735 31.7395 179.508 31.7395C179.281 31.7395 179.102 31.9113 179.102 32.138C179.102 32.3648 179.281 32.5298 179.508 32.5298ZM179.762 36.5569V33.052H179.267V36.5569H179.762Z" fill="#00FF57"/>
<path d="M182.104 36.6256C182.379 36.6256 182.613 36.5637 182.86 36.4057L182.674 36.0483C182.503 36.1583 182.351 36.1995 182.173 36.1995C181.891 36.1995 181.692 36.0277 181.692 35.636V33.485H182.757V33.052H181.692V32.1106H181.382L181.231 33.052H180.503V33.485H181.197V35.6566C181.197 36.2888 181.561 36.6256 182.104 36.6256Z" fill="#00FF57"/>
<path d="M185.013 36.6256C185.996 36.6256 186.656 35.8559 186.656 34.8045C186.656 33.753 185.996 32.9833 185.013 32.9833C184.03 32.9833 183.371 33.753 183.371 34.8045C183.371 35.8559 184.03 36.6256 185.013 36.6256ZM185.013 36.1789C184.319 36.1789 183.865 35.636 183.865 34.8045C183.865 33.9729 184.319 33.43 185.013 33.43C185.707 33.43 186.161 33.9729 186.161 34.8045C186.161 35.636 185.707 36.1789 185.013 36.1789Z" fill="#00FF57"/>
<path d="M189.193 32.9833C188.664 32.9833 188.244 33.2376 188.038 33.7118H187.997L187.921 33.052H187.454C187.489 33.6774 187.489 34.2959 187.489 34.9213V36.5569H187.983V34.8869C187.983 33.7874 188.622 33.4506 189.193 33.4506C189.268 33.4506 189.31 33.4506 189.413 33.4575V32.9902C189.317 32.9833 189.262 32.9833 189.193 32.9833Z" fill="#00FF57"/>
<path d="M190.346 32.5298C190.573 32.5298 190.752 32.3648 190.752 32.138C190.752 31.9113 190.573 31.7395 190.346 31.7395C190.12 31.7395 189.941 31.9113 189.941 32.138C189.941 32.3648 190.12 32.5298 190.346 32.5298ZM190.601 36.5569V33.052H190.106V36.5569H190.601Z" fill="#00FF57"/>
<path d="M192.097 36.5569V34.6052C192.097 33.9592 192.537 33.4369 193.211 33.4369C193.788 33.4369 194.131 33.7805 194.131 34.5158V36.5569H194.619V34.4746C194.619 33.4713 194.118 32.9833 193.3 32.9833C192.833 32.9833 192.379 33.2239 192.145 33.6293H192.097L192.035 33.052H191.568C191.602 33.6774 191.602 34.2959 191.602 34.9213V36.5569H192.097Z" fill="#00FF57"/>
<path d="M197.135 38C198.09 38 198.626 37.4296 198.626 36.6393V34.8938C198.626 34.2753 198.626 33.6774 198.661 33.052H198.2L198.138 33.6362H198.09C197.85 33.2307 197.465 32.9833 196.915 32.9833C196.015 32.9833 195.417 33.698 195.417 34.7357C195.417 35.7734 196.015 36.4881 196.915 36.4881C197.465 36.4881 197.85 36.2407 198.09 35.8353H198.138V36.6187C198.138 37.2166 197.74 37.5671 197.135 37.5671C196.592 37.5671 196.194 37.3678 196.036 36.9073L195.575 37.0791C195.809 37.6976 196.407 38 197.135 38ZM197.025 36.0414C196.352 36.0414 195.912 35.5192 195.912 34.7357C195.912 33.9523 196.352 33.43 197.025 33.43C197.705 33.43 198.138 33.9523 198.138 34.7357C198.138 35.5123 197.705 36.0414 197.025 36.0414Z" fill="#00FF57"/>
<path d="M196.284 11.6452C197.838 11.6452 198.9 10.38 198.9 8.83381C198.9 7.27976 197.838 6.02246 196.284 6.02246C194.722 6.02246 193.66 7.27976 193.66 8.83381C193.66 10.38 194.722 11.6452 196.284 11.6452ZM196.284 11.2859C194.956 11.2859 194.058 10.1926 194.058 8.83381C194.058 7.46718 194.956 6.38169 196.284 6.38169C197.604 6.38169 198.502 7.46718 198.502 8.83381C198.502 10.1926 197.612 11.2859 196.284 11.2859ZM195.753 10.2004V9.09151H196.362L196.94 10.2004H197.393L196.784 9.09932V9.04466C197.127 8.94314 197.331 8.67762 197.331 8.28716C197.331 7.76393 196.971 7.46718 196.432 7.46718H195.347V10.2004H195.753ZM195.753 7.81079H196.409C196.721 7.81079 196.924 7.98259 196.924 8.28716C196.924 8.60734 196.721 8.76352 196.409 8.76352H195.753V7.81079Z" fill="#00FF57"/>
<path d="M4.65491 24.0434C4.21696 24.7738 3.75097 25.4881 3.34239 26.2332C2.80297 27.1759 2.33564 28.1799 2.04457 29.2428C1.89903 29.7448 1.8109 30.2615 1.8109 30.7943C1.8109 32.0254 2.45314 32.8318 3.6041 33.0895C4.1729 33.211 4.72701 33.211 5.29581 33.1496C6.91409 32.9667 8.43089 32.4046 9.91832 31.7663C9.93301 31.7663 9.9477 31.7503 9.9477 31.7503C5.89399 27.8728 3.90986 23.0848 4.33312 17.338C4.68295 12.61 6.65239 8.65644 10.1226 5.60147C14.0602 2.13526 18.6533 0.857459 23.7138 1.80012C28.7889 2.75747 32.5662 5.72298 35.2059 10.3148C35.469 9.90487 35.7307 9.47893 35.979 9.06769C36.5625 8.07963 37.0873 7.06086 37.4518 5.96599C37.6561 5.35846 37.8016 4.74961 37.8016 4.11137C37.8163 3.44243 37.6707 2.81889 37.1887 2.33287C36.8242 1.96836 36.3569 1.78543 35.8615 1.69464C35.1472 1.57313 34.4475 1.63322 33.7319 1.75606C32.2444 2.01509 30.8304 2.56119 29.4445 3.17005C29.3136 3.23147 29.1961 3.27687 29.0653 3.32226C29.2549 3.21545 29.4445 3.12465 29.6488 3.01783C31.0494 2.3035 32.4634 1.66526 33.9361 1.1472C34.8401 0.828084 35.7587 0.569052 36.7067 0.432861C37.4651 0.311356 38.2382 0.265959 38.9966 0.418173C39.5654 0.539678 40.0902 0.753312 40.4987 1.20862C40.922 1.67995 41.1557 2.24208 41.2424 2.88164C41.3439 3.7482 41.1837 4.58404 40.922 5.39051C40.5722 6.5161 40.0474 7.56424 39.4786 8.58301C38.5894 10.1799 37.5679 11.6994 36.5038 13.1895C36.4597 13.2656 36.445 13.311 36.4744 13.4018C36.8389 14.5274 37.0726 15.6823 37.1887 16.868C37.3049 17.9776 37.3196 19.0871 37.2181 20.2127C37.0432 22.4172 36.4744 24.5001 35.5117 26.4762C34.6665 28.224 33.5583 29.7755 32.2164 31.1281C30.992 32.3592 29.6354 33.3632 28.1186 34.1377C26.5871 34.9281 24.9982 35.4609 23.3065 35.7346C22.2998 35.9015 21.2797 35.9629 20.2435 35.9322C17.5451 35.8414 15.0082 35.0963 12.6609 33.7131C12.53 33.637 12.4272 33.637 12.2963 33.7131C10.7355 34.5195 9.14657 35.2339 7.48423 35.7813C6.59497 36.0697 5.69103 36.3127 4.77107 36.4503C3.93923 36.5718 3.10873 36.6172 2.29158 36.4356C1.67872 36.2994 1.10992 36.055 0.658613 35.569C0.2941 35.1738 0.1045 34.7025 0.0310628 34.155C-0.0704135 33.3192 0.0898122 32.498 0.322139 31.7076C0.671965 30.5219 1.21139 29.427 1.80957 28.3629C2.64141 26.8728 3.61745 25.4735 4.63889 24.1209C4.6242 24.0755 4.63889 24.0595 4.65357 24.0448L4.65491 24.0434ZM15.9428 28.4523C16.0162 28.4069 16.059 28.3922 16.0883 28.3615C18.9898 26.4909 21.7323 24.3933 24.3426 22.1274C26.5738 20.1967 28.7181 18.1445 30.7156 15.94C31.8092 14.7383 32.8586 13.4926 33.8507 12.1854C33.9241 12.0946 33.9241 12.0332 33.8801 11.9424C33.0776 10.24 31.9988 8.74991 30.6569 7.47211C29.9132 6.75777 29.1254 6.08883 28.1921 5.63218C26.0918 4.58271 23.9047 4.30899 21.6295 4.85642C19.7041 5.31307 18.0711 6.31581 16.6571 7.7298C15.4902 8.88476 14.6009 10.2534 13.916 11.7581C13.0708 13.6435 12.6181 15.6196 12.53 17.6878C12.4713 19.0404 12.5594 20.3783 12.8211 21.7015C13.215 23.7083 13.9587 25.5789 15.0963 27.2506C15.3446 27.6605 15.6504 28.0411 15.9415 28.4523H15.9428ZM18.2033 30.4899C18.218 30.5045 18.2327 30.5206 18.2621 30.5353C20.2449 31.9038 22.4333 32.5114 24.81 32.2831C26.1225 32.1615 27.3469 31.7503 28.5138 31.1121C29.9425 30.3216 31.1389 29.2575 32.1456 27.9343C34.2019 25.2278 35.1499 22.1114 35.2233 18.6906C35.238 17.7172 35.1645 16.7291 35.019 15.7718C34.9896 15.6196 34.9603 15.4834 34.9322 15.3005C34.8882 15.3619 34.8441 15.4073 34.8147 15.4367C33.8373 16.6984 32.8026 17.9148 31.6943 19.0551C31.1696 19.5878 30.6302 20.1046 30.1188 20.652C29.1561 21.6561 28.1787 22.6281 27.1733 23.5868C25.8461 24.8179 24.4615 25.9742 23.0168 27.053C21.9232 27.8742 20.8297 28.6793 19.7361 29.4711C19.2261 29.8356 18.7147 30.1547 18.2047 30.4899H18.2033Z" fill="#00FF57"/>
<path opacity="0.2" d="M12.998 22.4932C13.0661 22.7696 13.1423 23.0433 13.225 23.3143H22.9414C23.2685 23.0433 23.593 22.7696 23.9161 22.4932H12.9994H12.998Z" fill="white"/>
<path opacity="0.2" d="M14.0684 25.4695C14.2032 25.7472 14.3461 26.0209 14.4983 26.2906H19.1101C19.4826 26.0209 19.8538 25.7472 20.221 25.4695H14.0684Z" fill="white"/>
<path opacity="0.2" d="M13.4453 23.9822C13.5441 24.2599 13.6509 24.5323 13.7658 24.8033H21.0907C21.4379 24.5323 21.7837 24.2599 22.1269 23.9822H13.4466H13.4453Z" fill="white"/>
<path opacity="0.2" d="M13.7794 12.0747C13.6646 12.3458 13.5578 12.6195 13.459 12.8959H33.2989C33.4845 12.6609 33.6701 12.4245 33.8517 12.1855C33.8851 12.1441 33.9011 12.1094 33.9064 12.076H13.7794V12.0747Z" fill="white"/>
<path opacity="0.2" d="M12.7006 21.0046C12.7366 21.237 12.7753 21.4693 12.8207 21.7016C12.8287 21.743 12.8381 21.7844 12.8461 21.8258H24.6854C24.9952 21.5547 25.3036 21.281 25.6094 21.0046H12.6992H12.7006Z" fill="white"/>
<path opacity="0.2" d="M14.9023 26.9581C14.9651 27.0569 15.0305 27.1544 15.0959 27.2505C15.2041 27.4308 15.3256 27.6044 15.4511 27.7779H16.9719C17.3752 27.5082 17.7771 27.2358 18.175 26.9568H14.9037L14.9023 26.9581Z" fill="white"/>
<path opacity="0.2" d="M16.6573 7.7299C16.4304 7.95422 16.2167 8.18922 16.0098 8.42955H31.5784C31.3287 8.14649 31.067 7.87411 30.7959 7.6084H16.7815C16.7401 7.64845 16.6987 7.68851 16.6573 7.72857V7.7299Z" fill="white"/>
<path opacity="0.2" d="M12.5196 18.0284C12.513 18.3022 12.5116 18.5759 12.517 18.8496H27.908C28.1857 18.5786 28.4594 18.3048 28.7331 18.0284H12.5196Z" fill="white"/>
<path opacity="0.2" d="M15.9541 28.4468H15.9395C15.9395 28.4468 15.9424 28.4512 15.9438 28.4526C15.9482 28.4497 15.9512 28.4482 15.9541 28.4468Z" fill="white"/>
<path opacity="0.2" d="M14.5099 10.5859C14.3604 10.8543 14.2188 11.128 14.084 11.4071H33.6142C33.4686 11.1267 33.3151 10.8543 33.1548 10.5859H14.5099Z" fill="white"/>
<path opacity="0.2" d="M15.4729 9.09863C15.2753 9.36434 15.0897 9.63939 14.9121 9.91979H32.7279C32.5383 9.63939 32.3407 9.36568 32.1324 9.09863H15.4729Z" fill="white"/>
<path opacity="0.2" d="M12.5449 19.5157C12.5609 19.7895 12.5836 20.0632 12.6144 20.3369H26.3444C26.6381 20.0659 26.9292 19.7921 27.2189 19.5157H12.5463H12.5449Z" fill="white"/>
<path opacity="0.2" d="M22.9265 4.63208C22.4979 4.67748 22.0653 4.75091 21.63 4.8564C21.0185 5.00193 20.4363 5.20222 19.8809 5.45324H27.8174C26.8453 5.01262 25.8546 4.7389 24.8452 4.63208H22.9265Z" fill="white"/>
<path opacity="0.2" d="M18.6457 6.12085C18.2572 6.36786 17.8833 6.64292 17.5215 6.94201H30.0832C29.748 6.64692 29.3995 6.3692 29.0297 6.12085H18.6457Z" fill="white"/>
<path opacity="0.2" d="M12.6183 16.5396C12.5875 16.8119 12.5649 17.0857 12.5488 17.3607H29.3872C29.6476 17.0897 29.9066 16.8159 30.163 16.5396H12.6183Z" fill="white"/>
<path opacity="0.2" d="M12.8526 15.0508C12.7965 15.3232 12.7484 15.5969 12.707 15.8719H30.7778C31.0235 15.6009 31.2692 15.3272 31.5108 15.0508H12.8526Z" fill="white"/>
<path opacity="0.2" d="M13.2336 13.5635C13.1494 13.8359 13.0733 14.1096 13.0039 14.3846H32.0801C32.3098 14.1136 32.5367 13.8399 32.7611 13.5635H13.2336Z" fill="white"/>
<path opacity="0.2" d="M21.136 28.4456C20.7608 28.7206 20.3856 28.9943 20.0117 29.2667H30.9738C31.2369 29.0063 31.4906 28.734 31.7322 28.4456H21.136Z" fill="white"/>
<path opacity="0.2" d="M23.1373 26.9569C23.0959 26.9876 23.0545 27.021 23.0132 27.0517C22.6874 27.296 22.3629 27.5364 22.0371 27.7767H32.2555C32.4558 27.507 32.6454 27.2333 32.823 26.9556H23.136L23.1373 26.9569Z" fill="white"/>
<path opacity="0.2" d="M31.8861 18.8478H35.2135C35.2148 18.7957 35.2188 18.7436 35.2188 18.6902C35.2215 18.4699 35.2201 18.2483 35.2148 18.0266H32.6485C32.3975 18.3043 32.1438 18.5781 31.8848 18.8478H31.8861Z" fill="white"/>
<path opacity="0.2" d="M25.0226 25.468C24.6874 25.7457 24.3496 26.0195 24.0078 26.2892H33.2288C33.3823 26.0195 33.5252 25.7457 33.6601 25.468H25.0226Z" fill="white"/>
<path opacity="0.2" d="M19.7969 31.4218C20.6835 31.8383 21.6061 32.1134 22.5634 32.2429H25.1337C26.0964 32.1174 27.0124 31.8357 27.8936 31.4218H19.7969Z" fill="white"/>
<path opacity="0.2" d="M19.0517 29.9344C18.7686 30.1214 18.4842 30.303 18.2012 30.4886C18.2159 30.5032 18.2305 30.5193 18.2599 30.534C18.3707 30.6101 18.4816 30.6835 18.5937 30.7543H29.1099C29.5038 30.5032 29.8763 30.2295 30.2328 29.9331H19.053L19.0517 29.9344Z" fill="white"/>
<path opacity="0.2" d="M29.7733 21.0032C29.5062 21.2782 29.2378 21.5519 28.9668 21.8243H34.8818C34.9365 21.5533 34.9819 21.2796 35.0233 21.0032H29.7733Z" fill="white"/>
<path opacity="0.2" d="M34.9288 15.3003C34.8847 15.3617 34.8407 15.4071 34.8113 15.4365C34.6978 15.582 34.5816 15.7262 34.4668 15.8704H35.0289C35.0236 15.837 35.0196 15.8037 35.0142 15.7716C34.9849 15.6194 34.9555 15.4832 34.9274 15.3003H34.9288Z" fill="white"/>
<path opacity="0.2" d="M33.9305 16.5382C33.7036 16.8146 33.4739 17.0883 33.2402 17.3594H35.1856C35.1683 17.0856 35.1456 16.8106 35.1149 16.5382H33.9292H33.9305Z" fill="white"/>
<path opacity="0.2" d="M26.7333 23.9805C26.4275 24.2582 26.1191 24.5319 25.8066 24.8016H33.9648C34.0796 24.5306 34.1864 24.2569 34.2852 23.9805H26.7333Z" fill="white"/>
<path opacity="0.2" d="M28.297 22.4917C28.0179 22.7668 27.7362 23.0405 27.4531 23.3129H34.5057C34.5885 23.0418 34.6646 22.7681 34.7327 22.4917H28.297Z" fill="white"/>
<path opacity="0.2" d="M31.2305 19.5155C30.9568 19.7879 30.6844 20.0589 30.416 20.3367H35.1093C35.1387 20.0656 35.1627 19.7919 35.1814 19.5155H31.2305Z" fill="white"/>
</svg>
