<svg width="326" height="62" viewBox="0 0 326 62" fill="none" xmlns="http://www.w3.org/2000/svg">
<path d="M94.9057 34.1268C103.532 34.1268 108.225 30.1453 108.225 24.6471C108.225 10.949 89.5023 15.594 89.5023 9.33746C89.5023 7.48893 91.256 6.16177 94.0051 6.16177C96.612 6.16177 98.6976 7.29933 99.5507 9.95364L107.419 8.2473C105.76 2.6543 100.783 0 93.9577 0C85.8526 0 81.1602 4.02886 81.1602 9.33746C81.1602 22.7986 99.9299 18.2483 99.9299 24.5049C99.9299 26.5904 98.1288 27.965 94.9057 27.965C92.0144 27.965 89.3127 26.78 88.1751 23.6991L80.4492 25.4055C82.0608 31.4251 88.1751 34.1268 94.9057 34.1268Z" fill="#00FF57"/>
<path d="M120.744 33.6528V20.8552C120.744 17.8691 122.356 15.831 124.915 15.831C127.095 15.831 128.375 17.253 128.375 20.0969V33.6528H136.385V20.8552C136.385 17.8691 137.997 15.831 140.557 15.831C142.737 15.831 144.017 17.253 144.017 20.0969V33.6528H152.027V18.0113C152.027 12.1814 149.278 9.00567 144.396 9.00567C141.078 9.00567 138.139 10.4276 136.338 13.7455H135.864C134.537 10.6646 132.167 9.00567 128.754 9.00567C125.531 9.00567 122.924 10.3802 121.076 13.0819H120.649L120.175 9.47965H112.497C112.734 13.7929 112.734 18.0587 112.734 22.372V33.6528H120.744Z" fill="#00FF57"/>
<path d="M180.105 17.8218C180.105 12.3709 176.123 9.00567 168.397 9.00567C161.951 9.00567 157.78 11.7548 156.974 16.305L163.989 17.8692C164.463 15.7836 166.028 14.6461 168.397 14.6461C170.625 14.6461 172.379 15.6414 172.379 18.1535V18.8645L166.596 19.1963C159.961 19.5755 156.69 22.2772 156.69 27.017C156.69 31.2829 159.771 34.1268 164.416 34.1268C168.208 34.1268 170.578 32.6574 172.095 29.7187H172.521L173.09 33.6528H180.342C180.105 29.4343 180.105 25.3107 180.105 21.1396V17.8218ZM167.402 28.3916C165.411 28.3916 164.369 27.4436 164.369 25.9743C164.369 24.1731 165.648 23.4147 168.54 23.2252L172.379 22.9882C172.284 26.4482 170.056 28.3916 167.402 28.3916Z" fill="#00FF57"/>
<path d="M200.947 9.00567C197.961 9.00567 195.544 10.8068 194.311 14.5987H193.743L193.032 9.47965H185.353C185.59 13.7929 185.59 18.0587 185.59 22.372V33.6528H193.6V24.7893C193.6 18.8645 196.918 16.9686 200.568 16.9686C201.279 16.9686 201.658 16.9686 202.416 17.0634V9.05307C201.848 9.00567 201.421 9.00567 200.947 9.00567Z" fill="#00FF57"/>
<path d="M217.705 34.1268C220.217 34.1268 222.018 33.6528 224.009 32.5626L222.302 27.017C221.449 27.491 220.596 27.728 219.743 27.728C218.179 27.728 217.088 26.8748 217.088 24.7893V15.7362H223.155V9.47965H217.088V2.46471H210.5L209.41 9.47965H204.48V15.7362H209.078V25.2633C209.078 31.4251 212.538 34.1268 217.705 34.1268Z" fill="#00FF57"/>
<path d="M241.776 34.1268C250.402 34.1268 255.094 30.1453 255.094 24.6471C255.094 10.949 236.372 15.594 236.372 9.33746C236.372 7.48893 238.126 6.16177 240.875 6.16177C243.482 6.16177 245.567 7.29933 246.421 9.95364L254.289 8.2473C252.63 2.6543 247.653 0 240.828 0C232.722 0 228.03 4.02886 228.03 9.33746C228.03 22.7986 246.8 18.2483 246.8 24.5049C246.8 26.5904 244.999 27.965 241.776 27.965C238.884 27.965 236.183 26.78 235.045 23.6991L227.319 25.4055C228.931 31.4251 235.045 34.1268 241.776 34.1268Z" fill="#00FF57"/>
<path d="M267.614 43.1324V29.8135H268.04C269.652 32.5626 272.212 34.1268 275.482 34.1268C281.407 34.1268 285.009 29.4817 285.009 21.5662C285.009 13.6507 281.407 9.00567 275.482 9.00567C272.212 9.00567 269.652 10.5698 268.04 13.3189H267.614L267.045 9.47965H259.367C259.604 13.7929 259.604 18.0587 259.604 22.372V43.1324H267.614ZM272.306 27.6332C269.462 27.6332 267.614 25.3107 267.614 21.5662C267.614 17.8218 269.462 15.4992 272.306 15.4992C275.15 15.4992 276.999 17.8218 276.999 21.5662C276.999 25.3107 275.15 27.6332 272.306 27.6332Z" fill="#00FF57"/>
<path d="M301.458 43.1324L313.403 9.47965H305.393L300.51 26.3534H300.084L295.202 9.47965H286.955L296.055 34.8851L292.927 43.1324H301.458Z" fill="#00FF57"/>
<path d="M82.2003 59.7576C83.7588 59.7576 84.8352 58.9727 84.8352 57.6496C84.8352 54.6335 80.1596 55.8108 80.1596 53.6804C80.1596 52.9628 80.7763 52.391 81.9199 52.391C82.7945 52.391 83.613 52.8058 83.927 53.6804L84.6446 53.4113C84.2409 52.2788 83.1982 51.6846 81.9199 51.6846C80.3614 51.6846 79.3523 52.4919 79.3523 53.6804C79.3523 56.6517 84.0391 55.4744 84.0391 57.6496C84.0391 58.4681 83.4112 59.0512 82.2003 59.0512C81.236 59.0512 80.3053 58.6363 79.9129 57.6496L79.1953 57.9299C79.6326 59.1297 80.8323 59.7576 82.2003 59.7576Z" fill="#00FF57"/>
<path d="M86.9938 59.6454V56.3265C86.9938 55.3062 87.6665 54.555 88.5972 54.555C89.4045 54.555 89.8866 55.1156 89.8866 56.192V59.6454H90.6939V56.3265C90.6939 55.3062 91.3666 54.555 92.2973 54.555C93.1046 54.555 93.5867 55.1044 93.5867 56.1696V59.6454H94.394V56.0687C94.394 54.5325 93.6652 53.8149 92.4543 53.8149C91.6021 53.8149 90.9518 54.2298 90.5818 54.925H90.5145C90.1893 54.1962 89.6287 53.8149 88.7541 53.8149C88.059 53.8149 87.4199 54.1737 87.0611 54.8241H86.9826L86.8817 53.9271H86.1304C86.1865 54.9474 86.1865 55.9565 86.1865 56.9769V59.6454H86.9938Z" fill="#00FF57"/>
<path d="M100.371 55.7883C100.371 54.4989 99.485 53.8149 98.1283 53.8149C97.0407 53.8149 96.0764 54.3531 95.7961 55.3735L96.5137 55.6426C96.7604 54.9362 97.3098 54.5213 98.1283 54.5213C98.9132 54.5213 99.5859 54.925 99.5859 55.8108V56.192L98.1171 56.2705C96.6034 56.3602 95.74 57.0105 95.74 58.1093C95.74 59.096 96.4689 59.7576 97.5901 59.7576C98.5207 59.7576 99.2271 59.3315 99.5859 58.569H99.6532L99.7765 59.6454H100.427C100.371 58.6139 100.371 57.6048 100.371 56.5732V55.7883ZM97.7134 59.0512C96.9846 59.0512 96.5249 58.6812 96.5249 58.0981C96.5249 57.3581 97.1865 57.0217 98.2068 56.9544L99.5859 56.8535V56.932C99.5859 58.1205 98.8235 59.0512 97.7134 59.0512Z" fill="#00FF57"/>
<path d="M104.757 53.8149C103.893 53.8149 103.209 54.2298 102.873 55.0035H102.806L102.682 53.9271H101.92C101.976 54.9474 101.976 55.9565 101.976 56.9769V59.6454H102.783V56.9208C102.783 55.1268 103.826 54.5774 104.757 54.5774C104.88 54.5774 104.947 54.5774 105.115 54.5886V53.8262C104.958 53.8149 104.869 53.8149 104.757 53.8149Z" fill="#00FF57"/>
<path d="M108.477 59.7576C108.925 59.7576 109.306 59.6567 109.71 59.3988L109.407 58.8157C109.127 58.9951 108.88 59.0624 108.589 59.0624C108.129 59.0624 107.804 58.7821 107.804 58.143V54.6335H109.542V53.9271H107.804V52.391H107.299L107.053 53.9271H105.864V54.6335H106.997V58.1766C106.997 59.2082 107.591 59.7576 108.477 59.7576Z" fill="#00FF57"/>
<path d="M116.986 59.7576C118.254 59.7576 119.487 59.1297 120.07 57.5375L119.319 57.246C118.848 58.5354 118.018 59.0288 116.986 59.0288C115.428 59.0288 114.363 57.7842 114.363 55.7211C114.363 53.658 115.428 52.4134 116.986 52.4134C118.018 52.4134 118.814 52.9404 119.263 54.1962L120.014 53.9046C119.464 52.3349 118.254 51.6846 116.986 51.6846C114.946 51.6846 113.555 53.3328 113.555 55.7211C113.555 58.1093 114.946 59.7576 116.986 59.7576Z" fill="#00FF57"/>
<path d="M123.8 59.7576C125.404 59.7576 126.48 58.5018 126.48 56.7863C126.48 55.0707 125.404 53.8149 123.8 53.8149C122.197 53.8149 121.12 55.0707 121.12 56.7863C121.12 58.5018 122.197 59.7576 123.8 59.7576ZM123.8 59.0288C122.668 59.0288 121.928 58.143 121.928 56.7863C121.928 55.4295 122.668 54.5438 123.8 54.5438C124.933 54.5438 125.673 55.4295 125.673 56.7863C125.673 58.143 124.933 59.0288 123.8 59.0288Z" fill="#00FF57"/>
<path d="M128.646 59.6454V56.4611C128.646 55.4071 129.364 54.555 130.463 54.555C131.405 54.555 131.965 55.1156 131.965 56.3153V59.6454H132.761V56.2481C132.761 54.611 131.943 53.8149 130.609 53.8149C129.846 53.8149 129.106 54.2074 128.725 54.8689H128.646L128.546 53.9271H127.783C127.839 54.9474 127.839 55.9565 127.839 56.9769V59.6454H128.646Z" fill="#00FF57"/>
<path d="M136.464 59.7576C136.913 59.7576 137.294 59.6567 137.697 59.3988L137.395 58.8157C137.114 58.9951 136.868 59.0624 136.576 59.0624C136.116 59.0624 135.791 58.7821 135.791 58.143V54.6335H137.529V53.9271H135.791V52.391H135.287L135.04 53.9271H133.851V54.6335H134.984V58.1766C134.984 59.2082 135.578 59.7576 136.464 59.7576Z" fill="#00FF57"/>
<path d="M141.734 53.8149C140.87 53.8149 140.186 54.2298 139.85 55.0035H139.783L139.659 53.9271H138.897C138.953 54.9474 138.953 55.9565 138.953 56.9769V59.6454H139.76V56.9208C139.76 55.1268 140.803 54.5774 141.734 54.5774C141.857 54.5774 141.924 54.5774 142.093 54.5886V53.8262C141.936 53.8149 141.846 53.8149 141.734 53.8149Z" fill="#00FF57"/>
<path d="M147.542 55.7883C147.542 54.4989 146.656 53.8149 145.3 53.8149C144.212 53.8149 143.248 54.3531 142.967 55.3735L143.685 55.6426C143.932 54.9362 144.481 54.5213 145.3 54.5213C146.084 54.5213 146.757 54.925 146.757 55.8108V56.192L145.288 56.2705C143.775 56.3602 142.911 57.0105 142.911 58.1093C142.911 59.096 143.64 59.7576 144.761 59.7576C145.692 59.7576 146.398 59.3315 146.757 58.569H146.825L146.948 59.6454H147.598C147.542 58.6139 147.542 57.6048 147.542 56.5732V55.7883ZM144.885 59.0512C144.156 59.0512 143.696 58.6812 143.696 58.0981C143.696 57.3581 144.358 57.0217 145.378 56.9544L146.757 56.8535V56.932C146.757 58.1205 145.995 59.0512 144.885 59.0512Z" fill="#00FF57"/>
<path d="M151.547 59.7576C152.567 59.7576 153.543 59.2418 153.957 58.0981L153.217 57.8066C152.859 58.67 152.276 59.0288 151.547 59.0288C150.414 59.0288 149.674 58.143 149.674 56.7863C149.674 55.4295 150.414 54.5438 151.547 54.5438C152.264 54.5438 152.814 54.8913 153.139 55.7659L153.89 55.4744C153.498 54.3195 152.589 53.8149 151.547 53.8149C149.943 53.8149 148.867 55.0707 148.867 56.7863C148.867 58.5018 149.943 59.7576 151.547 59.7576Z" fill="#00FF57"/>
<path d="M157.411 59.7576C157.859 59.7576 158.241 59.6567 158.644 59.3988L158.341 58.8157C158.061 58.9951 157.814 59.0624 157.523 59.0624C157.063 59.0624 156.738 58.7821 156.738 58.143V54.6335H158.476V53.9271H156.738V52.391H156.233L155.987 53.9271H154.798V54.6335H155.931V58.1766C155.931 59.2082 156.525 59.7576 157.411 59.7576Z" fill="#00FF57"/>
<path d="M168.982 59.6454L166.1 51.7967H164.99L162.12 59.6454H162.949L163.611 57.7842H167.457L168.13 59.6454H168.982ZM165.506 52.5031H165.562L167.21 57.0778H163.869L165.506 52.5031Z" fill="#00FF57"/>
<path d="M170.937 59.6454V51.7967H170.14V59.6454H170.937Z" fill="#00FF57"/>
<path d="M177.992 59.6454C180.156 59.6454 181.648 58.0757 181.648 55.7211C181.648 53.3664 180.156 51.7967 177.992 51.7967H175.615V59.6454H177.992ZM176.411 52.5255H177.992C179.708 52.5255 180.852 53.7365 180.852 55.7211C180.852 57.7057 179.708 58.9166 177.992 58.9166H176.411V52.5255Z" fill="#00FF57"/>
<path d="M187.958 56.6517C187.958 54.8353 186.915 53.8149 185.446 53.8149C183.798 53.8149 182.789 55.1156 182.789 56.7863C182.789 58.4569 183.821 59.7576 185.469 59.7576C186.523 59.7576 187.364 59.2754 187.779 58.2999L187.05 58.0196C186.702 58.7484 186.175 59.0512 185.469 59.0512C184.393 59.0512 183.697 58.2775 183.608 57.0666H187.924C187.947 56.9432 187.958 56.7975 187.958 56.6517ZM185.446 54.5213C186.422 54.5213 187.095 55.2165 187.162 56.3826H183.619C183.742 55.2501 184.415 54.5213 185.446 54.5213Z" fill="#00FF57"/>
<path d="M194.199 56.6517C194.199 54.8353 193.157 53.8149 191.688 53.8149C190.04 53.8149 189.03 55.1156 189.03 56.7863C189.03 58.4569 190.062 59.7576 191.71 59.7576C192.764 59.7576 193.605 59.2754 194.02 58.2999L193.291 58.0196C192.944 58.7484 192.417 59.0512 191.71 59.0512C190.634 59.0512 189.939 58.2775 189.849 57.0666H194.166C194.188 56.9432 194.199 56.7975 194.199 56.6517ZM191.688 54.5213C192.663 54.5213 193.336 55.2165 193.403 56.3826H189.86C189.984 55.2501 190.656 54.5213 191.688 54.5213Z" fill="#00FF57"/>
<path d="M196.359 61.8879V58.6924H196.427C196.83 59.3539 197.447 59.7576 198.344 59.7576C199.813 59.7576 200.788 58.5466 200.788 56.7863C200.788 55.0259 199.813 53.8149 198.344 53.8149C197.447 53.8149 196.83 54.2186 196.427 54.8801H196.359L196.247 53.9271H195.496C195.552 54.9474 195.552 55.9565 195.552 56.9769V61.8879H196.359ZM198.165 59.0288C197.066 59.0288 196.359 58.143 196.359 56.7863C196.359 55.4408 197.066 54.5438 198.165 54.5438C199.275 54.5438 199.992 55.4408 199.992 56.7863C199.992 58.143 199.275 59.0288 198.165 59.0288Z" fill="#00FF57"/>
<path d="M211.226 59.6454L208.344 51.7967H207.234L204.364 59.6454H205.193L205.855 57.7842H209.701L210.374 59.6454H211.226ZM207.75 52.5031H207.806L209.454 57.0778H206.113L207.75 52.5031Z" fill="#00FF57"/>
<path d="M213.08 59.6454V56.4611C213.08 55.4071 213.797 54.555 214.896 54.555C215.838 54.555 216.398 55.1156 216.398 56.3153V59.6454H217.195V56.2481C217.195 54.611 216.376 53.8149 215.042 53.8149C214.279 53.8149 213.539 54.2074 213.158 54.8689H213.08L212.979 53.9271H212.216C212.272 54.9474 212.272 55.9565 212.272 56.9769V59.6454H213.08Z" fill="#00FF57"/>
<path d="M223.172 55.7883C223.172 54.4989 222.286 53.8149 220.929 53.8149C219.842 53.8149 218.877 54.3531 218.597 55.3735L219.315 55.6426C219.561 54.9362 220.111 54.5213 220.929 54.5213C221.714 54.5213 222.387 54.925 222.387 55.8108V56.192L220.918 56.2705C219.404 56.3602 218.541 57.0105 218.541 58.1093C218.541 59.096 219.27 59.7576 220.391 59.7576C221.322 59.7576 222.028 59.3315 222.387 58.569H222.454L222.577 59.6454H223.228C223.172 58.6139 223.172 57.6048 223.172 56.5732V55.7883ZM220.514 59.0512C219.786 59.0512 219.326 58.6812 219.326 58.0981C219.326 57.3581 219.987 57.0217 221.008 56.9544L222.387 56.8535V56.932C222.387 58.1205 221.624 59.0512 220.514 59.0512Z" fill="#00FF57"/>
<path d="M225.584 59.6454V51.7967H224.777V59.6454H225.584Z" fill="#00FF57"/>
<path d="M228.811 61.8879L231.917 53.9271H231.076L229.304 58.7484H229.259L227.488 53.9271H226.624L228.856 59.7015L227.981 61.8879H228.811Z" fill="#00FF57"/>
<path d="M234.975 59.7576C236.164 59.7576 237.027 59.1521 237.027 58.1654C237.027 55.9117 233.574 56.8311 233.574 55.3511C233.574 54.8689 233.977 54.4765 234.773 54.4765C235.435 54.4765 235.973 54.8016 236.186 55.4183L236.881 55.1604C236.601 54.2971 235.783 53.8149 234.773 53.8149C233.596 53.8149 232.789 54.4428 232.789 55.3511C232.789 57.6048 236.242 56.6741 236.242 58.1654C236.242 58.726 235.794 59.096 234.975 59.096C234.213 59.096 233.551 58.7148 233.338 58.0421L232.643 58.2999C232.946 59.2642 233.876 59.7576 234.975 59.7576Z" fill="#00FF57"/>
<path d="M238.78 53.0749C239.15 53.0749 239.441 52.8058 239.441 52.4358C239.441 52.0658 239.15 51.7855 238.78 51.7855C238.41 51.7855 238.118 52.0658 238.118 52.4358C238.118 52.8058 238.41 53.0749 238.78 53.0749ZM239.195 59.6454V53.9271H238.387V59.6454H239.195Z" fill="#00FF57"/>
<path d="M242.881 59.7576C244.07 59.7576 244.933 59.1521 244.933 58.1654C244.933 55.9117 241.479 56.8311 241.479 55.3511C241.479 54.8689 241.883 54.4765 242.679 54.4765C243.341 54.4765 243.879 54.8016 244.092 55.4183L244.787 55.1604C244.507 54.2971 243.688 53.8149 242.679 53.8149C241.502 53.8149 240.695 54.4428 240.695 55.3511C240.695 57.6048 244.148 56.6741 244.148 58.1654C244.148 58.726 243.7 59.096 242.881 59.096C242.119 59.096 241.457 58.7148 241.244 58.0421L240.549 58.2999C240.852 59.2642 241.782 59.7576 242.881 59.7576Z" fill="#00FF57"/>
<path d="M253.502 55.7883C253.502 54.4989 252.617 53.8149 251.26 53.8149C250.172 53.8149 249.208 54.3531 248.928 55.3735L249.645 55.6426C249.892 54.9362 250.441 54.5213 251.26 54.5213C252.045 54.5213 252.717 54.925 252.717 55.8108V56.192L251.249 56.2705C249.735 56.3602 248.872 57.0105 248.872 58.1093C248.872 59.096 249.6 59.7576 250.722 59.7576C251.652 59.7576 252.359 59.3315 252.717 58.569H252.785L252.908 59.6454H253.558C253.502 58.6139 253.502 57.6048 253.502 56.5732V55.7883ZM250.845 59.0512C250.116 59.0512 249.656 58.6812 249.656 58.0981C249.656 57.3581 250.318 57.0217 251.338 56.9544L252.717 56.8535V56.932C252.717 58.1205 251.955 59.0512 250.845 59.0512Z" fill="#00FF57"/>
<path d="M255.915 59.6454V56.4611C255.915 55.4071 256.632 54.555 257.731 54.555C258.673 54.555 259.234 55.1156 259.234 56.3153V59.6454H260.03V56.2481C260.03 54.611 259.211 53.8149 257.877 53.8149C257.115 53.8149 256.375 54.2074 255.993 54.8689H255.915L255.814 53.9271H255.051C255.108 54.9474 255.108 55.9565 255.108 56.9769V59.6454H255.915Z" fill="#00FF57"/>
<path d="M263.787 59.7576C264.673 59.7576 265.301 59.3539 265.693 58.6924H265.771L265.872 59.6454H266.624C266.568 58.6251 266.568 57.616 266.568 56.5956V51.7967H265.771V54.8801H265.693C265.301 54.2186 264.673 53.8149 263.787 53.8149C262.307 53.8149 261.331 55.0259 261.331 56.7863C261.331 58.5466 262.307 59.7576 263.787 59.7576ZM263.955 59.0288C262.845 59.0288 262.139 58.143 262.139 56.7863C262.139 55.4408 262.845 54.5438 263.955 54.5438C265.054 54.5438 265.771 55.4408 265.771 56.7863C265.771 58.143 265.054 59.0288 263.955 59.0288Z" fill="#00FF57"/>
<path d="M271.881 59.6454V52.6825H271.926L274.505 59.6454H275.379L277.969 52.6825H278.003V59.6454H278.81V51.7967H277.543L274.964 58.7709L272.385 51.7967H271.13V59.6454H271.881Z" fill="#00FF57"/>
<path d="M282.943 59.7576C284.547 59.7576 285.623 58.5018 285.623 56.7863C285.623 55.0707 284.547 53.8149 282.943 53.8149C281.34 53.8149 280.263 55.0707 280.263 56.7863C280.263 58.5018 281.34 59.7576 282.943 59.7576ZM282.943 59.0288C281.811 59.0288 281.071 58.143 281.071 56.7863C281.071 55.4295 281.811 54.5438 282.943 54.5438C284.076 54.5438 284.816 55.4295 284.816 56.7863C284.816 58.143 284.076 59.0288 282.943 59.0288Z" fill="#00FF57"/>
<path d="M287.789 59.6454V56.4611C287.789 55.4071 288.507 54.555 289.606 54.555C290.548 54.555 291.108 55.1156 291.108 56.3153V59.6454H291.904V56.2481C291.904 54.611 291.086 53.8149 289.752 53.8149C288.989 53.8149 288.249 54.2074 287.868 54.8689H287.789L287.688 53.9271H286.926C286.982 54.9474 286.982 55.9565 286.982 56.9769V59.6454H287.789Z" fill="#00FF57"/>
<path d="M293.879 53.0749C294.249 53.0749 294.54 52.8058 294.54 52.4358C294.54 52.0658 294.249 51.7855 293.879 51.7855C293.509 51.7855 293.217 52.0658 293.217 52.4358C293.217 52.8058 293.509 53.0749 293.879 53.0749ZM294.294 59.6454V53.9271H293.486V59.6454H294.294Z" fill="#00FF57"/>
<path d="M298.114 59.7576C298.563 59.7576 298.944 59.6567 299.348 59.3988L299.045 58.8157C298.765 58.9951 298.518 59.0624 298.227 59.0624C297.767 59.0624 297.442 58.7821 297.442 58.143V54.6335H299.18V53.9271H297.442V52.391H296.937L296.69 53.9271H295.502V54.6335H296.634V58.1766C296.634 59.2082 297.229 59.7576 298.114 59.7576Z" fill="#00FF57"/>
<path d="M302.861 59.7576C304.464 59.7576 305.54 58.5018 305.54 56.7863C305.54 55.0707 304.464 53.8149 302.861 53.8149C301.257 53.8149 300.181 55.0707 300.181 56.7863C300.181 58.5018 301.257 59.7576 302.861 59.7576ZM302.861 59.0288C301.728 59.0288 300.988 58.143 300.988 56.7863C300.988 55.4295 301.728 54.5438 302.861 54.5438C303.993 54.5438 304.733 55.4295 304.733 56.7863C304.733 58.143 303.993 59.0288 302.861 59.0288Z" fill="#00FF57"/>
<path d="M309.68 53.8149C308.817 53.8149 308.133 54.2298 307.797 55.0035H307.729L307.606 53.9271H306.844C306.9 54.9474 306.9 55.9565 306.9 56.9769V59.6454H307.707V56.9208C307.707 55.1268 308.75 54.5774 309.68 54.5774C309.804 54.5774 309.871 54.5774 310.039 54.5886V53.8262C309.882 53.8149 309.792 53.8149 309.68 53.8149Z" fill="#00FF57"/>
<path d="M311.562 53.0749C311.932 53.0749 312.224 52.8058 312.224 52.4358C312.224 52.0658 311.932 51.7855 311.562 51.7855C311.192 51.7855 310.901 52.0658 310.901 52.4358C310.901 52.8058 311.192 53.0749 311.562 53.0749ZM311.977 59.6454V53.9271H311.17V59.6454H311.977Z" fill="#00FF57"/>
<path d="M314.419 59.6454V56.4611C314.419 55.4071 315.137 54.555 316.236 54.555C317.177 54.555 317.738 55.1156 317.738 56.3153V59.6454H318.534V56.2481C318.534 54.611 317.716 53.8149 316.381 53.8149C315.619 53.8149 314.879 54.2074 314.498 54.8689H314.419L314.318 53.9271H313.556C313.612 54.9474 313.612 55.9565 313.612 56.9769V59.6454H314.419Z" fill="#00FF57"/>
<path d="M322.639 62.0001C324.197 62.0001 325.072 61.0694 325.072 59.78V56.932C325.072 55.9229 325.072 54.9474 325.128 53.9271H324.377L324.276 54.8801H324.197C323.805 54.2186 323.177 53.8149 322.28 53.8149C320.811 53.8149 319.836 54.981 319.836 56.6741C319.836 58.3672 320.811 59.5333 322.28 59.5333C323.177 59.5333 323.805 59.1297 324.197 58.4681H324.276V59.7464C324.276 60.7218 323.625 61.2937 322.639 61.2937C321.753 61.2937 321.103 60.9685 320.845 60.2173L320.093 60.4976C320.475 61.5067 321.45 62.0001 322.639 62.0001ZM322.459 58.8045C321.36 58.8045 320.643 57.9524 320.643 56.6741C320.643 55.3959 321.36 54.5438 322.459 54.5438C323.569 54.5438 324.276 55.3959 324.276 56.6741C324.276 57.9411 323.569 58.8045 322.459 58.8045Z" fill="#00FF57"/>
<path d="M321.25 19C323.785 19 325.518 16.9359 325.518 14.4131C325.518 11.8775 323.785 9.82617 321.25 9.82617C318.702 9.82617 316.969 11.8775 316.969 14.4131C316.969 16.9359 318.702 19 321.25 19ZM321.25 18.4139C319.084 18.4139 317.619 16.6301 317.619 14.4131C317.619 12.1833 319.084 10.4123 321.25 10.4123C323.403 10.4123 324.868 12.1833 324.868 14.4131C324.868 16.6301 323.416 18.4139 321.25 18.4139ZM320.383 16.6429V14.8336H321.377L322.32 16.6429H323.059L322.065 14.8463V14.7571C322.626 14.5915 322.957 14.1583 322.957 13.5212C322.957 12.6675 322.371 12.1833 321.492 12.1833H319.721V16.6429H320.383ZM320.383 12.744H321.454C321.963 12.744 322.295 13.0243 322.295 13.5212C322.295 14.0436 321.963 14.2984 321.454 14.2984H320.383V12.744Z" fill="#00FF57"/>
<path opacity="0.2" d="M20.8516 36.6992C20.9715 37.1502 21.1056 37.5968 21.2514 38.039H38.3681C38.9444 37.5968 39.516 37.1502 40.0852 36.6992H20.8539H20.8516Z" fill="white"/>
<path opacity="0.2" d="M22.7383 41.5552C22.9758 42.0083 23.2275 42.4549 23.4957 42.895H31.62C32.2763 42.4549 32.9302 42.0083 33.577 41.5552H22.7383Z" fill="white"/>
<path opacity="0.2" d="M21.6406 39.1289C21.8147 39.582 22.0029 40.0264 22.2051 40.4687H35.1091C35.7207 40.0264 36.3299 39.582 36.9344 39.1289H21.643H21.6406Z" fill="white"/>
<path opacity="0.2" d="M22.2286 19.7007C22.0263 20.1429 21.8381 20.5895 21.6641 21.0405H56.6148C56.9418 20.657 57.2687 20.2715 57.5886 19.8815C57.6474 19.814 57.6756 19.7573 57.6851 19.7029H22.2286V19.7007Z" fill="white"/>
<path opacity="0.2" d="M20.3285 34.2705C20.392 34.6496 20.4602 35.0286 20.5402 35.4077C20.5543 35.4752 20.5708 35.5428 20.5849 35.6103H41.4415C41.9872 35.1681 42.5306 34.7215 43.0692 34.2705H20.3262H20.3285Z" fill="white"/>
<path opacity="0.2" d="M24.209 43.9846C24.3195 44.1458 24.4348 44.3048 24.55 44.4617C24.7406 44.7558 24.9546 45.039 25.1757 45.3222H27.8548C28.5652 44.8821 29.2732 44.4377 29.9741 43.9824H24.2113L24.209 43.9846Z" fill="white"/>
<path opacity="0.2" d="M27.299 12.6118C26.8991 12.9778 26.5228 13.3612 26.1582 13.7534H53.5844C53.1445 13.2915 52.6835 12.8471 52.206 12.4136H27.5178C27.4448 12.4789 27.3719 12.5443 27.299 12.6096V12.6118Z" fill="white"/>
<path opacity="0.2" d="M20.0105 29.415C19.9987 29.8616 19.9964 30.3082 20.0058 30.7548H47.1192C47.6084 30.3126 48.0906 29.866 48.5728 29.415H20.0105Z" fill="white"/>
<path opacity="0.2" d="M26.0577 46.4131H26.0332C26.0332 46.4131 26.0381 46.4199 26.0406 46.4222C26.0479 46.4176 26.0528 46.4154 26.0577 46.4131Z" fill="white"/>
<path opacity="0.2" d="M23.516 17.2715C23.2525 17.7094 23.0032 18.156 22.7656 18.6113H57.1707C56.9143 18.1538 56.6438 17.7094 56.3615 17.2715H23.516Z" fill="white"/>
<path opacity="0.2" d="M25.2125 14.8447C24.8644 15.2782 24.5374 15.727 24.2246 16.1845H55.6095C55.2755 15.727 54.9274 15.2804 54.5604 14.8447H25.2125Z" fill="white"/>
<path opacity="0.2" d="M20.0547 31.8418C20.0829 32.2884 20.1229 32.735 20.177 33.1816H44.3643C44.8817 32.7393 45.3945 32.2927 45.9049 31.8418H20.057H20.0547Z" fill="white"/>
<path opacity="0.2" d="M38.3418 7.55762C37.5868 7.63169 36.8247 7.7515 36.0579 7.92361C34.9806 8.16106 33.9551 8.48784 32.9766 8.8974H46.9578C45.2454 8.17849 43.5001 7.7319 41.7219 7.55762H38.3418Z" fill="white"/>
<path opacity="0.2" d="M30.8028 9.98633C30.1183 10.3894 29.4597 10.8381 28.8223 11.3261H50.9514C50.361 10.8447 49.7471 10.3915 49.0955 9.98633H30.8028Z" fill="white"/>
<path opacity="0.2" d="M20.1829 26.9854C20.1288 27.4298 20.0888 27.8764 20.0605 28.3251H49.7236C50.1823 27.8829 50.6386 27.4363 51.0903 26.9854H20.1829Z" fill="white"/>
<path opacity="0.2" d="M20.5962 24.5566C20.4974 25.0011 20.4128 25.4476 20.3398 25.8964H52.174C52.6068 25.4542 53.0396 25.0076 53.4653 24.5566H20.5962Z" fill="white"/>
<path opacity="0.2" d="M21.2698 22.1299C21.1216 22.5743 20.9875 23.0209 20.8652 23.4697H54.4706C54.8751 23.0274 55.275 22.5808 55.6702 22.1299H21.2698Z" fill="white"/>
<path opacity="0.2" d="M35.1895 46.4111C34.5285 46.8599 33.8676 47.3065 33.209 47.7509H52.5202C52.9836 47.3261 53.4305 46.8817 53.8563 46.4111H35.1895Z" fill="white"/>
<path opacity="0.2" d="M38.7175 43.9826C38.6446 44.0328 38.5716 44.0872 38.4987 44.1373C37.9248 44.536 37.3532 44.9281 36.7793 45.3203H54.7804C55.1332 44.8802 55.4672 44.4336 55.7801 43.9805H38.7151L38.7175 43.9826Z" fill="white"/>
<path opacity="0.2" d="M54.1274 30.7519H59.9889C59.9913 30.6669 59.9983 30.582 59.9983 30.4948C60.0031 30.1354 60.0007 29.7737 59.9913 29.4121H55.4704C55.0282 29.8652 54.5813 30.3118 54.125 30.7519H54.1274Z" fill="white"/>
<path opacity="0.2" d="M42.0337 41.5537C41.4433 42.0068 40.8482 42.4534 40.2461 42.8935H56.4901C56.7606 42.4534 57.0123 42.0068 57.2499 41.5537H42.0337Z" fill="white"/>
<path opacity="0.2" d="M32.8301 51.2676C34.3919 51.9473 36.0173 52.396 37.7038 52.6074H42.2317C43.9276 52.4026 45.5412 51.9429 47.0936 51.2676H32.8301Z" fill="white"/>
<path opacity="0.2" d="M31.5179 48.8406C31.0192 49.1455 30.5182 49.4418 30.0195 49.7446C30.0454 49.7686 30.0713 49.7947 30.123 49.8187C30.3183 49.9429 30.5135 50.0627 30.7111 50.1782H49.2367C49.9306 49.7686 50.5868 49.322 51.2149 48.8384H31.5202L31.5179 48.8406Z" fill="white"/>
<path opacity="0.2" d="M50.4051 34.2686C49.9346 34.7173 49.4619 35.1639 48.9844 35.6083H59.4044C59.5009 35.1661 59.5809 34.7195 59.6538 34.2686H50.4051Z" fill="white"/>
<path opacity="0.2" d="M59.4877 24.9639C59.4101 25.0641 59.3324 25.1381 59.2807 25.1861C59.0807 25.4235 58.8761 25.6588 58.6738 25.8941H59.6641C59.6547 25.8396 59.6476 25.7852 59.6382 25.7329C59.5865 25.4845 59.5347 25.2623 59.4853 24.9639H59.4877Z" fill="white"/>
<path opacity="0.2" d="M57.7278 26.9834C57.3279 27.4343 56.9233 27.8809 56.5117 28.3232H59.9388C59.9082 27.8766 59.8683 27.4278 59.8142 26.9834H57.7254H57.7278Z" fill="white"/>
<path opacity="0.2" d="M45.0504 39.1265C44.5117 39.5796 43.9684 40.0262 43.418 40.4662H57.7897C57.992 40.024 58.1801 39.5774 58.3542 39.1265H45.0504Z" fill="white"/>
<path opacity="0.2" d="M47.8049 36.6973C47.3133 37.146 46.817 37.5926 46.3184 38.037H58.7425C58.8883 37.5948 59.0224 37.1482 59.1423 36.6973H47.8049Z" fill="white"/>
<path opacity="0.2" d="M52.9719 31.8413C52.4897 32.2857 52.0099 32.728 51.5371 33.1811H59.805C59.8567 32.7389 59.899 32.2923 59.932 31.8413H52.9719Z" fill="white"/>
<path d="M7.89331 38.9707C7.15134 40.1387 6.3599 41.2825 5.6674 42.4749C4.7523 43.9837 3.96086 45.5898 3.46622 47.2932C3.21889 48.0963 3.0705 48.9237 3.0705 49.7754C3.0705 51.7465 4.15872 53.0363 6.11258 53.45C7.07714 53.6447 8.01697 53.6446 8.98153 53.5473C11.7268 53.2553 14.299 52.3549 16.8217 51.3328C16.8464 51.3328 16.8712 51.3085 16.8712 51.3085C9.99556 45.1031 6.63196 37.4376 7.3492 28.2389C7.94277 20.6707 11.2816 14.3437 17.1679 9.45232C23.8457 3.90394 31.6364 1.8598 40.2185 3.36857C48.8254 4.90168 55.231 9.647 59.7076 16.9962C60.1528 16.3391 60.598 15.6577 61.0184 15.0007C62.0077 13.4189 62.8981 11.7885 63.5164 10.0364C63.8626 9.06296 64.11 8.08956 64.11 7.06749C64.1347 5.99675 63.8874 4.99902 63.0712 4.2203C62.4529 3.63626 61.6615 3.34424 60.8206 3.19823C59.6087 3.00355 58.4215 3.10089 57.2096 3.29557C54.6869 3.70926 52.2879 4.58532 49.9383 5.55872C49.7157 5.65606 49.5179 5.72907 49.2953 5.80207C49.6168 5.63173 49.9383 5.48572 50.2846 5.31537C52.6589 4.17163 55.0579 3.14956 57.5559 2.32217C59.0893 1.81113 60.6474 1.39744 62.255 1.17842C63.5411 0.983744 64.8519 0.91074 66.138 1.15409C67.1026 1.34877 67.993 1.68946 68.6855 2.41951C69.4027 3.17389 69.7984 4.07429 69.9468 5.09636C70.1199 6.48345 69.8479 7.82188 69.4027 9.11163C68.8091 10.9124 67.9188 12.5915 66.9542 14.222C65.4455 16.7772 63.7142 19.2106 61.9088 21.5955C61.8346 21.7172 61.8099 21.7902 61.8593 21.9362C62.4776 23.737 62.8733 25.5864 63.0712 27.4845C63.2691 29.261 63.2938 31.0375 63.1207 32.8382C62.8239 36.3668 61.8593 39.7007 60.227 42.8643C58.7925 45.6628 56.9128 48.1449 54.6375 50.3108C52.56 52.2819 50.2598 53.888 47.6877 55.1291C45.0908 56.3945 42.395 57.2462 39.526 57.6843C37.8195 57.9519 36.0882 58.0493 34.3322 58.0006C29.7567 57.8546 25.4533 56.6622 21.4714 54.4477C21.2488 54.326 21.0757 54.326 20.8531 54.4477C18.2067 55.7375 15.5109 56.8812 12.6914 57.7573C11.1827 58.2196 9.64931 58.609 8.09117 58.828C6.68142 59.0227 5.27168 59.0957 3.88667 58.8037C2.84791 58.5847 1.88334 58.1953 1.11664 57.4166C0.498332 56.7839 0.176812 56.0295 0.0531499 55.1534C-0.119977 53.815 0.152079 52.5009 0.547797 51.2355C1.14137 49.3374 2.05647 47.5852 3.0705 45.8818C4.48024 43.497 6.13731 41.2581 7.86858 39.0923C7.84384 39.0193 7.86858 38.995 7.89331 38.9707ZM27.0362 46.0278C27.1598 45.9548 27.234 45.9305 27.2835 45.8818C32.2052 42.8886 36.8549 39.5304 41.282 35.9044C45.066 32.8139 48.7017 29.5287 52.09 26.0001C53.945 24.0776 55.7257 22.0822 57.4075 19.9894C57.5312 19.8434 57.5312 19.746 57.457 19.6C56.0967 16.8745 54.2665 14.4897 51.9911 12.4455C50.7298 11.3018 49.3942 10.231 47.8113 9.50099C44.2499 7.82188 40.54 7.38385 36.6818 8.2599C33.4171 8.98995 30.6471 10.5961 28.248 12.8592C26.2695 14.7087 24.7608 16.8988 23.5984 19.308C22.1639 22.3255 21.3972 25.4891 21.2488 28.7986C21.1499 30.9644 21.2982 33.1059 21.7434 35.2231C22.4112 38.4353 23.6726 41.4285 25.6017 44.1053C26.0221 44.7624 26.5415 45.3708 27.0362 46.0278ZM30.8697 49.2887C30.8944 49.313 30.9191 49.3374 30.9686 49.3617C34.3322 51.5518 38.0421 52.5252 42.0734 52.1602C44.2993 51.9655 46.3769 51.3085 48.3554 50.2864C50.7792 49.021 52.8073 47.3176 54.5138 45.2004C58.0011 40.8688 59.6087 35.8801 59.7323 30.4047C59.7571 28.8473 59.6334 27.2655 59.3861 25.7324C59.3366 25.4891 59.2872 25.2701 59.2377 24.978C59.1635 25.0754 59.0893 25.1484 59.0398 25.1971C57.3828 27.2169 55.6268 29.1637 53.7471 30.9888C52.8567 31.8405 51.9416 32.6679 51.076 33.544C49.4437 35.1501 47.7866 36.7075 46.0801 38.2406C43.8294 40.2117 41.4799 42.0612 39.0313 43.789C37.1764 45.1031 35.3215 46.3928 33.4666 47.6582C32.6009 48.2423 31.7353 48.7533 30.8697 49.2887Z" fill="#00FF57"/>
</svg>
