<svg width="231" height="51" viewBox="0 0 231 51" fill="none" xmlns="http://www.w3.org/2000/svg">
<path d="M0 0.137207H3V50.1372H0V0.137207Z" fill="white"/>
<path d="M35.72 22.2572C35.72 24.6572 47.36 22.3772 47.36 29.0972C47.36 31.9772 44.72 34.6172 38.6 34.6172C32.36 34.6172 29.72 31.9772 29.72 29.3372C29.72 28.7372 30.08 28.3772 30.68 28.3772H33.68C34.4 28.3772 34.784 28.7612 35.12 29.3372C35.48 29.9372 36.2 30.6572 38.6 30.6572C41 30.6572 41.84 29.8172 41.84 29.0972C41.84 26.6972 30.2 28.9772 30.2 22.2572C30.2 19.3772 32.72 16.8572 38.6 16.8572C44.12 16.8572 46.76 19.4972 46.76 21.8972C46.76 22.4972 46.4 22.8572 45.8 22.8572H42.8C42.08 22.8572 41.696 22.4972 41.36 21.8972C41.144 21.5372 40.4 20.8172 38.6 20.8172C36.44 20.8172 35.72 21.5372 35.72 22.2572ZM54.6781 25.7372C54.6781 28.9772 56.3581 30.6572 58.9981 30.6572C61.6381 30.6572 63.3181 28.9772 63.3181 25.7372C63.3181 22.4972 61.6381 20.8172 58.9981 20.8172C56.3581 20.8172 54.6781 22.4972 54.6781 25.7372ZM68.8381 25.7612C68.8381 28.3772 67.1581 30.0572 67.1581 30.0572V30.2972H69.1981C69.6781 30.2972 70.0381 30.6572 70.0381 31.1372V33.5372C70.0381 34.0172 69.6781 34.3772 69.1981 34.3772H58.9981C52.6381 34.3772 49.1581 30.8972 49.1581 25.7372C49.1581 20.3372 52.6381 16.8572 58.9981 16.8572C65.3581 16.8572 68.8381 20.3372 68.8381 25.7612ZM81.0678 34.6172C75.0678 34.6172 72.1878 31.7372 72.1878 27.1772V18.1772C72.1878 17.6972 72.5478 17.3372 73.0278 17.3372H76.6278C77.1078 17.3372 77.4678 17.6972 77.4678 18.1772V27.1772C77.4678 29.3372 78.7878 30.6572 81.0678 30.6572C83.3478 30.6572 84.6678 29.3372 84.6678 27.1772V18.1772C84.6678 17.6972 85.0278 17.3372 85.5078 17.3372H89.1078C89.5878 17.3372 89.9478 17.6972 89.9478 18.1772V27.1532C89.9478 31.7372 86.9478 34.6172 81.0678 34.6172ZM105.988 33.2972L105.148 31.1372H97.5883L96.7483 33.2972C96.5563 33.7772 96.1483 34.1372 95.6683 34.1372H91.8283C91.3483 34.1372 91.0122 33.7772 91.2283 33.2972L97.9483 18.1772C98.1643 17.6972 98.5483 17.3372 99.0283 17.3372H103.948C104.428 17.3372 104.812 17.6732 105.028 18.1532L111.748 33.2972C111.964 33.7772 111.628 34.1372 111.148 34.1372H107.068C106.588 34.1372 106.18 33.7772 105.988 33.2972ZM101.308 22.3772L99.2683 27.1772H103.468L101.548 22.3772H101.308ZM127.788 26.6972V26.9372C127.788 26.9372 128.868 27.4172 130.068 29.5772L132.108 33.2972C132.3 33.6572 132.108 34.1372 131.508 34.1372H127.788C126.828 34.1372 126.492 33.7772 126.228 33.2972L124.188 29.5772C123.804 28.8572 123.348 28.3772 122.028 28.3772H118.908V33.2972C118.908 33.7772 118.548 34.1372 118.068 34.1372H114.468C113.988 34.1372 113.628 33.7772 113.628 33.2972V18.1772C113.628 17.6972 113.988 17.3372 114.468 17.3372H123.228C128.508 17.3372 131.028 19.8572 131.028 22.8572C131.028 25.9772 127.788 26.6972 127.788 26.6972ZM118.908 24.5372H123.228C124.788 24.5372 125.508 23.8172 125.508 22.8572C125.508 21.8972 124.788 21.1772 123.228 21.1772H118.908V24.5372ZM150.667 18.1772V20.5772C150.667 21.0572 150.307 21.4172 149.827 21.4172H139.627V23.5772H147.187C147.667 23.5772 148.027 23.9372 148.027 24.4172V26.8172C148.027 27.2972 147.667 27.6572 147.187 27.6572H139.627V30.0572H149.827C150.307 30.0572 150.667 30.4172 150.667 30.8972V33.2972C150.667 33.7772 150.307 34.1372 149.827 34.1372H135.187C134.707 34.1372 134.347 33.7772 134.347 33.2972V18.1772C134.347 17.6972 134.707 17.3372 135.187 17.3372H149.827C150.307 17.3372 150.667 17.6972 150.667 18.1772ZM154.148 34.1372C153.668 34.1372 153.308 33.7772 153.308 33.2972V18.1772C153.308 17.6972 153.668 17.3372 154.148 17.3372H161.708C168.188 17.3372 171.548 20.6972 171.548 25.7372C171.548 30.7772 168.188 34.1372 161.708 34.1372H154.148ZM158.588 30.2972H161.708C164.468 30.2972 166.028 28.7372 166.028 25.7372C166.028 22.7372 164.468 21.1772 161.708 21.1772H158.588V30.2972ZM189.545 30.8972V33.2972C189.545 33.7772 189.185 34.1372 188.705 34.1372H175.265C174.785 34.1372 174.425 33.7772 174.425 33.2972V18.1772C174.425 17.6972 174.785 17.3372 175.265 17.3372H178.865C179.345 17.3372 179.705 17.6972 179.705 18.1772V30.0572H188.705C189.185 30.0572 189.545 30.4172 189.545 30.8972ZM204.73 33.2972L203.89 31.1372H196.33L195.49 33.2972C195.298 33.7772 194.89 34.1372 194.41 34.1372H190.57C190.09 34.1372 189.754 33.7772 189.97 33.2972L196.69 18.1772C196.906 17.6972 197.29 17.3372 197.77 17.3372H202.69C203.17 17.3372 203.554 17.6732 203.77 18.1532L210.49 33.2972C210.706 33.7772 210.37 34.1372 209.89 34.1372H205.81C205.33 34.1372 204.922 33.7772 204.73 33.2972ZM200.05 22.3772L198.01 27.1772H202.21L200.29 22.3772H200.05ZM228.93 22.0172C228.93 24.4172 226.53 25.1372 226.53 25.1372V25.3772C226.53 25.3772 230.13 26.0972 230.13 29.2172C230.13 31.8572 227.85 34.1372 222.81 34.1372H213.21C212.73 34.1372 212.37 33.7772 212.37 33.2972V18.1772C212.37 17.6972 212.73 17.3372 213.21 17.3372H221.85C226.77 17.3372 228.93 19.4972 228.93 22.0172ZM222.81 27.4172H217.65V30.2972H222.81C224.01 30.2972 224.61 29.6972 224.61 28.8572C224.61 28.0172 224.01 27.4172 222.81 27.4172ZM221.85 21.1772H217.65V23.5772H221.85C222.93 23.5772 223.41 23.0972 223.41 22.3772C223.41 21.6572 222.954 21.1772 221.85 21.1772Z" fill="white"/>
</svg>
