<svg width="46" height="44" viewBox="0 0 46 44" fill="none" xmlns="http://www.w3.org/2000/svg">
<path fill-rule="evenodd" clip-rule="evenodd" d="M35.4261 36.2816V36.2779L35.4606 36.1991L41.2087 8.47909V8.39109C41.2087 7.69992 40.9404 7.09676 40.3615 6.73559C39.8536 6.41842 39.269 6.39642 38.8589 6.42576C38.4771 6.45879 38.1003 6.53258 37.7357 6.64576C37.5802 6.69371 37.4267 6.74753 37.2757 6.80709L37.2508 6.81626L5.2041 18.8411L5.19452 18.8448C5.09709 18.8766 5.00172 18.9139 4.90893 18.9566C4.68102 19.0545 4.46235 19.1711 4.25535 19.3049C3.84327 19.5763 3.05935 20.2143 3.1916 21.2263C3.30085 22.0659 3.9046 22.5976 4.31285 22.8744C4.55382 23.036 4.8129 23.1712 5.08527 23.2778L5.1466 23.3034L5.16577 23.3089L5.17918 23.3144L10.7874 25.1203C10.7682 25.4558 10.8027 25.7986 10.8966 26.1378L13.7045 36.3293C13.8579 36.8848 14.1894 37.3804 14.6524 37.7465C15.1153 38.1126 15.6866 38.3308 16.2858 38.3705C16.8851 38.4101 17.4823 38.2692 17.9936 37.9675C18.5048 37.6659 18.9045 37.2186 19.1364 36.6886L23.5217 32.2043L31.0523 37.7263L31.1596 37.7703C31.8439 38.0563 32.4821 38.1461 33.0667 38.0709C33.6513 37.9939 34.1151 37.7593 34.4639 37.4934C34.8674 37.1805 35.189 36.7819 35.4031 36.3293L35.4184 36.2981L35.4242 36.2871L35.4261 36.2816ZM13.6758 25.4374C13.6447 25.3243 13.6521 25.2047 13.6969 25.0959C13.7417 24.9871 13.8216 24.8948 13.9249 24.8324L32.9402 13.2824C32.9402 13.2824 34.0595 12.6316 34.0193 13.2824C34.0193 13.2824 34.2186 13.3961 33.6187 13.9296C33.0514 14.4374 20.0659 26.4293 18.7511 27.6429C18.678 27.7108 18.6268 27.7974 18.6035 27.8923L16.4837 35.6289L13.6758 25.4356V25.4374Z" fill="white"/>
</svg>
